<?xml version="1.0" standalone="no"?>
<!DOCTYPE svg PUBLIC "-//W3C//DTD SVG 20010904//EN"
 "http://www.w3.org/TR/2001/REC-SVG-20010904/DTD/svg10.dtd">
<svg version="1.0" xmlns="http://www.w3.org/2000/svg"
 width="897.000000pt" height="897.000000pt" viewBox="0 0 897.000000 897.000000"
 preserveAspectRatio="xMidYMid meet">
<metadata>
Created by potrace 1.14, written by Peter Selinger 2001-2017
</metadata>
<g transform="translate(0.000000,897.000000) scale(0.100000,-0.100000)"
fill="#000000" stroke="none">
<path d="M7352 8940 c-7 -12 -105 -145 -219 -298 -113 -152 -273 -367 -354
-477 -82 -110 -229 -308 -328 -440 -98 -132 -177 -242 -175 -244 2 -2 88 -3
193 -3 135 0 191 -3 194 -11 7 -20 -5 -307 -18 -442 -14 -142 -17 -168 -20
-183 -1 -9 -6 -44 -10 -77 -3 -32 -8 -62 -10 -65 -1 -3 -6 -27 -9 -55 -4 -27
-11 -68 -16 -90 -5 -22 -11 -51 -13 -65 -67 -359 -225 -818 -410 -1186 -229
-457 -496 -824 -866 -1194 -567 -567 -1184 -938 -1977 -1190 -59 -19 -379 -98
-420 -104 -22 -4 -55 -11 -73 -16 -17 -5 -35 -9 -39 -9 -9 -1 -92 -13 -116
-17 -57 -10 -233 -31 -336 -39 -166 -13 -203 -15 -405 -15 -226 0 -241 0 -525
25 -49 4 -51 3 -15 -4 49 -11 120 -20 205 -27 36 -2 81 -6 100 -9 204 -23 839
-23 959 0 11 2 62 7 113 10 51 4 95 8 98 10 3 2 32 6 65 10 61 6 79 9 175 25
30 5 71 12 90 15 142 23 412 87 595 140 601 176 1121 419 1653 772 95 63 178
120 185 127 6 6 46 36 87 66 41 30 77 57 80 60 3 3 38 32 79 65 227 180 529
471 731 705 36 41 67 77 70 80 18 18 141 175 217 275 262 350 496 755 673
1163 53 124 137 337 145 367 1 6 5 17 8 25 3 8 20 60 38 115 17 55 37 118 44
140 37 114 127 488 138 570 l4 30 197 2 c109 0 200 3 202 6 3 2 -39 72 -92
153 -93 142 -130 200 -302 464 -41 63 -103 158 -137 210 -90 137 -334 514
-380 587 -22 35 -45 63 -50 63 -6 0 -16 -9 -23 -20z"/>
<path d="M1235 7341 c-222 -54 -394 -203 -474 -411 -16 -41 -32 -100 -37 -130
-4 -30 -8 -889 -8 -1908 l-1 -1852 30 -9 c44 -13 68 -19 200 -46 184 -38 216
-44 270 -50 28 -4 57 -8 65 -10 8 -2 45 -7 83 -10 l67 -7 1 1648 c0 907 2
1660 5 1674 27 155 151 309 299 373 98 42 81 42 1996 41 1871 -1 1859 0 1954
-36 143 -54 276 -214 306 -368 6 -33 10 -217 10 -462 0 -225 2 -408 4 -408 4
0 70 136 110 225 96 216 222 594 261 784 3 12 11 51 19 85 8 33 23 117 35 186
11 69 23 136 25 150 3 14 7 50 11 80 3 30 7 66 9 79 3 14 7 72 11 130 l6 106
-64 42 c-113 75 -124 78 -311 78 -154 0 -184 3 -157 20 6 3 10 10 10 15 0 5
-958 9 -2332 9 -2159 -1 -2338 -2 -2403 -18z"/>
<path d="M3579 6106 c-2 -2 -26 -6 -54 -10 -27 -3 -75 -13 -105 -21 -30 -8
-63 -17 -73 -20 -48 -11 -194 -77 -262 -118 -203 -122 -395 -340 -488 -553
-30 -70 -69 -190 -83 -257 -28 -137 -24 -423 7 -504 5 -13 7 -23 4 -23 -10 0
69 -209 103 -275 147 -280 399 -496 694 -594 51 -17 104 -34 118 -37 190 -39
402 -37 575 7 483 123 845 531 914 1029 9 67 7 296 -3 340 -3 14 -10 48 -15
75 -81 433 -471 834 -903 929 -40 9 -84 19 -98 23 -29 6 -324 15 -331 9z m241
-367 l0 -108 38 -8 c20 -4 39 -8 42 -8 84 -17 153 -48 179 -81 17 -22 20 -39
18 -113 -3 -123 -10 -130 -95 -87 -99 50 -159 67 -232 68 -78 1 -104 -6 -148
-39 -38 -29 -54 -63 -54 -115 1 -83 44 -123 214 -201 163 -75 237 -119 290
-172 49 -48 93 -126 104 -185 17 -96 -7 -272 -42 -301 -8 -6 -14 -17 -14 -23
0 -17 -81 -100 -127 -131 -24 -15 -71 -38 -105 -50 l-63 -23 -3 -116 c-3 -112
-3 -116 -25 -117 -26 -1 -144 -1 -169 0 -16 1 -18 13 -18 111 l0 110 -33 0
c-75 0 -235 53 -288 95 -35 27 -42 55 -41 149 2 113 17 126 99 78 256 -150
533 -105 533 86 0 92 -40 129 -240 224 -157 75 -207 105 -257 156 -82 82 -114
171 -109 301 3 73 8 99 33 152 49 103 125 169 240 208 l58 20 3 114 3 115 104
-1 105 0 0 -108z"/>
<path d="M8389 5118 c-76 -164 -375 -801 -425 -906 -35 -74 -64 -135 -64 -137
0 -1 -34 -73 -75 -160 -41 -86 -75 -158 -75 -159 0 -2 -29 -64 -64 -137 -97
-206 -133 -282 -206 -439 -37 -80 -102 -218 -144 -307 -42 -90 -76 -165 -76
-168 0 -3 44 -5 99 -5 67 0 102 4 108 13 6 6 31 58 57 114 25 57 73 160 106
229 33 70 60 128 60 129 0 1 26 58 59 126 62 132 90 192 140 304 18 39 43 90
56 115 l24 45 208 1 c114 1 214 2 221 3 9 1 12 29 12 106 l0 105 -171 0 c-164
0 -170 1 -164 20 3 10 43 99 89 197 46 98 95 203 109 233 14 30 50 109 81 174
l56 119 -2 210 c-3 198 -4 207 -19 175z"/>
<path d="M6634 4503 c-123 -136 -318 -328 -449 -443 -66 -58 -131 -115 -145
-127 -14 -13 -28 -23 -31 -23 -4 0 -7 -309 -8 -687 0 -379 -3 -703 -5 -722
-20 -135 -106 -268 -223 -346 l-43 -28 0 -383 0 -384 48 0 c370 -4 453 7 586
78 171 92 316 293 342 475 5 38 14 2677 8 2677 0 0 -36 -39 -80 -87z"/>
<path d="M1260 2756 c0 -2 18 -6 39 -8 22 -2 37 0 35 4 -5 8 -74 11 -74 4z"/>
<path d="M716 2333 c0 -203 4 -390 9 -418 43 -274 282 -511 552 -548 36 -5
250 -9 454 -7 l66 0 0 362 0 363 -78 37 c-134 66 -229 179 -273 327 -9 30 -16
69 -16 87 0 35 9 31 -120 49 -14 1 -45 6 -70 9 -57 8 -253 44 -305 56 -55 13
-216 50 -218 50 -1 0 -2 -165 -1 -367z"/>
<path d="M2696 2650 c-2 -3 -2 -79 -2 -168 1 -100 -3 -166 -9 -170 -5 -4 -32
-7 -60 -7 l-50 0 -3 -722 -2 -722 62 -3 63 -3 0 -170 0 -170 58 -3 57 -3 0
176 0 175 59 0 c38 0 60 4 63 13 3 10 2 1364 -1 1418 -1 13 -12 15 -61 14
l-60 -2 0 173 c0 96 -3 174 -7 175 -40 3 -105 3 -107 -1z"/>
<path d="M3740 2480 l0 -176 -55 1 c-30 1 -58 -1 -63 -4 -4 -3 -8 -329 -7
-723 l0 -718 62 0 63 0 0 -175 0 -175 55 0 c37 0 55 4 56 13 1 6 2 84 3 172
l1 160 63 3 62 3 -2 722 -3 721 -60 1 -60 0 0 173 c0 146 -2 172 -15 173 -8 0
-34 1 -57 2 l-43 2 0 -175z"/>
<path d="M4814 2651 c-2 -2 -4 -80 -4 -173 0 -92 -3 -169 -7 -169 -5 -1 -30
-3 -58 -4 -27 -2 -52 -3 -55 -4 -3 -1 -5 -325 -5 -721 l0 -720 62 0 63 0 0
-175 0 -175 58 0 57 0 -1 175 0 175 63 0 63 0 0 720 c0 679 -1 720 -17 721
-10 1 -37 2 -60 2 -23 0 -44 5 -46 11 -2 6 -3 84 -3 174 1 101 -3 162 -9 163
-46 3 -97 4 -101 0z"/>
<path d="M3229 2143 c-1 -5 -2 -82 -3 -173 l-1 -165 -63 -3 -62 -3 2 -722 3
-722 55 1 c30 0 57 -3 60 -7 3 -4 5 -82 5 -173 l-1 -166 23 -1 c13 0 38 -1 56
-2 l32 -1 2 164 c1 90 4 169 7 176 3 7 25 11 56 9 37 -1 54 3 58 13 3 8 6 333
6 723 l1 709 -62 0 -63 0 -1 128 c0 70 0 148 1 175 l1 47 -55 0 c-31 0 -57 -3
-57 -7z"/>
<path d="M4266 1976 l1 -173 -26 -1 c-14 0 -42 0 -62 -1 l-36 -1 -1 -717 c0
-399 4 -720 9 -723 5 -3 32 -5 62 -4 l53 2 0 -170 c-1 -117 3 -172 10 -175 6
-2 32 -5 57 -6 l47 -2 2 175 3 175 58 0 c31 0 58 5 58 10 1 6 2 331 3 723 l1
712 -62 0 -63 0 0 175 0 175 -57 0 -58 0 1 -174z"/>
</g>
</svg>
