<?xml version="1.0"?>
<svg xmlns="http://www.w3.org/2000/svg" xmlns:xlink="http://www.w3.org/1999/xlink" xmlns:svgjs="http://svgjs.com/svgjs" version="1.1" width="512" height="512" x="0" y="0" viewBox="0 0 60 60" style="enable-background:new 0 0 512 512" xml:space="preserve" class=""><g><g xmlns="http://www.w3.org/2000/svg" id="Page-1" fill="none" fill-rule="evenodd"><g id="055---message-error" fill-rule="nonzero"><g id="color" transform="translate(1 1)"><path id="Shape" d="m58 24v30c0 2.209139-1.790861 4-4 4h-.83l-18.17-15 16-13.21z" fill="#5cbae5" data-original="#02a9f4" style="" class=""/><path id="Shape" d="m55 26.48v27.52c-.0041688 1.5468254-.8998162 2.9526024-2.3 3.61l.47.39h.83c2.209139 0 4-1.790861 4-4v-30z" fill="#0377bc" data-original="#0377bc" style="" class=""/><path id="Shape" d="m53.17 58h-48.34l18.17-15 3.49-2.89c1.4795847-1.2242648 3.6204153-1.2242648 5.1 0l3.41 2.89z" fill="#3aa2c5" data-original="#00bcd4" style="" class=""/><path id="Shape" d="m23 43-18.17 15h-.83c-2.209139 0-4-1.790861-4-4v-30l7 5.79 8.42 7z" fill="#5cbae5" data-original="#02a9f4" style="" class=""/><g fill="#3f51b5"><path id="Shape" d="m38.45 7h-18.9l6.9-6c1.4795847-1.22426477 3.6204153-1.22426477 5.1 0z" fill="#064564" data-original="#3f51b5" style="" class=""/><path id="Shape" d="m58 24-7 5.79v-11.88z" fill="#064564" data-original="#3f51b5" style="" class=""/><path id="Shape" d="m7 17.91v11.88l-7-5.79z" fill="#064564" data-original="#3f51b5" style="" class=""/></g><path id="Shape" d="m47 7h-36c-2.209139 0-4 1.790861-4 4v18.79l8.42 7 7.58 6.21 3.49-2.89c1.4795847-1.2242648 3.6204153-1.2242648 5.1 0l3.41 2.89 16-13.21v-18.79c0-2.209139-1.790861-4-4-4zm-7.28 11.06-6.72 5.33 6 6.26c.3627595.3703364.5574774.8734208.5385701 1.3914807-.0189073.5180598-.2497798 1.0056117-.6385701 1.3485193-.7347477.6865717-1.8650283.7208226-2.64.08l-7.26-5.85-7.33 5.85c-.7799754.6586928-1.9308606.6242094-2.67-.08-.3887903-.3429076-.6196628-.8304595-.6385701-1.3485193-.0189073-.5180599.1758106-1.0211443.5385701-1.3914807l6-6.26-6.68-5.33c-.7168325-.5665543-1.1720247-1.4006051-1.2606986-2.3099837-.0886739-.9093787.1968185-1.8156539.7906986-2.5100163.6623092-.7615978 1.6132036-1.2111531 2.6221002-1.239653s1.983653.3666585 2.6878998 1.089653l5.94 6.11 5.88-6.11c.7042468-.7229945 1.6790032-1.1181529 2.6878998-1.089653s1.959791.4780552 2.6221002 1.239653c.5938801.6943624.8793725 1.6006376.7906986 2.5100163-.0886739.9093786-.5438661 1.7434294-1.2606986 2.3099837z" fill="#f5f5f5" data-original="#f5f5f5" style="" class=""/><path id="Shape" d="m47 7h-3c2.209139 0 4 1.790861 4 4v18.79l-14.46 12 1.46 1.21 16-13.21v-18.79c0-2.209139-1.790861-4-4-4z" fill="#cfd8dc" data-original="#cfd8dc" style="" class=""/><path id="Shape" d="m23.45 40.11-2 1.65 1.55 1.24 3.49-2.89c.3154309-.2577372.6698616-.4636446 1.05-.61-1.3708474-.5718096-2.9456646-.3369347-4.09.61z" fill="#cfd8dc" data-original="#cfd8dc" style="" class=""/><path id="Shape" d="m39.72 18.06-6.72 5.33 6 6.26c.3627595.3703364.5574774.8734208.5385701 1.3914807-.0189073.5180598-.2497798 1.0056117-.6385701 1.3485193-.7347477.6865717-1.8650283.7208226-2.64.08l-7.26-5.85-7.33 5.85c-.7799754.6586928-1.9308606.6242094-2.67-.08-.3887903-.3429076-.6196628-.8304595-.6385701-1.3485193-.0189073-.5180599.1758106-1.0211443.5385701-1.3914807l6-6.26-6.68-5.33c-.7168325-.5665543-1.1720247-1.4006051-1.2606986-2.3099837-.0886739-.9093787.1968185-1.8156539.7906986-2.5100163.6623092-.7615978 1.6132036-1.2111531 2.6221002-1.239653s1.983653.3666585 2.6878998 1.089653l5.94 6.11 5.88-6.11c.7042468-.7229945 1.6790032-1.1181529 2.6878998-1.089653s1.959791.4780552 2.6221002 1.239653c.5938801.6943624.8793725 1.6006376.7906986 2.5100163-.0886739.9093786-.5438661 1.7434294-1.2606986 2.3099837z" fill="#ff6501" data-original="#e91e63" style="" class=""/></g><g id="Icons" fill="#000"><path id="Shape" d="m60 24.82c.0034444-.0532777.0034444-.1067223 0-.16 0 0 0-.05 0-.07-.024335-.0415063-.0510461-.081573-.08-.12 0 0 0-.08-.06-.11v-.06l-6.86-5.85v-6.45c0-2.76142375-2.2385763-5-5-5h-8.18l-6.63-5.77c-1.8539053-1.54416728-4.5460947-1.54416728-6.4 0l-6.61 5.77h-8.18c-2.76142375 0-5 2.23857625-5 5v6.45l-6.66 5.8v.06s0 .07-.06.11c-.02895392.038427-.05566503.0784937-.08.12v.07c-.00344445.0532777-.00344445.1067223 0 .16-.08132605.0625744-.14932466.1407728-.2.23v30c0 2.7614237 2.23857625 5 5 5h50c2.7614237 0 5-2.2385763 5-5v-30c.0070371-.0597937.0070371-.1202063 0-.18zm-2.55.18-4.45 3.67v-7.56zm-29.36-22.23c1.1052014-.90448353 2.6947986-.90448353 3.8 0l4.89 4.23h-13.56zm-16.09 6.23h36c1.6568542 0 3 1.3431458 3 3v18.32l-15 12.38-2.85-2.36c-1.8503695-1.5330909-4.5296305-1.5330909-6.38 0l-2.77 2.36-15-12.38v-18.32c0-1.6568542 1.3431458-3 3-3zm16.09 32.88c1.1087973-.9154435 2.7112027-.9154435 3.82 0l19.48 16.12h-42.78zm-21.09-13.21-4.45-3.67 4.45-3.89zm-5 26.33v-27.87l20.39 16.87-16.92 14h-.47c-1.65685425 0-3-1.3431458-3-3zm53 3h-.47l-16.92-14 20.39-16.87v27.87c0 1.6568542-1.3431458 3-3 3z" fill="#000000" data-original="#000000" style="" class=""/><path id="Shape" d="m18.66 19.84 5.82 4.65-5.27 5.51c-.5555062.5623706-.8524949 1.330195-.82 2.12.0354694.7950666.3972412 1.5403165 1 2.06 1.1100552.9846845 2.7666036 1.031051 3.93.11l6.68-5.39 6.71 5.35c1.1647506.9169665 2.8183642.8706822 3.93-.11.6027588-.5196835.9645306-1.2649334 1-2.06.0134723-.7804813-.293773-1.5323285-.85-2.08l-5.27-5.47 5.82-4.65c.9314052-.7357759 1.5234438-1.8187733 1.64-3 .1241109-1.1682825-.2374786-2.3362166-1-3.23-.8416062-.9807563-2.0569566-1.5622454-3.348695-1.6021961-1.2917383-.0399507-2.5406999.4653226-3.441305 1.3921961l-5.19 5.31-5.17-5.36c-.8988341-.9263951-2.1461931-1.4315137-3.4363534-1.3915529-1.2901603.0399607-2.5038677.621307-3.3436466 1.6015529-.7625214.8937834-1.1241109 2.0617175-1 3.23.1064015 1.1801119.6874553 2.2664298 1.61 3.01zm.91-4.95c.4747779-.5463259 1.1565033-.8690577 1.88-.89h.09c.6996973-.0008683 1.3702121.2803153 1.86.78l5.88 6.11c.1884832.1955519.4484002.3060259.72.3060259s.5315168-.110474.72-.3060259l5.88-6.1c.5037213-.535059 1.2159051-.8235848 1.95-.79.7234967.0209423 1.4052221.3436741 1.88.89.4190054.4821538.624665 1.113565.57 1.75-.0647055.6462452-.3896287 1.2383275-.9 1.64l-6.67 5.33c-.2230505.1752428-.3611829.4369674-.38.72-.0151747.2780826.0863025.5498964.28.75l6 6.26c.1741519.1768542.2675353.4177786.2580687.6658041-.0094667.2480256-.1209428.4811309-.3080687.6441959-.3821091.3495764-.9678909.3495764-1.35 0l-7.33-5.85c-.3634448-.2871976-.8765552-.2871976-1.24 0l-7.33 5.85c-.3821091.3495764-.9678909.3495764-1.35 0-.1871259-.163065-.298602-.3961703-.3080687-.6441959-.0094666-.2480255.0839168-.4889499.2580687-.6658041l6-6.26c.1936975-.2001036.2951747-.4719174.28-.75-.0188171-.2830326-.1569495-.5447572-.38-.72l-6.67-5.33c-.5103713-.4016725-.8352945-.9937548-.9-1.64-.0437954-.6421072.1765504-1.2742468.61-1.75z" fill="#000000" data-original="#000000" style="" class=""/></g></g></g></g></svg>
