<svg width="414" height="324" viewBox="0 0 414 324" fill="none" xmlns="http://www.w3.org/2000/svg">
<g clip-path="url(#clip0)">
<path opacity="0.1" d="M268.776 317.724C228.892 317.724 196.559 311.598 196.559 304.041C196.559 296.485 228.892 290.358 268.776 290.358C308.66 290.358 340.992 296.485 340.992 304.041C340.992 311.598 308.66 317.724 268.776 317.724Z" fill="#064564"/>
<path opacity="0.1" d="M173.463 45.6921C200.004 44.7733 225.282 36.2009 249.42 26.8246C273.557 17.4483 297.466 7.06297 323.371 2.09589C340.033 -1.09928 359.09 -1.55456 372.512 7.37059C385.434 15.984 389.608 30.8114 391.851 44.5806C393.541 54.9413 394.533 65.8475 389.908 75.5479C386.693 82.2827 380.992 87.943 377.047 94.3948C363.322 116.839 373.024 144.517 387.894 166.432C394.866 176.71 402.965 186.53 408.349 197.461C413.734 208.391 416.223 220.959 411.511 232.14C406.844 243.214 395.719 251.516 383.666 257.361C359.188 269.235 330.355 272.631 302.219 274.559C239.955 278.816 177.363 276.975 114.936 275.125C91.8312 274.444 68.6284 273.751 45.9014 270.178C33.2788 268.193 20.2504 265.043 11.0849 257.439C-0.545166 247.788 -3.4281 231.447 4.36768 219.347C17.4413 199.044 53.5782 194.003 62.7273 172.219C67.7549 160.226 62.5919 146.871 55.2801 135.752C39.5983 111.892 13.3158 90.9618 11.9338 63.6942C10.9824 44.9661 23.6172 26.2094 43.1538 17.3457C63.6295 8.05556 92.028 9.22452 107.127 24.6015C122.69 40.4174 150.027 46.5083 173.463 45.6921Z" fill="#064564"/>
<path d="M194.554 148.372L207.115 139.903L200.779 130.469L233.955 127.823L245.877 137.044L260.8 128.676L273.246 130.173L273.394 126.892C273.548 123.471 273.891 120.062 274.423 116.679C274.37 115.654 274.333 114.477 274.337 113.197C274.337 107.803 275.067 100.654 278.274 95.8879L277.535 89.2515L283.523 82.1762C282.561 80.2605 281.465 78.4156 280.242 76.6554C280.037 76.3601 279.832 76.0729 279.61 75.794C271.839 75.2321 265.708 68.8418 265.708 61.0282C265.708 60.6672 265.708 60.3063 265.749 59.9494C265.749 59.8059 265.778 59.6582 265.795 59.5147C265.036 59.9248 264.269 60.335 263.502 60.7452C263.359 60.9502 263.195 61.1553 263.014 61.3973L262.977 61.4424L262.748 61.7254L262.674 61.8116C262.592 61.91 262.506 62.0044 262.42 62.1028L262.362 62.1684C262.145 62.4104 261.915 62.6565 261.669 62.8985C261.64 62.9224 261.612 62.9484 261.587 62.9764L261.28 63.2636L261.193 63.3415C260.931 63.5753 260.652 63.8009 260.373 64.0142L260.283 64.0798L259.93 64.3218L259.816 64.3956C259.68 64.4776 259.541 64.5638 259.405 64.6417L259.356 64.6704C259.196 64.7565 259.032 64.8386 258.868 64.9165L258.786 64.9493C258.647 65.0095 258.51 65.0669 258.376 65.1216L258.249 65.1667C258.105 65.2159 257.966 65.2611 257.818 65.3021L257.728 65.3267C257.548 65.3718 257.367 65.4087 257.183 65.4374H257.162C256.988 65.4655 256.813 65.4833 256.637 65.4907H256.518C256.361 65.499 256.204 65.499 256.047 65.4907H255.944C255.748 65.4794 255.552 65.4561 255.358 65.421C254.44 65.3004 253.559 64.9843 252.774 64.494C252.574 64.3604 252.397 64.1956 252.249 64.006C251.429 62.9313 252.331 61.7542 252.331 61.7542C252.651 60.9913 254.726 60.4539 254.726 60.4539C254.726 60.4539 261.288 57.7141 261.288 55.532C261.288 53.3499 262.928 42.0294 279.861 39.4413C279.861 39.4413 290.876 38.8219 293.972 44.7201L294.037 45.4092C294.948 45.9793 295.702 47.1236 296.6 47.46C296.988 47.5433 297.363 47.6814 297.712 47.8701V47.7922C297.815 47.8829 297.9 47.993 297.962 48.1162C298.155 48.5002 298.27 48.9182 298.302 49.3467C298.395 49.8702 298.576 50.3738 298.839 50.8356C298.913 50.9668 298.995 51.0929 299.086 51.213L299.155 51.3237C298.679 51.3608 298.201 51.2835 297.761 51.0981C297.83 51.6597 297.968 52.2106 298.171 52.7388C297.91 52.7472 297.653 52.6806 297.429 52.5468C297.205 52.413 297.024 52.2177 296.908 51.9841V51.9513L296.855 51.8774C296.752 51.6876 296.666 51.4884 296.6 51.2827L296.646 51.3319C296.563 51.0653 296.49 50.7946 296.399 50.5321C296.358 50.3842 296.29 50.2452 296.199 50.1219C296.089 50.0116 295.955 49.9285 295.808 49.8793C295.66 49.8302 295.503 49.8163 295.35 49.8389L295.518 53.395H295.444C295.543 53.6537 295.663 53.9035 295.805 54.1415C296.387 55.0849 297.445 55.7289 297.835 56.7625C298.003 57.261 298.067 57.7886 298.023 58.3129C298.023 58.6205 297.986 58.9322 297.962 59.2399V59.2152C297.904 60.0356 297.888 60.8149 298.331 61.4752C298.634 61.9264 299.122 62.2669 299.291 62.7796C299.337 62.9224 299.358 63.0724 299.352 63.2225C299.319 63.672 299.225 64.115 299.073 64.5392C299.071 64.5311 299.071 64.5227 299.073 64.5146C298.971 64.8266 298.947 65.159 299.004 65.4825C299.188 66.3029 300.185 66.9878 300.135 67.7712C300.138 67.8743 300.123 67.977 300.09 68.0748C299.899 68.4574 299.566 68.7513 299.163 68.8951C298.531 69.2547 297.805 69.4148 297.08 69.3545C296.809 69.3054 296.546 69.2155 296.301 69.0879C296.588 69.7482 296.883 70.4004 297.183 71.0197C297.228 71.1182 297.277 71.2166 297.326 71.3151C297.326 71.3151 299.861 69.6211 301.3 73.0747C301.72 73.7923 302.021 74.5737 302.19 75.388C302.262 75.7137 302.364 76.0322 302.493 76.3396C303.132 77.4216 304.089 78.2808 305.233 78.8005C308.169 80.1459 320.029 94.9404 320.238 98.7714C320.34 100.267 320.593 101.748 320.992 103.193C321.926 106.595 322.166 110.151 321.698 113.648C321.551 114.778 321.308 115.894 320.972 116.983C319.713 120.809 318.872 127.95 318.872 127.95L317.511 140.345C317.561 142.056 317.487 143.768 317.289 145.468C318.68 147.056 324.261 153.672 322.128 155.472C320.488 156.891 317.617 156.658 316.006 156.366C317.363 159.726 319.5 165.566 319.783 169.578C320.193 175.513 319.081 183.376 317.322 186.394C315.563 189.413 309.699 197.157 309.699 197.157C309.699 197.157 309.973 207.78 307.878 211.64C305.782 215.5 304.937 223.506 304.937 223.506C304.937 223.506 302.981 230.266 303.961 232.751C304.942 235.237 302.145 237.304 305.081 238.957C308.017 240.61 311.774 277.865 311.774 277.865C311.774 277.865 313.287 302.282 311.774 303.525C311.693 303.584 311.606 303.634 311.515 303.676V311.88C311.515 311.88 312.565 313.602 308.296 313.951C305.372 314.185 297.084 314.714 292.167 315.022L288.358 315.259C288.358 315.259 279.336 317.056 275.35 315.259C271.364 313.463 264.298 313.504 265.348 308.758C265.487 308.113 265.673 307.478 265.905 306.859C267.058 303.914 269.014 303.578 272.618 302.758C272.828 302.713 273.029 302.672 273.213 302.639C277.01 301.978 278.257 303.746 280.386 301.445C282.235 299.456 288.124 297.229 290.129 296.523C290.08 296.376 290.018 296.232 289.969 296.08C290.537 295.984 291.065 295.726 291.491 295.338L286.057 295.682L282.821 295.883C282.821 295.883 275.153 297.413 271.749 295.883C268.345 294.353 262.358 294.394 263.252 290.363C263.37 289.813 263.527 289.273 263.724 288.747C264.704 286.245 266.369 285.97 269.432 285.277C269.608 285.24 269.772 285.203 269.936 285.174C273.164 284.612 274.222 286.113 276.03 284.161C277.581 282.496 282.473 280.629 284.232 279.994C284.232 279.083 285.462 277.787 286.237 276.487C287.148 274.969 285.467 269.658 285.467 269.658L284.507 247.62C284.141 247.457 283.755 247.346 283.359 247.291C283.359 247.291 279.02 243.149 280 238.735C280.2 237.401 280.304 236.053 280.312 234.703C278.885 233.379 276.92 231.422 276.363 230.216C275.452 228.252 276.363 218.732 276.363 218.732V182.33L269.104 183.064L262.518 183.741L260.513 183.946L253.927 184.61L238.79 186.14L225.151 183.556L219.25 182.441L207.115 180.144V150.448L194.554 148.372ZM294.456 49.9702L295.3 49.8799C295.022 49.8922 294.726 49.9456 294.456 49.9702Z" fill="url(#paint0_linear)"/>
<path d="M223.994 167.654C228.095 173.524 242.837 170.414 242.837 170.414L254.262 159.722L255.8 158.274L253.221 152.794C253.221 152.794 252.401 153.019 250.994 153.421C243.608 155.567 220.533 162.72 223.994 167.654Z" fill="#F19E62"/>
<path opacity="0.1" d="M251.002 153.421C251.507 155.177 252.889 157.806 254.262 159.722L255.8 158.274L253.221 152.794C253.221 152.794 252.392 153.019 251.002 153.421Z" fill="black"/>
<path d="M290.186 91.6263C290.186 91.6263 300.718 96.2981 300.201 107.77C299.829 115.161 299.024 122.524 297.79 129.821C297.79 129.821 299.942 147.084 290.978 151.535C282.013 155.985 273.717 159.644 273.717 159.644C273.717 159.644 259.692 161.153 257.949 161.776C256.207 162.4 250.761 152.868 251.765 151.383C252.77 149.898 265.643 146.785 267.283 144.308C268.923 141.83 272.717 140.3 272.717 140.3C272.717 140.3 276.633 137.93 276.9 135.789C277.166 133.647 276.133 132.052 275.87 131.113C275.608 130.173 274.944 121.105 274.944 121.105C274.944 121.105 270.523 88.8249 290.186 91.6263Z" fill="#BEE2F2"/>
<path opacity="0.1" d="M283.235 129.349C283.235 129.349 297.682 131.769 296.284 136.826C296.284 136.826 291.039 131.367 283.235 129.349Z" fill="black"/>
<path opacity="0.1" d="M283.125 131.396C283.125 131.396 291.068 137.88 289.514 138.213C287.96 138.545 283.125 131.396 283.125 131.396Z" fill="black"/>
<path opacity="0.1" d="M279.306 133.656C279.306 133.656 281.435 138.016 280.127 137.72C278.818 137.425 279.306 133.656 279.306 133.656Z" fill="black"/>
<path opacity="0.1" d="M250.469 153.885L251.347 153.635C251.097 152.814 251.027 152.15 251.232 151.842C252.237 150.357 265.101 147.248 266.738 144.767C268.374 142.285 272.171 140.76 272.171 140.76C272.171 140.76 276.088 138.389 276.354 136.248C276.621 134.107 275.587 132.511 275.325 131.572C275.062 130.633 274.398 121.56 274.398 121.56C274.398 121.56 269.99 89.2842 289.653 92.0856C289.653 92.0856 300.184 96.7615 299.672 108.234C299.3 115.625 298.493 122.988 297.256 130.284C297.256 130.284 299.409 147.548 290.445 151.998C281.48 156.448 273.184 160.107 273.184 160.107C273.184 160.107 259.163 161.612 257.416 162.24C256.756 162.478 255.563 161.251 254.394 159.566L253.73 160.185L242.305 170.874C242.305 170.874 227.562 173.987 223.461 168.118C219.996 163.179 243.067 156.026 250.469 153.885Z" fill="black"/>
<path d="M296.248 48.5674C296.649 48.6459 297.034 48.7944 297.384 49.0063C297.794 49.3467 297.794 49.9291 297.896 50.4377C298.017 51.1452 298.297 51.8158 298.716 52.3983C298.25 52.4325 297.782 52.3552 297.351 52.1727C297.421 52.7341 297.559 53.285 297.761 53.8134C297.505 53.8199 297.253 53.7525 297.035 53.6194C296.817 53.4862 296.642 53.293 296.531 53.0628C296.314 52.6006 296.142 52.1184 296.018 51.6231C295.979 51.4749 295.913 51.3357 295.821 51.2129C295.444 50.7658 294.743 50.9668 294.16 51.0242C293.676 51.0651 293.189 50.9756 292.75 50.765C292.312 50.5545 291.938 50.2304 291.667 49.8266C291.048 48.8873 291.011 46.4838 292.487 46.2295C294.029 45.9752 294.989 48.0998 296.248 48.5674Z" fill="black"/>
<g opacity="0.1">
<path opacity="0.1" d="M297.425 49.5108C297.388 49.3098 297.363 49.1006 297.318 48.8996C297.708 49.2401 297.728 49.8184 297.831 50.3311C297.882 50.6269 297.964 50.9168 298.073 51.1965C297.75 50.6818 297.53 50.1093 297.425 49.5108Z" fill="black"/>
<path opacity="0.1" d="M297.293 52.8987C297.089 52.371 296.951 51.8198 296.883 51.2581C297.294 51.4309 297.738 51.5081 298.183 51.4836C298.313 51.7721 298.471 52.0469 298.655 52.304C298.19 52.34 297.723 52.264 297.293 52.0825C297.361 52.6443 297.499 53.1954 297.703 53.7231C297.448 53.7291 297.196 53.6616 296.978 53.5285C296.76 53.3954 296.585 53.2024 296.473 52.9725C296.371 52.7861 296.288 52.5895 296.227 52.386C296.347 52.5542 296.508 52.6893 296.695 52.779C296.881 52.8686 297.087 52.9098 297.293 52.8987Z" fill="black"/>
<path opacity="0.1" d="M293.693 50.1096C294.275 50.0522 294.98 49.8512 295.358 50.2983C295.447 50.422 295.514 50.561 295.554 50.7084C295.591 50.8151 295.624 50.9258 295.653 51.0366C295.263 50.729 294.632 50.893 294.103 50.9463C293.618 50.9859 293.132 50.8958 292.694 50.6854C292.256 50.4749 291.881 50.1516 291.609 49.7487C291.485 49.5495 291.392 49.3323 291.335 49.1047C291.615 49.4524 291.977 49.7258 292.388 49.901C292.8 50.0762 293.247 50.1478 293.693 50.1096Z" fill="black"/>
</g>
<path d="M283.904 82.4427L277.65 89.9651L278.466 97.5573L286.024 85.7241L283.904 82.4427Z" fill="#BEE2F2"/>
<path opacity="0.1" d="M277.654 89.9651L278.421 97.1061L278.47 97.5573L285.29 86.8766L286.024 85.7241L285.811 85.3918L283.908 82.4427L283.485 82.9514L277.654 89.9651Z" fill="black"/>
<path d="M274.406 72.2584C276.522 72.8655 278.544 74.9491 280.303 77.4798C281.492 79.2259 282.556 81.0544 283.485 82.9514C284.064 84.108 284.572 85.2196 284.995 86.1875L285.29 86.8766C286.003 88.5624 286.401 89.6903 286.401 89.6903C286.401 89.6903 302.6 77.5085 300.037 76.6882C299.175 76.4134 298.044 74.5676 296.924 72.242L296.785 71.9467C296.075 70.4537 295.378 68.7884 294.759 67.2216C293.492 64.0018 292.552 61.2045 292.552 61.2045C292.552 61.2045 267.947 70.4127 274.406 72.2584Z" fill="#F19E62"/>
<path d="M264.716 60.5195C264.716 60.5195 260.976 67.2872 255.952 66.3643C250.929 65.4415 252.996 62.7303 252.996 62.7303L264.716 60.5195Z" fill="#FF6501"/>
<path d="M271.962 294.784C275.276 296.298 282.768 294.784 282.768 294.784L285.926 294.587C290.027 294.325 296.892 293.882 299.319 293.685C302.863 293.394 301.993 291.942 301.993 291.942V283.168L284.802 278.812C284.802 278.812 278.007 281.138 276.145 283.168C274.378 285.104 273.344 283.615 270.191 284.173C270.035 284.202 269.871 284.235 269.699 284.276C266.705 284.961 265.081 285.231 264.122 287.713C263.929 288.234 263.774 288.769 263.658 289.313C262.772 293.308 268.653 293.279 271.962 294.784Z" fill="#064564"/>
<path opacity="0.1" d="M264.122 287.713C264.738 288.098 265.385 288.43 266.057 288.706C268.313 289.735 270.457 290.99 272.737 291.962C275.018 292.934 277.474 293.628 279.943 293.443C281.235 293.349 282.555 293.033 283.789 293.402C284.553 293.697 285.272 294.096 285.926 294.587C290.027 294.325 296.892 293.882 299.319 293.685C302.863 293.394 301.993 291.942 301.993 291.942V290.916C301.866 290.916 301.723 290.879 301.558 290.867C300.71 290.854 299.865 290.98 299.057 291.24C297.277 291.724 295.506 292.2 293.726 292.676C293.579 292.123 293.322 291.607 292.97 291.157C292.617 290.707 292.177 290.333 291.675 290.059C290.66 289.52 289.519 289.258 288.37 289.3C285.61 289.337 282.998 290.646 280.242 290.777C279.472 290.848 278.696 290.718 277.991 290.4C277.613 290.211 277.281 289.936 276.912 289.727C276.322 289.441 275.697 289.23 275.055 289.099C273.247 288.649 271.473 288.077 269.744 287.385C269.252 287.192 268.678 286.843 268.743 286.318C268.829 285.621 269.924 285.539 270.211 284.899C270.262 284.784 270.285 284.658 270.28 284.532C270.274 284.407 270.239 284.284 270.179 284.173C270.023 284.202 269.859 284.235 269.686 284.276C266.705 284.961 265.081 285.232 264.122 287.713Z" fill="black"/>
<path d="M275.464 313.98C279.36 315.76 288.177 313.98 288.177 313.98L291.888 313.762C296.695 313.455 304.79 312.942 307.648 312.7C311.819 312.355 310.793 310.649 310.793 310.649V300.309L290.564 295.182C290.564 295.182 282.567 297.918 280.377 300.309C278.298 302.585 277.097 300.834 273.369 301.49C273.184 301.523 272.992 301.564 272.791 301.609C269.268 302.43 267.357 302.737 266.229 305.658C266.001 306.271 265.819 306.9 265.684 307.54C264.667 312.241 271.569 312.204 275.464 313.98Z" fill="#064564"/>
<path opacity="0.1" d="M266.237 305.658C266.962 306.11 267.723 306.501 268.513 306.826C271.167 308.036 273.693 309.513 276.375 310.657C279.057 311.802 281.948 312.614 284.855 312.401C286.373 312.29 287.927 311.908 289.366 312.351C290.268 312.703 291.117 313.178 291.888 313.762C296.695 313.455 304.79 312.942 307.648 312.7C311.819 312.355 310.793 310.649 310.793 310.649V309.443C310.624 309.416 310.453 309.396 310.281 309.386C309.282 309.368 308.287 309.516 307.336 309.825L301.066 311.515C300.891 310.863 300.586 310.253 300.168 309.724C299.749 309.194 299.228 308.755 298.634 308.434C297.439 307.797 296.096 307.488 294.743 307.54C291.495 307.585 288.423 309.123 285.179 309.279C284.276 309.362 283.367 309.211 282.538 308.84C282.091 308.615 281.718 308.291 281.267 308.049C280.574 307.709 279.839 307.461 279.081 307.31C276.966 306.777 274.89 306.103 272.864 305.292C272.286 305.063 271.609 304.653 271.687 304.037C271.79 303.217 273.078 303.119 273.418 302.364C273.475 302.228 273.501 302.08 273.494 301.933C273.487 301.785 273.447 301.641 273.377 301.511C273.192 301.544 273 301.585 272.799 301.63C269.276 302.417 267.365 302.737 266.237 305.658Z" fill="black"/>
<path d="M284.281 243.026L285.376 268.796C285.376 268.796 287.016 274.059 286.127 275.564C285.237 277.069 283.736 278.57 284.281 279.46C284.827 280.35 291.388 289.973 293.508 286.281C295.628 282.59 297.72 266.594 297.72 266.594L295.764 246.836L284.281 243.026Z" fill="#FF6501"/>
<path d="M279.532 178.819L276.489 182.888V218.276C276.489 218.276 275.6 227.71 276.489 229.658C277.379 231.607 281.89 235.503 281.89 235.503L285.684 216.021L284.863 195.41L279.532 178.819Z" fill="#FF6501"/>
<path opacity="0.1" d="M284.281 243.026L285.376 268.796C285.376 268.796 287.016 274.059 286.127 275.564C285.237 277.069 283.736 278.57 284.281 279.46C284.827 280.35 291.388 289.973 293.508 286.281C295.628 282.59 297.72 266.594 297.72 266.594L295.764 246.836L284.281 243.026Z" fill="black"/>
<path opacity="0.1" d="M279.532 178.819L276.489 182.888V218.276C276.489 218.276 275.6 227.71 276.489 229.658C277.379 231.607 281.89 235.503 281.89 235.503L285.684 216.021L284.863 195.41L279.532 178.819Z" fill="black"/>
<path d="M276.49 163.725V182.867L279.906 197.768C279.906 197.768 281.001 233.727 280.045 238.1C279.09 242.472 283.326 246.578 283.326 246.578C283.326 246.578 285.786 246.853 285.786 248.764C285.786 250.675 289.887 256.147 289.887 256.147L289.752 266.811C289.752 266.811 287.972 286.774 290.707 290.601C293.443 294.427 289.752 294.977 289.752 294.977C293.168 306.187 309.571 303.59 311.052 302.36C312.532 301.129 311.052 276.93 311.052 276.93C311.052 276.93 307.386 240.015 304.515 238.374C301.644 236.734 304.376 234.683 303.42 232.222C302.465 229.761 304.376 223.063 304.376 223.063C304.376 223.063 305.196 215.131 307.246 211.304C309.297 207.477 309.026 196.948 309.026 196.948C309.026 196.948 314.767 189.29 316.473 186.284C318.179 183.277 319.278 175.484 318.868 169.602C318.589 165.628 316.502 159.841 315.177 156.51C314.542 154.914 314.082 153.881 314.082 153.881L313.693 153.983L291.294 159.849L276.49 163.725Z" fill="#FF6501"/>
<path opacity="0.1" d="M274.406 72.2584C276.522 72.8654 278.544 74.949 280.303 77.4798H280.763C283.341 77.4816 285.875 76.8025 288.107 75.5112C290.339 74.2199 292.191 72.3621 293.476 70.1255C294.012 69.1988 294.444 68.2152 294.763 67.1929C293.496 63.9731 292.557 61.1758 292.557 61.1758C292.557 61.1758 267.948 70.4126 274.406 72.2584Z" fill="black"/>
<path d="M266.102 62.0043C266.098 64.2486 266.609 66.4637 267.597 68.4791C268.584 70.4945 270.02 72.2564 271.795 73.629C273.571 75.0016 275.637 75.9484 277.836 76.3963C280.035 76.8443 282.307 76.7815 284.477 76.2128C286.648 75.6441 288.659 74.5846 290.356 73.116C292.053 71.6474 293.39 69.8089 294.264 67.7421C295.138 65.6752 295.527 63.4352 295.399 61.1946C295.272 58.9539 294.632 56.7725 293.528 54.8183C293.084 54.0242 292.565 53.2744 291.978 52.5788C291.011 51.4265 289.874 50.4279 288.607 49.6174C286.467 48.257 284.01 47.4751 281.477 47.3483C278.944 47.2215 276.422 47.754 274.156 48.8938C271.891 50.0336 269.959 51.7418 268.551 53.8514C267.143 55.961 266.306 58.3998 266.122 60.9297C266.114 61.2907 266.102 61.6475 266.102 62.0043Z" fill="#F19E62"/>
<path opacity="0.1" d="M278.421 97.1061L278.47 97.5573L285.29 86.893C286.003 88.5788 286.401 89.7067 286.401 89.7067C286.401 89.7067 302.6 77.5085 300.037 76.6882C299.175 76.4134 298.044 74.5676 296.924 72.242L296.785 71.9467C295.595 75.4905 288.685 82.574 285.811 85.4123C285.478 85.7405 285.204 86.0112 284.99 86.208L284.552 86.6182L284.322 86.8479C283.276 87.9266 278.864 92.6845 278.421 97.1061Z" fill="black"/>
<path d="M273.324 133.291L274.07 157.314L274.201 161.592C274.201 161.592 283.043 160.772 291.294 159.869C297.937 159.143 304.199 158.36 305.163 157.9C306.393 157.322 309.03 156.875 311.109 156.592C312.717 156.375 313.98 156.26 313.98 156.26C313.98 156.26 314.451 156.399 315.177 156.531C316.76 156.818 319.54 157.051 321.16 155.645C323.231 153.844 317.789 147.302 316.432 145.731L316.133 145.39L316.645 140.653L317.978 128.369C317.978 128.369 318.798 121.293 320.028 117.499C320.357 116.421 320.595 115.316 320.738 114.198C321.195 110.732 320.961 107.211 320.049 103.837C319.659 102.403 319.412 100.934 319.311 99.4522C319.106 95.6582 307.521 80.9949 304.65 79.6618C303.359 79.0596 302.32 78.0232 301.714 76.7333C301.514 76.3277 301.364 75.8994 301.267 75.4577C300.037 70.1256 296.924 72.242 296.924 72.242C296.174 76.4134 284.556 87.4549 284.556 87.4549L284.326 87.6846C283.174 88.8659 278.04 94.4113 278.405 99.1446C278.477 100.906 278.214 102.666 277.629 104.329C275.266 111.771 273.908 119.496 273.59 127.298L273.324 133.291Z" fill="#BEE2F2"/>
<path opacity="0.1" d="M289.784 104.764C289.784 104.764 292.655 111.737 294.808 112.864C296.961 113.992 288.759 115.243 289.784 104.764Z" fill="black"/>
<path opacity="0.1" d="M287.631 117.786C287.631 117.786 294.193 118.607 294.193 119.837C294.193 121.068 287.631 117.786 287.631 117.786Z" fill="black"/>
<path opacity="0.1" d="M280.763 125.785C280.763 125.785 290.297 146.088 292.963 146.703C295.628 147.318 280.763 125.785 280.763 125.785Z" fill="black"/>
<path opacity="0.1" d="M284.736 88.4844L292.622 91.9134L302.141 77.5331C301.941 77.1275 301.791 76.6992 301.694 76.2575C300.463 70.9254 297.351 73.0418 297.351 73.0418C296.6 77.2132 284.983 88.2547 284.983 88.2547L284.736 88.4844Z" fill="black"/>
<path d="M284.326 87.6641L292.212 91.0931L301.73 76.7128C301.53 76.3072 301.38 75.8789 301.283 75.4372C300.053 70.1051 296.94 72.2215 296.94 72.2215C296.19 76.3928 284.572 87.4344 284.572 87.4344L284.326 87.6641Z" fill="#BEE2F2"/>
<path opacity="0.1" d="M274.201 161.592C274.201 161.592 283.042 160.772 291.293 159.869L276.489 163.745V168.257C277.137 168.844 277.699 169.147 278.064 168.991C279.77 168.273 293.692 166.018 293.692 166.018C293.692 166.018 301.779 161.916 310.506 156.994C310.718 156.877 310.923 156.748 311.121 156.608C312.139 155.917 313.016 155.039 313.705 154.02C315.316 151.686 316.104 148.688 316.444 145.747C316.635 144.062 316.707 142.365 316.657 140.669C316.615 138.747 316.44 136.83 316.132 134.931C316.976 127.579 317.387 120.183 317.363 112.782C317.26 101.298 306.495 97.1963 306.495 97.1963C286.709 95.4531 292.844 127.446 292.844 127.446C292.844 127.446 293.988 136.469 294.299 137.392C294.611 138.315 295.731 139.853 295.579 142.007C295.427 144.16 291.646 146.736 291.646 146.736C291.646 146.736 287.955 148.467 286.434 151.03C285.327 152.921 278.134 155.485 274.07 157.314L274.201 161.592Z" fill="black"/>
<path opacity="0.1" d="M267.574 52.8987C267.566 53.5743 267.706 54.2434 267.984 54.8593C268.194 55.3619 268.438 55.8497 268.714 56.3195C269.145 57.1836 269.758 57.9446 270.51 58.5508C271.457 59.2275 272.655 59.4162 273.791 59.691C274.926 59.9658 276.108 60.4047 276.755 61.3727C277.107 61.995 277.341 62.676 277.449 63.3825C277.557 64.0884 277.839 64.7563 278.269 65.3267C278.492 65.6051 278.802 65.8014 279.15 65.8845C279.497 65.9677 279.862 65.933 280.188 65.7861C280.531 65.5548 280.791 65.2199 280.93 64.8304C281.398 63.7763 281.517 62.6073 281.705 61.4711C281.894 60.335 282.16 59.166 282.858 58.2514C283.555 57.3367 284.789 56.7338 285.884 57.0906C286.25 57.2317 286.585 57.4454 286.867 57.7189C287.148 57.9923 287.372 58.3199 287.524 58.682C287.827 59.4069 288.036 60.1679 288.144 60.9461C288.652 63.7298 289.252 66.497 289.944 69.2478C289.965 69.3606 290.011 69.4671 290.079 69.5596C290.188 69.6682 290.335 69.7301 290.489 69.7318C291.408 69.8549 292.29 69.2109 293.216 69.2806C293.312 69.287 293.407 69.3021 293.499 69.3258C294.998 66.7211 295.659 63.7186 295.395 60.7252C295.13 57.7318 293.951 54.8922 292.019 52.5911L291.945 52.5706C291.329 52.3517 290.768 51.9987 290.305 51.537C289.713 50.9445 289.165 50.3098 288.664 49.6379L288.336 49.2278C287.394 48.092 286.32 47.0718 285.138 46.1885C284.815 45.924 284.445 45.7235 284.047 45.5978C283.706 45.5315 283.357 45.5204 283.013 45.565C281.597 45.735 280.169 45.7885 278.744 45.725C277.751 45.5689 276.751 45.4675 275.747 45.4214C273.151 45.4953 270.936 47.3287 269.296 49.3385C268.414 50.368 267.627 51.5534 267.574 52.8987Z" fill="black"/>
<path d="M295.443 55.2079C296.013 56.1431 297.043 56.7788 297.428 57.8042C297.994 59.2931 297.038 61.1471 297.916 62.476C298.207 62.9231 298.687 63.2553 298.851 63.768C299.13 64.6335 298.367 65.5563 298.564 66.4464C298.761 67.3364 299.934 68.087 299.622 68.9566C299.438 69.3358 299.115 69.6296 298.72 69.7769C298.098 70.1334 297.383 70.2922 296.669 70.2322C295.55 70.0476 294.717 68.9484 293.581 68.8663C292.659 68.8007 291.777 69.4406 290.858 69.3216C290.704 69.3163 290.558 69.2533 290.448 69.1452C290.379 69.0538 290.332 68.9469 290.313 68.8335C289.624 66.0854 289.023 63.3182 288.509 60.5318C288.404 59.7534 288.197 58.9921 287.893 58.2677C287.74 57.9064 287.516 57.5794 287.234 57.3061C286.952 57.0328 286.619 56.8186 286.253 56.6763C285.158 56.3236 283.928 56.9224 283.227 57.837C282.525 58.7517 282.259 59.9207 282.07 61.0568C281.882 62.193 281.763 63.3619 281.299 64.4161C281.158 64.807 280.897 65.1431 280.553 65.3758C279.938 65.7327 279.109 65.4497 278.638 64.9165C278.206 64.3459 277.924 63.676 277.818 62.9682C277.711 62.263 277.476 61.5833 277.125 60.9625C276.477 59.9945 275.291 59.5556 274.16 59.2808C273.028 59.006 271.834 58.8132 270.879 58.1365C270.128 57.531 269.515 56.7715 269.083 55.9093C268.476 54.8511 267.91 53.7026 267.959 52.4844C268.012 51.1555 268.8 49.9701 269.64 48.9365C271.281 46.9267 273.499 45.0933 276.095 45.0236C277.1 45.0656 278.101 45.1669 279.093 45.3271C280.518 45.3912 281.946 45.3363 283.362 45.163C283.706 45.1218 284.055 45.1343 284.395 45.1999C284.794 45.3216 285.163 45.5225 285.482 45.7906C286.666 46.6724 287.741 47.6913 288.685 48.8258C289.294 49.6331 289.954 50.4004 290.662 51.1227C291.125 51.5851 291.685 51.9394 292.302 52.1604C292.712 52.2752 293.122 52.1932 293.512 52.3204C294.721 52.7018 294.881 54.2809 295.443 55.2079Z" fill="black"/>
<path opacity="0.1" d="M255.952 66.3603C259.233 66.9632 261.952 64.3094 263.457 62.3735C263.919 61.7855 264.34 61.166 264.716 60.5195L253.455 62.6442L253 62.7303C253 62.7303 250.929 65.4415 255.952 66.3603Z" fill="black"/>
<g opacity="0.1">
<path opacity="0.1" d="M298.564 65.2733C298.518 64.7369 298.6 64.1972 298.802 63.6983C298.802 63.7393 298.839 63.7803 298.851 63.8214C299.028 64.371 298.79 64.9411 298.638 65.5112C298.605 65.4346 298.581 65.3549 298.564 65.2733Z" fill="black"/>
<path opacity="0.1" d="M297.589 58.559C297.631 59.1261 297.62 59.696 297.556 60.2611C297.514 59.694 297.525 59.1241 297.589 58.559Z" fill="black"/>
<path opacity="0.1" d="M269.108 54.7239C269.539 55.588 270.152 56.3491 270.904 56.9552C271.851 57.632 273.045 57.8207 274.185 58.0955C275.325 58.3703 276.502 58.8091 277.15 59.7771C277.5 60.3997 277.735 61.0806 277.843 61.7869C277.95 62.4946 278.231 63.1643 278.663 63.7352C279.135 64.2684 279.963 64.5555 280.578 64.1946C280.922 63.9618 281.184 63.6258 281.324 63.2348C281.788 62.1807 281.911 61.0158 282.095 59.8756C282.28 58.7353 282.555 57.5705 283.252 56.6558C283.949 55.7411 285.183 55.1382 286.278 55.495C286.644 55.6368 286.978 55.8507 287.26 56.1241C287.542 56.3975 287.766 56.7248 287.919 57.0865C288.222 57.8109 288.429 58.5721 288.534 59.3506C289.045 62.1369 289.646 64.9042 290.338 67.6523C290.357 67.7656 290.404 67.8726 290.473 67.964C290.583 68.0721 290.73 68.135 290.884 68.1404C291.802 68.2593 292.684 67.6194 293.607 67.6851C294.742 67.7671 295.575 68.8663 296.694 69.0468C297.409 69.1109 298.125 68.9518 298.745 68.5915C299.03 68.4689 299.286 68.2871 299.495 68.0583C299.591 68.1957 299.655 68.3532 299.681 68.5187C299.707 68.6842 299.696 68.8536 299.647 69.014C299.466 69.3959 299.142 69.6908 298.745 69.8343C298.125 70.1946 297.409 70.3537 296.694 70.2896C295.575 70.1091 294.742 69.0099 293.607 68.9279C292.684 68.8622 291.802 69.5021 290.884 69.3831C290.73 69.3778 290.583 69.3148 290.473 69.2068C290.404 69.1154 290.357 69.0084 290.338 68.8951C289.649 66.1606 289.048 63.3934 288.534 60.5934C288.429 59.8149 288.222 59.0537 287.919 58.3293C287.766 57.9675 287.542 57.6403 287.26 57.3669C286.978 57.0935 286.644 56.8795 286.278 56.7378C285.183 56.381 283.953 56.9839 283.252 57.8986C282.551 58.8132 282.284 59.9822 282.095 61.1184C281.907 62.2545 281.788 63.4235 281.324 64.4776C281.184 64.8685 280.922 65.2046 280.578 65.4374C279.963 65.7942 279.135 65.5112 278.663 64.978C278.231 64.4071 277.95 63.7374 277.843 63.0297C277.735 62.3234 277.5 61.6425 277.15 61.0199C276.502 60.0519 275.317 59.6172 274.185 59.3383C273.053 59.0593 271.86 58.8748 270.904 58.198C270.152 57.5919 269.539 56.8308 269.108 55.9667C268.501 54.9126 267.935 53.7641 267.984 52.546C267.992 52.3893 268.009 52.2332 268.033 52.0784C268.231 53.0172 268.595 53.9131 269.108 54.7239Z" fill="black"/>
</g>
<path opacity="0.1" d="M267.967 54.847C266.916 56.7171 266.292 58.7975 266.143 60.9379C269.796 58.8871 273.233 56.6353 274.968 55.8519C277.99 54.486 289.292 54.6911 293.541 54.8183C293.096 54.0242 292.577 53.2743 291.99 52.5788C291.02 51.4255 289.879 50.4269 288.607 49.6174C286.923 48.5485 285.039 47.8342 283.07 47.5184C281.1 47.2025 279.087 47.2917 277.153 47.7804C275.22 48.2691 273.406 49.1471 271.823 50.3607C270.24 51.5743 268.921 53.098 267.947 54.8388L267.967 54.847Z" fill="black"/>
<path opacity="0.1" d="M254.927 64.6212C256.9 65.2282 260.119 64.0551 263.457 62.3735C263.919 61.7855 264.34 61.166 264.716 60.5195L253.455 62.6442C252.708 63.1528 252.52 63.8788 254.927 64.6212Z" fill="black"/>
<path d="M279.889 40.6266C279.889 40.6266 290.654 40.0114 293.68 45.8562L294.168 51.0365L294.988 50.9463L295.152 54.4696C295.152 54.4696 278.7 53.7518 274.956 55.4417C271.211 57.1316 259.577 65.6466 254.915 64.211C250.252 62.7754 255.325 61.4424 255.325 61.4424C255.325 61.4424 261.742 58.723 261.742 56.5902C261.742 54.4573 263.334 43.1901 279.889 40.6266Z" fill="#FF6501"/>
<path opacity="0.1" d="M300.652 232.665C300.652 232.665 293.783 239.33 290.81 238.817C290.81 238.817 299.217 238.1 300.652 232.665Z" fill="black"/>
<path opacity="0.1" d="M302.087 235.753C302.087 235.753 301.472 239.182 299.831 238.846C298.191 238.51 302.087 235.753 302.087 235.753Z" fill="black"/>
<path opacity="0.1" d="M291.322 293.061C291.322 293.061 301.074 300.649 299.429 300.854C297.785 301.06 291.322 293.061 291.322 293.061Z" fill="black"/>
<path d="M278.277 142.462L246.701 137.323V167.223L276.703 165.653L278.277 142.462Z" fill="#064564"/>
<path opacity="0.05" d="M278.277 142.462L246.701 137.323V167.223L276.703 165.653L278.277 142.462Z" fill="black"/>
<path d="M246.701 137.323L208.833 140.157L210.929 166.178L246.701 167.223V137.323Z" fill="#064564"/>
<path opacity="0.1" d="M246.701 137.323L208.833 140.157L210.929 166.178L246.701 167.223V137.323Z" fill="black"/>
<path d="M235.058 128.196L246.701 137.323L208.833 140.157L202.645 130.817L235.058 128.196Z" fill="#064564"/>
<path d="M289.71 132.495L261.283 129.033L246.7 137.323L278.277 142.462L289.71 132.495Z" fill="#064564"/>
<path d="M239.778 145.087V185.968L254.57 184.45L261.004 183.794L262.965 183.589L269.395 182.929L278.277 182.018V142.462L246.705 144.611L239.778 145.087Z" fill="#064564"/>
<path d="M208.833 140.157V180.025L220.689 182.301L226.455 183.408L239.778 185.968V145.087L208.833 140.157Z" fill="#064564"/>
<path opacity="0.05" d="M208.833 140.157V180.025L220.689 182.301L226.455 183.408L239.778 185.968V145.087L208.833 140.157Z" fill="black"/>
<path d="M289.71 151.067L278.277 142.462L239.778 145.087L245.446 154.636L289.71 151.067Z" fill="#064564"/>
<path opacity="0.1" d="M289.71 151.067L278.277 142.462L239.778 145.087L245.446 154.636L289.71 151.067Z" fill="white"/>
<path d="M208.833 140.157L239.778 145.087L229.707 154.11L196.559 148.549L208.833 140.157Z" fill="#064564"/>
<path opacity="0.1" d="M208.833 140.157L239.778 145.087L229.707 154.11L196.559 148.549L208.833 140.157Z" fill="white"/>
<path opacity="0.1" d="M220.689 182.301L226.455 183.408V174.889L221.054 173.528L220.689 182.301Z" fill="white"/>
<path opacity="0.1" d="M254.57 178.815V184.45L261.004 183.794V178.815H254.57Z" fill="white"/>
<path opacity="0.1" d="M262.964 180.591V183.589L269.395 182.929V180.591H262.964Z" fill="white"/>
<path opacity="0.1" d="M243.65 175.825C248.058 181.464 262.616 177.568 262.616 177.568L273.434 166.28L274.902 164.75L272.032 159.418C272.032 159.418 271.212 159.689 269.842 160.165C262.592 162.699 239.938 171.079 243.65 175.825Z" fill="black"/>
<path d="M244.06 175.004C248.468 180.644 263.026 176.747 263.026 176.747L273.844 165.46L275.312 163.93L272.442 158.598C272.442 158.598 271.622 158.868 270.252 159.344C263.002 161.879 240.348 170.259 244.06 175.004Z" fill="#F19E62"/>
<path opacity="0.1" d="M270.268 159.344C270.867 161.067 272.388 163.618 273.86 165.46L275.329 163.93L272.458 158.598C272.458 158.598 271.634 158.868 270.268 159.344Z" fill="black"/>
<path d="M306.085 95.5556C306.085 95.5556 316.85 99.6573 316.953 111.142C316.977 118.543 316.566 125.938 315.722 133.291C315.722 133.291 318.798 150.415 310.084 155.337C301.369 160.259 293.27 164.36 293.27 164.36C293.27 164.36 279.348 166.616 277.637 167.334C275.927 168.052 269.985 158.823 270.908 157.285C271.831 155.747 284.506 151.953 286.011 149.39C287.516 146.826 291.224 145.099 291.224 145.099C291.224 145.099 295.005 142.519 295.156 140.366C295.308 138.213 294.193 136.674 293.877 135.752C293.561 134.829 292.417 125.805 292.417 125.805C292.417 125.805 286.299 93.7919 306.085 95.5556Z" fill="#BEE2F2"/>
<path opacity="0.1" d="M301.164 133.578C301.164 133.578 315.722 135.218 314.594 140.345C314.594 140.345 309.062 135.173 301.164 133.578Z" fill="black"/>
<path opacity="0.1" d="M301.164 135.629C301.164 135.629 309.427 141.678 307.91 142.089C306.393 142.499 301.164 135.629 301.164 135.629Z" fill="black"/>
<path opacity="0.1" d="M297.474 138.09C297.474 138.09 299.832 142.331 298.499 142.109C297.166 141.888 297.474 138.09 297.474 138.09Z" fill="black"/>
<path d="M145.897 46.0982C145.897 46.0982 161.48 45.1589 159.66 56.0939C159.66 56.0939 160.025 58.0258 158.274 58.9035C158.274 58.9035 158.245 58.0832 156.674 58.3662C156.115 58.4604 155.546 58.4879 154.981 58.4482C154.214 58.3971 153.485 58.096 152.905 57.591C152.905 57.591 148.522 55.7822 146.816 48.6125C146.816 48.6125 145.553 47.0457 145.585 46.6437L148.218 47.7717C148.218 47.7717 147.32 49.6707 148.03 51.2499C148.03 51.2499 148.112 47.8414 148.62 47.9193C148.723 47.9193 149.986 48.5797 149.986 48.5797C149.986 48.5797 148.44 51.8856 149.608 54.2933C149.608 54.2933 149.165 50.2163 150.47 48.8176L152.323 49.9004C152.323 49.9004 150.515 53.3171 151.741 56.1062C151.741 56.1062 151.425 51.8282 152.713 50.1629L154.394 51.4714C154.394 51.4714 152.692 54.8429 153.73 57.1562C153.73 57.1562 153.865 52.1768 154.759 51.7995C154.759 51.7995 156.227 53.0956 156.449 53.6288C156.449 53.6288 155.288 56.0898 156.01 57.3654C156.01 57.3654 156.453 54.0472 156.83 54.0308C156.83 54.0308 158.294 56.2292 158.446 57.7222C158.375 56.3304 157.941 54.9813 157.187 53.8093C158.031 53.969 158.809 54.3725 159.426 54.97C159.426 54.97 159.2 53.4155 156.826 53.2802C156.826 53.2802 155.596 51.6108 155.292 51.5083C155.292 51.5083 157.654 51.3114 159.086 51.9471C159.086 51.9471 157.827 50.4829 154.857 51.1268L153.217 49.7733C153.217 49.7733 156.326 49.3631 157.646 49.8184C157.646 49.8184 156.129 48.5223 152.77 49.4657L150.966 48.3869C150.966 48.3869 153.615 47.8127 155.194 48.0219C155.194 48.0219 153.529 47.1236 150.437 48.0957L149.145 47.5174C149.145 47.5174 151.089 47.1359 151.655 47.0744C152.221 47.0129 152.253 46.857 152.253 46.857C151.024 46.6523 149.761 46.7943 148.608 47.2672C148.608 47.2672 145.84 46.2705 145.897 46.0982Z" fill="#064564"/>
<path opacity="0.1" d="M98.5485 100.789C98.5485 100.789 114.132 99.8501 112.311 110.785C112.311 110.785 112.676 112.717 110.925 113.595C110.925 113.595 110.896 112.774 109.321 113.057C108.762 113.151 108.194 113.179 107.628 113.139C106.87 113.084 106.151 112.785 105.577 112.286C105.577 112.286 101.189 110.473 99.4835 103.304C99.4835 103.304 98.2246 101.741 98.2738 101.339L100.907 102.463C100.907 102.463 100.008 104.362 100.714 105.941C100.714 105.941 100.8 102.533 101.304 102.61C101.407 102.61 102.674 103.271 102.674 103.271C102.674 103.271 101.124 106.581 102.293 108.984C102.293 108.984 101.85 104.907 103.158 103.509L104.991 104.579C104.991 104.579 103.183 107.996 104.409 110.785C104.409 110.785 104.093 106.507 105.381 104.842L107.058 106.154C107.058 106.154 105.36 109.522 106.393 111.835C106.393 111.835 106.529 106.856 107.423 106.478C107.423 106.478 108.891 107.774 109.116 108.308C109.116 108.308 107.952 110.769 108.674 112.044C108.674 112.044 109.116 108.726 109.494 108.71C109.494 108.71 110.958 110.908 111.109 112.401C111.036 111.009 110.601 109.66 109.846 108.488C110.691 108.648 111.471 109.052 112.09 109.649C112.09 109.649 111.86 108.094 109.486 107.959C109.486 107.959 108.276 106.29 107.952 106.187C107.952 106.187 110.314 105.99 111.745 106.626C111.745 106.626 110.486 105.162 107.521 105.826L105.881 104.473C105.881 104.473 108.993 104.062 110.31 104.518C110.31 104.518 108.792 103.222 105.434 104.165L103.629 103.086C103.629 103.086 106.283 102.516 107.862 102.721C107.862 102.721 106.193 101.823 103.1 102.795L101.809 102.217C101.809 102.217 103.753 101.835 104.323 101.774C104.893 101.712 104.921 101.556 104.921 101.556C103.69 101.352 102.426 101.494 101.272 101.967C101.272 101.967 98.4993 100.962 98.5485 100.789Z" fill="#064564"/>
<path opacity="0.1" d="M193.217 91.0808C193.217 91.0808 189.629 75.8678 200.717 75.8145C200.717 75.8145 202.559 75.1255 203.719 76.7005C203.719 76.7005 202.928 76.8686 203.465 78.3698C203.651 78.9007 203.775 79.4512 203.834 80.0105C203.913 80.7729 203.742 81.5404 203.346 82.1967C203.346 82.1967 202.309 86.8315 195.554 89.7354C195.554 89.7354 194.226 91.2448 193.824 91.2613L194.48 88.4762C194.48 88.4762 196.506 89.0382 197.941 88.0661C197.941 88.0661 194.566 88.5624 194.562 88.0661C194.562 87.9635 194.972 86.6059 194.972 86.6059C194.972 86.6059 198.495 87.5657 200.668 86.003C200.668 86.003 196.727 87.135 195.124 86.0891L195.862 84.0711C195.862 84.0711 199.553 85.2729 202.079 83.5871C202.079 83.5871 197.916 84.6289 196.055 83.6445L197.059 81.766C197.059 81.766 200.668 82.8652 202.772 81.4502C202.772 81.4502 197.851 82.1638 197.318 81.3517C197.318 81.3517 198.343 79.6824 198.831 79.3706C198.831 79.3706 201.439 80.1007 202.587 79.1697C202.587 79.1697 199.245 79.2968 199.167 78.9441C199.167 78.9441 201.082 77.127 202.542 76.7169C201.182 77.0267 199.925 77.6854 198.897 78.6282C198.912 77.7686 199.177 76.932 199.659 76.2206C199.659 76.2206 198.167 76.7128 198.429 79.0917C198.429 79.0917 196.994 80.5683 196.949 80.9046C196.949 80.9046 196.354 78.6118 196.735 77.0901C196.735 77.0901 195.505 78.5831 196.666 81.3927L195.616 83.259C195.616 83.259 194.664 80.2648 194.906 78.8866C194.906 78.8866 193.885 80.6011 195.39 83.7512L194.632 85.7159C194.632 85.7159 193.619 83.1975 193.553 81.6142C193.553 81.6142 192.95 83.4107 194.439 86.2942L194.086 87.6641C194.086 87.6641 193.381 85.8143 193.225 85.2647C193.069 84.7151 192.909 84.711 192.909 84.711C192.916 85.9588 193.269 87.1802 193.93 88.2384C193.93 88.2384 193.393 91.1013 193.217 91.0808Z" fill="#064564"/>
<path opacity="0.1" d="M227.345 96.2652C227.345 96.2652 239.861 86.9012 244.335 97.0445C244.335 97.0445 245.7 98.4596 244.72 100.154C244.72 100.154 244.253 99.4932 243.08 100.588C242.664 100.975 242.205 101.311 241.71 101.589C241.04 101.962 240.267 102.106 239.508 101.999C239.508 101.999 234.849 102.898 229.485 97.8485C229.485 97.8485 227.57 97.2332 227.39 96.8723L230.215 96.376C230.215 96.376 230.511 98.4555 231.966 99.3866C231.966 99.3866 230.166 96.4908 230.634 96.2816C230.728 96.2365 232.139 96.0765 232.139 96.0765C232.139 96.0765 232.664 99.6942 234.96 101.06C234.96 101.06 232.348 97.8977 232.672 96.0109L234.817 95.8961C234.817 95.8961 235.182 99.7475 237.74 101.405C237.74 101.405 235.128 98.0043 235.28 95.9043L237.404 96.0765C237.404 96.0765 237.835 99.8213 239.971 101.183C239.971 101.183 237.351 96.9502 237.888 96.1463C237.888 96.1463 239.828 96.4211 240.308 96.741C240.308 96.741 240.681 99.4235 241.993 100.104C241.993 100.104 240.537 97.0897 240.833 96.8805C240.833 96.8805 243.264 97.91 244.22 99.0831C243.393 97.9599 242.288 97.072 241.013 96.5072C241.806 96.1775 242.678 96.0862 243.523 96.2447C243.523 96.2447 242.481 95.0717 240.422 96.2652C240.422 96.2652 238.495 95.5392 238.167 95.6295C238.167 95.6295 240.033 94.1652 241.579 93.9109C241.579 93.9109 239.717 93.3777 237.605 95.5515L235.477 95.3342C235.477 95.3342 237.843 93.2833 239.2 92.9388C239.2 92.9388 237.22 92.6886 234.935 95.3218L232.836 95.4162C232.836 95.4162 234.735 93.4802 236.166 92.7829C236.166 92.7829 234.283 92.947 232.233 95.4613L230.835 95.6869C230.835 95.6869 232.249 94.3005 232.692 93.9396C233.135 93.5787 233.074 93.4269 233.074 93.4269C231.933 93.9322 230.955 94.7444 230.248 95.773C230.248 95.773 227.398 96.4334 227.345 96.2652Z" fill="#064564"/>
<path opacity="0.1" d="M185.675 9.2656C185.675 9.2656 198.191 -0.102519 202.665 10.0449C202.665 10.0449 204.031 11.46 203.051 13.1539C203.051 13.1539 202.583 12.4936 201.41 13.5887C200.993 13.9733 200.532 14.3078 200.037 14.5854C199.367 14.9587 198.594 15.1028 197.834 14.9956C197.834 14.9956 193.176 15.8938 187.812 10.8406C187.812 10.8406 185.897 10.2295 185.72 9.86444L188.546 9.37635C188.546 9.37635 188.837 11.4559 190.297 12.3869C190.297 12.3869 188.493 9.49119 188.96 9.28201C189.054 9.23689 190.465 9.07693 190.465 9.07693C190.465 9.07693 191.006 12.7028 193.303 14.0604C193.303 14.0604 190.695 10.8981 191.015 9.0113L193.159 8.89646C193.159 8.89646 193.528 12.7479 196.083 14.4008C196.083 14.4008 193.471 11.0006 193.623 8.90056L195.743 9.07283C195.743 9.07283 196.178 12.8217 198.314 14.1835C198.314 14.1835 195.69 9.95058 196.227 9.14666C196.227 9.14666 198.167 9.42146 198.646 9.74139C198.646 9.74139 199.02 12.4239 200.332 13.1047C200.332 13.1047 198.876 10.09 199.171 9.87675C199.171 9.87675 201.603 10.9104 202.559 12.0834C201.733 10.959 200.628 10.0709 199.352 9.5076C200.146 9.17539 201.02 9.0841 201.866 9.24509C201.866 9.24509 200.82 8.07203 198.761 9.2656C198.761 9.2656 196.834 8.53551 196.506 8.62985C196.506 8.62985 198.372 7.16557 199.918 6.90717C199.918 6.90717 198.06 6.37806 195.948 8.54782L193.82 8.33043C193.82 8.33043 196.182 6.27962 197.543 5.93098C197.543 5.93098 195.563 5.68488 193.274 8.31813L191.175 8.40836C191.175 8.40836 193.073 6.4724 194.509 5.77922C194.509 5.77922 192.622 5.94328 190.572 8.45758L189.177 8.68317C189.177 8.68317 190.596 7.31323 191.039 6.96049C191.482 6.60775 191.421 6.45189 191.421 6.45189C190.279 6.95663 189.301 7.76895 188.595 8.79802C188.595 8.79802 185.745 9.42147 185.675 9.2656Z" fill="#064564"/>
<path opacity="0.1" d="M137.851 21.1316C137.851 21.1316 142.854 6.32062 152.29 12.1408C152.29 12.1408 154.217 12.551 154.369 14.4829C154.369 14.4829 153.61 14.204 153.274 15.7626C153.149 16.317 152.961 16.8551 152.712 17.3663C152.373 18.0542 151.821 18.614 151.138 18.9618C151.138 18.9618 147.808 22.3457 140.525 21.2259C140.525 21.2259 138.601 21.8084 138.249 21.6074L140.299 19.5935C140.299 19.5935 141.718 21.1398 143.449 21.0783C143.449 21.0783 140.32 19.7165 140.578 19.2777C140.631 19.1915 141.702 18.2605 141.702 18.2605C141.702 18.2605 144.187 20.9388 146.852 20.7625C146.852 20.7625 142.911 19.6386 142.108 17.8913L143.805 16.5829C143.805 16.5829 146.29 19.5443 149.337 19.454C149.337 19.454 145.236 18.1374 144.199 16.3163L146.044 15.254C146.044 15.254 148.505 18.0964 151.056 18.0062C151.056 18.0062 146.495 16.0087 146.483 15.0407C146.483 15.0407 148.234 14.167 148.812 14.1588C148.812 14.1588 150.641 16.1563 152.093 15.9759C152.093 15.9759 149.19 14.3147 149.313 13.9743C149.313 13.9743 151.896 13.4452 153.352 13.8717C152.035 13.4132 150.622 13.3071 149.251 13.5641C149.719 12.8418 150.388 12.2716 151.175 11.9234C151.175 11.9234 149.649 11.5502 148.628 13.6995C148.628 13.6995 146.627 14.1957 146.413 14.4542C146.413 14.4542 147.119 12.1942 148.247 11.1031C148.247 11.1031 146.413 11.7225 145.913 14.7208L144.035 15.7462C144.035 15.7462 144.81 12.7069 145.745 11.6445C145.745 11.6445 143.969 12.5633 143.584 16.0292L141.902 17.2966C141.902 17.2966 142.37 14.6223 143.157 13.236C143.157 13.236 141.697 14.4418 141.435 17.678L140.414 18.6542C140.414 18.6542 140.791 16.7101 140.947 16.1604C141.103 15.6108 140.976 15.5739 140.976 15.5739C140.324 16.6379 139.979 17.8616 139.979 19.1095C139.979 19.1095 137.994 21.2382 137.851 21.1316Z" fill="#064564"/>
<path opacity="0.1" d="M170.502 21.8617C170.502 21.8617 186.045 20.1308 184.761 31.16C184.761 31.16 185.224 33.0714 183.531 34.0312C183.531 34.0312 183.461 33.2109 181.89 33.58C181.335 33.6995 180.769 33.7559 180.201 33.7482C179.434 33.7343 178.693 33.4708 178.089 32.9976C178.089 32.9976 173.615 31.4102 171.528 24.3349C171.528 24.3349 170.191 22.8378 170.219 22.4318L172.905 23.4244C172.905 23.4244 172.085 25.3644 172.905 26.9067C172.905 26.9067 172.819 23.4982 173.316 23.5515C173.418 23.5515 174.714 24.1422 174.714 24.1422C174.714 24.1422 173.336 27.526 174.624 29.8844C174.624 29.8844 173.976 25.832 175.21 24.3719L177.117 25.3562C177.117 25.3562 175.477 28.8631 176.851 31.5866C176.851 31.5866 176.317 27.3291 177.519 25.6023L179.262 26.8328C179.262 26.8328 177.736 30.2823 178.889 32.5423C178.889 32.5423 178.77 27.5629 179.643 27.1405C179.643 27.1405 181.177 28.3709 181.427 28.8795C181.427 28.8795 180.39 31.3815 181.173 32.6325C181.173 32.6325 181.448 29.2979 181.808 29.2651C181.808 29.2651 183.383 31.3856 183.613 32.8827C183.471 31.4948 182.967 30.1683 182.153 29.0354C183.004 29.153 183.802 29.5165 184.449 30.0813C184.449 30.0813 184.146 28.5432 181.767 28.5268C181.767 28.5268 180.476 26.9231 180.127 26.8369C180.127 26.8369 182.477 26.5211 183.941 27.083C183.941 27.083 182.608 25.6803 179.68 26.4965L177.954 25.2291C177.954 25.2291 181.074 24.5974 182.395 25.0076C182.395 25.0076 180.812 23.7771 177.507 24.9051L175.649 23.9166C175.649 23.9166 178.269 23.2111 179.856 23.3382C179.856 23.3382 178.146 22.5179 175.108 23.6541L173.787 23.1414C173.787 23.1414 175.71 22.6615 176.276 22.5712C176.842 22.481 176.863 22.3251 176.863 22.3251C175.623 22.1829 174.368 22.3873 173.238 22.9158C173.238 22.9158 170.474 22.0339 170.502 21.8617Z" fill="#064564"/>
<path opacity="0.1" d="M34.5168 142.519C34.5168 142.519 50.051 140.788 48.7674 151.805C48.7674 151.805 49.2308 153.717 47.5371 154.677C47.5371 154.677 47.4674 153.856 45.8968 154.221C45.3423 154.345 44.7751 154.401 44.2072 154.389C43.44 154.378 42.6979 154.114 42.0952 153.639C42.0952 153.639 37.6212 152.051 35.5543 144.98C35.5543 144.98 34.2174 143.479 34.2461 143.077L36.9322 144.066C36.9322 144.066 36.112 146.01 36.9322 147.552C36.9322 147.552 36.8461 144.139 37.3423 144.197C37.4448 144.197 38.7407 144.783 38.7407 144.783C38.7407 144.783 37.3628 148.167 38.6505 150.526C38.6505 150.526 38.0025 146.477 39.2369 145.013L41.1438 146.002C41.1438 146.002 39.5035 149.508 40.8732 152.232C40.8732 152.232 40.3441 147.974 41.5457 146.244L43.2886 147.474C43.2886 147.474 41.7631 150.924 42.9154 153.179C42.9154 153.179 42.7965 148.2 43.67 147.782C43.67 147.782 45.1996 149.012 45.4539 149.521C45.4539 149.521 44.4122 152.023 45.1996 153.274C45.1996 153.274 45.4744 149.939 45.8352 149.906C45.8352 149.906 47.41 152.027 47.6396 153.524C47.4974 152.136 46.994 150.809 46.1797 149.677C47.0313 149.792 47.83 150.156 48.4762 150.723C48.4762 150.723 48.1728 149.18 45.7942 149.164C45.7942 149.164 44.4984 147.56 44.1539 147.478C44.1539 147.478 46.5037 147.158 47.9677 147.72C47.9677 147.72 46.6349 146.322 43.7028 147.138L41.9804 145.87C41.9804 145.87 45.0643 145.288 46.4053 145.69C46.4053 145.69 44.8223 144.459 41.517 145.583L39.6593 144.599C39.6593 144.599 42.2798 143.893 43.8668 144.02C43.8668 144.02 42.1567 143.2 39.118 144.336L37.7975 143.82C37.7975 143.82 39.7208 143.34 40.2867 143.253C40.8527 143.167 40.8732 143.007 40.8732 143.007C39.6338 142.863 38.3785 143.066 37.248 143.594C37.248 143.594 34.4758 142.696 34.5168 142.519Z" fill="#064564"/>
<path opacity="0.1" d="M10.7689 157.031C10.7689 157.031 26.3029 155.304 25.0193 166.317C25.0193 166.317 25.4786 168.228 23.7891 169.188C23.7891 169.188 23.7194 168.368 22.1487 168.737C21.5953 168.857 21.0296 168.912 20.4633 168.901C19.6999 168.885 18.9621 168.624 18.3596 168.154C18.3596 168.154 13.8896 166.567 11.8228 159.492C11.8228 159.492 10.4818 157.995 10.5146 157.589L13.2007 158.577C13.2007 158.577 12.3805 160.521 13.2007 162.064C13.2007 162.064 13.1146 158.655 13.6108 158.708C13.7133 158.708 15.0091 159.295 15.0091 159.295C15.0091 159.295 13.6313 162.679 14.9189 165.037C14.9189 165.037 14.271 160.989 15.5054 159.529L17.4122 160.513C17.4122 160.513 15.7719 164.02 17.1416 166.744C17.1416 166.744 16.6126 162.486 17.8142 160.759L19.557 161.99C19.557 161.99 18.0315 165.439 19.1797 167.699C19.1797 167.699 19.0649 162.716 19.9384 162.297C19.9384 162.297 21.468 163.528 21.7222 164.036C21.7222 164.036 20.6806 166.538 21.468 167.789C21.468 167.789 21.7428 164.455 22.1036 164.422C22.1036 164.422 23.6784 166.543 23.9039 168.04C23.762 166.652 23.2601 165.326 22.4481 164.192C23.2991 164.31 24.0972 164.673 24.7446 165.238C24.7446 165.238 24.437 163.696 22.0585 163.684C22.0585 163.684 20.7668 162.08 20.4182 161.994C20.4182 161.994 22.768 161.678 24.232 162.24C24.232 162.24 22.8992 160.837 19.9671 161.653L18.2447 160.386C18.2447 160.386 21.3286 159.804 22.6696 160.206C22.6696 160.206 21.0866 158.975 17.7813 160.103L15.9237 159.115C15.9237 159.115 18.5441 158.409 20.1311 158.536C20.1311 158.536 18.4211 157.716 15.3823 158.852L14.0619 158.339C14.0619 158.339 15.9851 157.859 16.547 157.769C17.1088 157.679 17.1375 157.523 17.1375 157.523C15.8978 157.381 14.6429 157.585 13.5124 158.114C13.5124 158.114 10.7278 157.207 10.7689 157.031Z" fill="#064564"/>
<path opacity="0.1" d="M63.4937 34.7982C63.4937 34.7982 76.0095 25.4342 80.4836 35.5775C80.4836 35.5775 81.8492 36.9926 80.8691 38.6866C80.8691 38.6866 80.4016 38.0262 79.2287 39.1214C78.8133 39.5079 78.3535 39.8439 77.859 40.1222C77.1892 40.4949 76.416 40.6389 75.6568 40.5323C75.6568 40.5323 70.9983 41.4306 65.6302 36.3815C65.6302 36.3815 63.7192 35.7662 63.5388 35.4053L66.3561 34.8967C66.3561 34.8967 66.6513 36.9762 68.1071 37.9073C68.1071 37.9073 66.3069 35.0115 66.7744 34.8023C66.8687 34.7572 68.2753 34.5973 68.2753 34.5973C68.2753 34.5973 68.8043 38.2149 71.1008 39.5807C71.1008 39.5807 68.4885 36.4184 68.8125 34.5316L70.9573 34.4168C70.9573 34.4168 71.3222 38.2682 73.8812 39.9253C73.8812 39.9253 71.2648 36.525 71.4207 34.425L73.5449 34.5973C73.5449 34.5973 73.955 38.342 76.1121 39.7038C76.1121 39.7038 73.4875 35.4709 74.0288 34.667C74.0288 34.667 75.9685 34.9418 76.4483 35.2617C76.4483 35.2617 76.8174 37.9442 78.1297 38.6251C78.1297 38.6251 76.678 35.6104 76.9732 35.4012C76.9732 35.4012 79.4051 36.4307 80.3606 37.6038C79.534 36.4806 78.4286 35.5927 77.1537 35.0279C77.9469 34.6982 78.8191 34.6069 79.6634 34.7654C79.6634 34.7654 78.6177 33.5924 76.559 34.7859C76.559 34.7859 74.6357 34.0599 74.3077 34.1502C74.3077 34.1502 76.1736 32.6859 77.7196 32.4316C77.7196 32.4316 75.8578 31.8984 73.7458 34.0723L71.6175 33.8549C71.6175 33.8549 73.9796 31.804 75.3411 31.4595C75.3411 31.4595 73.3604 31.2093 71.0762 33.8426L68.9724 33.9369C68.9724 33.9369 70.8752 32.0009 72.3064 31.3037C72.3064 31.3037 70.42 31.4677 68.3737 33.982L66.9753 34.2076C66.9753 34.2076 68.3901 32.8213 68.833 32.4603C69.2759 32.0994 69.2103 31.9804 69.2103 31.9804C68.071 32.4865 67.0944 33.2987 66.3889 34.3266C66.3889 34.3266 63.547 34.9664 63.4937 34.7982Z" fill="#064564"/>
<path opacity="0.1" d="M53.8243 102.401C53.8243 102.401 58.1384 87.377 67.8411 92.7706C67.8411 92.7706 69.7849 93.0701 70.0269 95.0142C70.0269 95.0142 69.2559 94.7722 68.9894 96.3432C68.8905 96.9075 68.7253 97.4582 68.4972 97.9838C68.1931 98.6906 67.6659 99.2784 66.9963 99.6573C66.9963 99.6573 63.8223 103.185 56.4981 102.397C56.4981 102.397 54.6035 103.062 54.2426 102.881L56.1823 100.773C56.1823 100.773 57.671 102.258 59.3933 102.118C59.3933 102.118 56.2111 100.888 56.4571 100.449C56.5063 100.359 57.5315 99.3784 57.5315 99.3784C57.5315 99.3784 60.1315 101.946 62.7888 101.647C62.7888 101.647 58.7987 100.703 57.9211 99.0051L59.5614 97.6188C59.5614 97.6188 62.1778 100.465 65.2166 100.244C65.2166 100.244 61.0829 99.1077 59.9428 97.3399L61.739 96.1955C61.739 96.1955 64.3431 98.9231 66.8692 98.718C66.8692 98.718 62.2229 96.9256 62.1655 95.9617C62.1655 95.9617 63.8797 95.0101 64.4579 94.9773C64.4579 94.9773 66.373 96.8887 67.8288 96.6426C67.8288 96.6426 64.8516 95.1127 64.9582 94.7681C64.9582 94.7681 67.5171 94.1242 68.9894 94.481C67.656 94.0856 66.2425 94.0446 64.8885 94.3621C65.3222 93.6199 65.9637 93.021 66.7339 92.6394C66.7339 92.6394 65.192 92.3318 64.2734 94.5261C64.2734 94.5261 62.3008 95.1086 62.0958 95.3793C62.0958 95.3793 62.6986 93.0865 63.7771 91.9503C63.7771 91.9503 61.9728 92.6476 61.6078 95.6664L59.7788 96.7779C59.7788 96.7779 60.4185 93.7017 61.3043 92.6189C61.3043 92.6189 59.5738 93.6156 59.34 97.0938L57.6997 98.435C57.6997 98.435 58.0482 95.7443 58.77 94.3334C58.77 94.3334 57.3634 95.6049 57.2486 98.8452L56.2726 99.8706C56.2726 99.8706 56.5596 97.91 56.6827 97.3522C56.8057 96.7943 56.6827 96.7164 56.6827 96.7164C56.0758 97.8074 55.7847 99.0459 55.842 100.293C55.842 100.293 53.972 102.5 53.8243 102.401Z" fill="#064564"/>
<path opacity="0.1" d="M149.957 136.256C149.957 136.256 158.335 123.057 166.114 130.957C166.114 130.957 167.894 131.777 167.583 133.725C167.583 133.725 166.906 133.274 166.209 134.71C165.958 135.219 165.647 135.695 165.282 136.129C164.793 136.721 164.123 137.136 163.375 137.31C163.375 137.31 159.336 139.804 152.528 136.982C152.528 136.982 150.523 137.089 150.228 136.814L152.688 135.337C152.688 135.337 153.701 137.183 155.395 137.532C155.395 137.532 152.68 135.481 153.045 135.104C153.115 135.03 154.378 134.382 154.378 134.382C154.378 134.382 156.153 137.573 158.786 138.036C158.786 138.036 155.222 136.006 154.853 134.127L156.818 133.262C156.818 133.262 158.528 136.728 161.505 137.364C161.505 137.364 157.855 135.112 157.261 133.094L159.311 132.503C159.311 132.503 161.042 135.854 163.523 136.367C163.523 136.367 159.569 133.34 159.787 132.396C159.787 132.396 161.698 131.966 162.247 132.097C162.247 132.097 163.547 134.472 165.015 134.644C165.015 134.644 162.588 132.339 162.789 132.036C162.789 132.036 165.425 132.138 166.738 132.897C165.567 132.138 164.218 131.7 162.825 131.625C163.449 131.035 164.232 130.64 165.077 130.489C165.077 130.489 163.687 129.763 162.206 131.609C162.206 131.609 160.156 131.609 159.873 131.814C159.873 131.814 161.103 129.763 162.452 128.996C162.452 128.996 160.525 129.16 159.327 131.954L157.256 132.503C157.256 132.503 158.737 129.735 159.889 128.943C159.889 128.943 157.95 129.411 156.748 132.688L154.812 133.508C154.812 133.508 155.903 131.027 156.998 129.866C156.998 129.866 155.292 130.686 154.271 133.766L153.041 134.476C153.041 134.476 153.861 132.675 154.152 132.179C154.443 131.683 154.328 131.568 154.328 131.568C153.441 132.445 152.815 133.551 152.52 134.763C152.52 134.763 150.068 136.396 149.957 136.256Z" fill="#064564"/>
<path d="M94.8943 68.8171C94.8943 68.8171 102.862 55.3679 110.888 63.0215C110.888 63.0215 112.692 63.8008 112.438 65.745C112.438 65.745 111.753 65.3102 111.097 66.7663C110.862 67.2839 110.566 67.7714 110.215 68.2183C109.744 68.8232 109.087 69.2557 108.345 69.4488C108.345 69.4488 104.388 72.0656 97.4943 69.4488C97.4943 69.4488 95.4931 69.617 95.1896 69.3503L97.5968 67.7999C97.5968 67.7999 98.663 69.6088 100.369 69.9082C100.369 69.9082 97.5927 67.9271 97.9413 67.5538C98.0151 67.4759 99.2536 66.7868 99.2536 66.7868C99.2536 66.7868 101.128 69.9246 103.765 70.306C103.765 70.306 100.139 68.3865 99.717 66.5243L101.653 65.6138C101.653 65.6138 103.469 69.0304 106.467 69.5759C106.467 69.5759 102.748 67.439 102.091 65.4415L104.117 64.7852C104.117 64.7852 105.954 68.0665 108.448 68.5177C108.448 68.5177 104.404 65.6138 104.593 64.6663C104.593 64.6663 106.488 64.1741 107.053 64.2889C107.053 64.2889 108.427 66.6228 109.899 66.7499C109.899 66.7499 107.402 64.5268 107.591 64.2151C107.591 64.2151 110.232 64.2356 111.564 64.9534C110.37 64.2331 109.009 63.8372 107.615 63.8049C108.221 63.1952 108.993 62.7761 109.834 62.5991C109.834 62.5991 108.419 61.9141 106.963 63.8049C106.963 63.8049 104.913 63.8747 104.638 64.0839C104.638 64.0839 105.799 62.033 107.127 61.1881C107.127 61.1881 105.208 61.4096 104.097 64.2397L102.046 64.855C102.046 64.855 103.436 62.0412 104.568 61.2127C104.568 61.2127 102.641 61.7418 101.542 65.0518L99.635 65.9419C99.635 65.9419 100.648 63.4276 101.685 62.2504C101.685 62.2504 100.008 63.1241 99.0772 66.2331L97.8757 66.9796C97.8757 66.9796 98.6466 65.1544 98.9173 64.6499C99.188 64.1454 99.0731 64.0346 99.0731 64.0346C98.2135 64.9383 97.6215 66.0629 97.3631 67.2831C97.3631 67.2831 95.0133 68.9525 94.8943 68.8171Z" fill="#064564"/>
<path d="M145.306 97.0979C145.306 97.0979 144.896 81.4707 155.751 83.6732C155.751 83.6732 157.695 83.3738 158.515 85.1539C158.515 85.1539 157.695 85.1539 157.925 86.7331C158 87.2961 158.008 87.8661 157.949 88.4311C157.875 89.1975 157.551 89.9182 157.027 90.4819C157.027 90.4819 155.07 94.8051 147.849 96.2734C147.849 96.2734 146.245 97.4834 145.843 97.4178L147.074 94.8256C147.074 94.8256 148.94 95.7853 150.543 95.1332C150.543 95.1332 147.139 94.9322 147.234 94.4318C147.234 94.3293 147.939 93.0824 147.939 93.0824C147.939 93.0824 151.195 94.7435 153.635 93.6525C153.635 93.6525 149.534 93.9601 148.193 92.6107L149.337 90.7937C149.337 90.7937 152.692 92.7132 155.521 91.5812C155.521 91.5812 151.236 91.7534 149.612 90.4122L150.978 88.7716C150.978 88.7716 154.287 90.5845 156.633 89.6247C156.633 89.6247 151.663 89.3253 151.302 88.4188C151.302 88.4188 152.647 86.9956 153.188 86.7782C153.188 86.7782 155.591 88.0087 156.903 87.3442C156.903 87.3442 153.623 86.7946 153.602 86.4295C153.602 86.4295 155.845 85.0391 157.359 84.9365C155.963 84.9615 154.599 85.3518 153.401 86.0686C153.588 85.2302 154.016 84.4647 154.632 83.866C154.632 83.866 153.069 84.0424 152.856 86.409C152.856 86.409 151.146 87.5657 151.035 87.8856C151.035 87.8856 150.916 85.519 151.601 84.108C151.601 84.108 150.092 85.318 150.658 88.304L149.251 89.92C149.251 89.92 148.931 86.7946 149.444 85.4944C149.444 85.4944 148.099 86.9669 148.927 90.3548L147.791 92.1226C147.791 92.1226 147.307 89.4524 147.566 87.8815C147.566 87.8815 146.614 89.5222 147.484 92.6435L146.86 93.915C146.86 93.915 146.545 91.9585 146.504 91.3884C146.463 90.8183 146.307 90.7814 146.307 90.7814C146.06 92.0049 146.158 93.273 146.59 94.4441C146.59 94.4441 145.487 97.1512 145.306 97.0979Z" fill="#064564"/>
<path opacity="0.1" d="M127.361 295.666C121.262 295.666 116.317 294.83 116.317 293.8C116.317 292.769 121.262 291.933 127.361 291.933C133.46 291.933 138.405 292.769 138.405 293.8C138.405 294.83 133.46 295.666 127.361 295.666Z" fill="#064564"/>
<path opacity="0.1" d="M167.619 324C161.52 324 156.576 323.164 156.576 322.134C156.576 321.103 161.52 320.267 167.619 320.267C173.719 320.267 178.663 321.103 178.663 322.134C178.663 323.164 173.719 324 167.619 324Z" fill="#064564"/>
<path opacity="0.1" d="M375.804 309.484C369.705 309.484 364.761 308.649 364.761 307.618C364.761 306.587 369.705 305.752 375.804 305.752C381.904 305.752 386.848 306.587 386.848 307.618C386.848 308.649 381.904 309.484 375.804 309.484Z" fill="#064564"/>
<path opacity="0.1" d="M83.8548 322.134C77.7556 322.134 72.8112 321.298 72.8112 320.268C72.8112 319.237 77.7556 318.401 83.8548 318.401C89.954 318.401 94.8984 319.237 94.8984 320.268C94.8984 321.298 89.954 322.134 83.8548 322.134Z" fill="#064564"/>
<path d="M72.3561 299.378C63.2491 299.378 55.8665 298.129 55.8665 296.589C55.8665 295.048 63.2491 293.8 72.3561 293.8C81.4631 293.8 88.8457 295.048 88.8457 296.589C88.8457 298.129 81.4631 299.378 72.3561 299.378Z" fill="#064564"/>
<path d="M65.5196 292.024C64.7668 291.412 64.2188 290.585 63.949 289.653C63.7439 288.71 64.1458 287.582 65.0439 287.237C66.0527 286.852 67.1313 287.549 67.9514 288.254C68.7716 288.96 69.7025 289.768 70.7729 289.62C70.2234 289.121 69.8123 288.488 69.5795 287.783C69.3467 287.078 69.3001 286.325 69.4442 285.596C69.4906 285.295 69.6182 285.011 69.8132 284.776C70.3751 284.177 71.388 284.436 72.0605 284.907C74.193 286.409 74.7876 289.304 74.7999 291.913C75.0132 290.974 74.8327 289.993 74.8368 289.042C74.8409 288.09 75.1075 286.991 75.9236 286.491C76.4245 286.211 76.9905 286.07 77.5639 286.08C78.5236 286.048 79.5939 286.142 80.2459 286.843C81.0661 287.713 80.8488 289.177 80.1434 290.125C79.438 291.072 78.3595 291.683 77.3671 292.348C76.5728 292.822 75.8947 293.468 75.3823 294.239C75.3239 294.346 75.2758 294.458 75.2387 294.575H69.2268C67.8809 293.897 66.6337 293.039 65.5196 292.024Z" fill="#064564"/>
<path d="M383.219 298.943C383.219 298.943 376.924 298.75 375.017 297.397C373.11 296.043 365.327 294.431 364.855 296.601C364.383 298.771 355.39 307.384 362.501 307.442C369.612 307.499 379.024 306.334 380.918 305.178C382.813 304.021 383.219 298.943 383.219 298.943Z" fill="#A8A8A8"/>
<path opacity="0.2" d="M362.382 306.687C369.493 306.744 378.905 305.58 380.799 304.423C382.243 303.545 382.817 300.391 383.01 298.935H383.219C383.219 298.935 382.809 304.017 380.926 305.169C379.044 306.322 369.62 307.491 362.509 307.434C360.459 307.434 359.749 306.687 359.786 305.604C360.073 306.265 360.857 306.675 362.382 306.687Z" fill="black"/>
</g>
<defs>
<linearGradient id="paint0_linear" x1="322.555" y1="177.773" x2="194.554" y2="177.773" gradientUnits="userSpaceOnUse">
<stop stop-color="#808080" stop-opacity="0.25"/>
<stop offset="0.54" stop-color="#808080" stop-opacity="0.12"/>
<stop offset="1" stop-color="#808080" stop-opacity="0.1"/>
</linearGradient>
<clipPath id="clip0">
<rect width="414" height="324" fill="white" transform="matrix(-1 0 0 1 414 0)"/>
</clipPath>
</defs>
</svg>
