<svg width="291" height="221" viewBox="0 0 291 221" fill="none" xmlns="http://www.w3.org/2000/svg">
<g clip-path="url(#clip0)">
<path opacity="0.1" d="M69.1281 184.429C66.678 184.181 64.1183 183.916 61.7979 184.564C59.4775 185.213 57.5549 187.107 58.2438 188.917C59.783 192.953 68.8168 190.143 72.982 192.901C74.4694 193.887 75.0488 195.438 76.2104 196.649C78.0898 198.615 81.3211 199.532 84.44 200.036C103.176 203.066 124.536 195.268 140.957 202.778C146.275 205.211 150.469 209.083 156.301 210.706C164.026 212.856 172.486 210.559 180.479 209.085C190.448 207.264 200.609 206.731 210.714 207.5C218.188 208.076 228.13 208.27 230.522 202.841C232.062 199.35 228.804 195.464 224.481 193.812C220.157 192.161 215.095 192.213 210.267 192.371C200.948 192.705 191.626 193.38 182.307 193.051C164.285 192.411 147.261 185.268 129.713 185.031C109.276 184.784 89.6602 186.499 69.1281 184.429Z" fill="#064564"/>
<path opacity="0.1" d="M50.1815 94.068C47.299 96.9825 47.1232 101.451 47.1232 101.451C47.1232 101.451 51.5882 101.197 54.4591 98.2798C57.3301 95.3624 57.5204 90.897 57.5204 90.897C57.5204 90.897 53.0525 91.1593 50.1815 94.068Z" fill="#064564"/>
<path opacity="0.1" d="M61.7836 22.0678C62.8011 26.0317 66.5339 28.4964 66.5339 28.4964C66.5339 28.4964 68.618 24.5384 67.6004 20.5745C66.5829 16.6107 62.8501 14.1488 62.8501 14.1488C62.8501 14.1488 60.7545 18.1069 61.7836 22.0678Z" fill="#064564"/>
<path opacity="0.1" d="M230.364 32.9705C227.481 35.885 227.302 40.3533 227.302 40.3533C227.302 40.3533 231.77 40.0996 234.641 37.1822C237.512 34.2648 237.7 29.7965 237.7 29.7965C237.7 29.7965 233.235 30.0704 230.364 32.9705Z" fill="#064564"/>
<path opacity="0.1" d="M142.508 73.8136C142.173 77.8899 144.892 81.4415 144.892 81.4415C144.892 81.4415 148.158 78.3829 148.492 74.3037C148.826 70.2246 146.108 66.6816 146.108 66.6816C146.108 66.6816 142.842 69.7345 142.508 73.8136Z" fill="#064564"/>
<path opacity="0.1" d="M237.071 130.982C236.737 135.058 239.455 138.61 239.455 138.61C239.455 138.61 242.721 135.551 243.055 131.475C243.39 127.399 240.672 123.847 240.672 123.847C240.672 123.847 237.406 126.906 237.071 130.982Z" fill="#064564"/>
<path opacity="0.1" d="M169.073 27.7844C150.418 27.2222 132.65 22.0188 115.684 16.3109C98.7172 10.603 81.9122 4.29257 63.7035 1.27141C51.9919 -0.671581 38.5969 -0.945445 29.1625 4.4886C20.0797 9.71509 17.1453 18.7411 15.5686 27.1156C14.381 33.4145 13.6834 40.0449 16.9349 45.943C19.1948 50.0395 23.2015 53.4815 25.9744 57.4021C35.6222 71.0521 28.8022 87.8818 18.3502 101.22C13.45 107.473 7.75702 113.435 3.97229 120.091C0.18757 126.747 -1.56211 134.37 1.74989 141.156C5.03017 147.884 12.8504 152.938 21.3221 156.492C38.5277 163.699 58.7946 165.777 78.5714 166.948C122.336 169.542 166.332 168.418 210.212 167.294C226.452 166.879 242.762 166.458 258.736 164.284C267.609 163.079 276.766 161.165 283.209 156.541C291.384 150.672 293.41 140.735 287.93 133.375C278.741 121.034 253.34 117.966 246.909 104.72C243.376 97.4296 247.005 89.3087 252.144 82.5457C263.167 68.0396 281.641 55.3121 282.612 38.7274C283.281 27.3404 274.4 15.9361 260.668 10.5482C246.275 4.89796 226.314 5.61001 215.701 14.9589C204.762 24.573 185.547 28.2773 169.073 27.7844Z" fill="#064564"/>
<path d="M230.914 82.0527C230.517 82.1543 230.149 82.3485 229.842 82.6196C229.534 82.8907 229.295 83.2309 229.144 83.6123L228.856 83.5661L227.781 83.3932C227.781 83.3932 222.085 82.9233 221.021 82.9953C219.958 83.0674 219.292 82.0181 219.292 82.0181L215.058 78.4348L214.729 78.1465C215.187 77.9735 215.473 77.8842 215.473 77.8842C215.473 77.8842 204.11 63.7585 201.66 63.4847C199.21 63.2108 195.16 59.9129 195.119 59.8812L195.076 59.6563C194.987 59.1807 194.92 58.6992 194.871 58.2149L195.474 58.5839C195.474 58.4167 195.474 58.2495 195.491 58.0823C195.581 56.339 196.169 54.6581 197.186 53.2392C198.371 51.5961 200.123 50.3046 200.824 48.4106C201.103 47.5961 201.229 46.737 201.196 45.8766C201.214 44.3267 200.805 42.8018 200.014 41.4688C199.611 40.8025 199.071 40.2293 198.43 39.787C197.789 39.3447 197.061 39.0435 196.295 38.9032C195.892 38.8397 195.48 38.8311 195.082 38.7388C192.715 38.1825 191.845 35.0085 189.545 34.2302C188.472 33.8669 187.279 34.1062 186.244 34.5559C185.209 35.0056 184.272 35.6514 183.261 36.1501C182.249 36.6488 181.102 37.0149 180.182 37.7212C180.087 37.7933 179.986 37.8798 179.894 37.9691L179.712 38.145C179.333 38.5302 179.003 38.9611 178.729 39.4278L178.686 39.4999C178.657 39.5489 178.631 39.6008 178.605 39.6527C178.58 39.7046 178.562 39.7334 178.545 39.7738C178.528 39.8141 178.499 39.866 178.479 39.9121L178.418 40.0505L178.366 40.1831C178.349 40.2321 178.329 40.2811 178.314 40.333C178.3 40.3849 178.286 40.4166 178.274 40.4599L178.231 40.6126L178.205 40.7366C178.205 40.7885 178.185 40.8433 178.176 40.8952C178.167 40.947 178.176 40.973 178.176 41.0105C178.176 41.0479 178.176 41.12 178.176 41.1748C178.176 41.2296 178.176 41.2469 178.176 41.2815C178.176 41.316 178.176 41.3968 178.176 41.4573C178.176 41.5178 178.176 41.515 178.176 41.5438C178.187 41.6285 178.204 41.7124 178.228 41.7946C178.384 42.325 178.92 42.867 179.329 43.3398C179.283 43.383 179.237 43.4234 179.191 43.4695C178.218 44.4072 177.444 45.5316 176.915 46.7754C176.387 48.0192 176.115 49.3568 176.115 50.7082C176.115 51.3086 176.17 51.9078 176.279 52.4984C175.755 52.1026 175.192 51.7616 174.599 51.4807C172.647 50.5448 170.512 50.0525 168.347 50.0394C164.816 49.999 159.855 48.6729 159.855 48.6729C159.981 48.9149 160.078 49.1715 160.143 49.4368C159.927 49.3129 159.693 49.1803 159.437 49.0419C157.369 47.9314 155.127 47.1808 152.807 46.8222C152.807 46.8222 151.337 47.0268 151.141 43.9394C151.074 42.9747 150.9 42.0204 150.622 41.0941C149.778 38.2704 149.194 35.3756 148.875 32.4457L148.382 27.914C148.382 27.914 150.602 16.0946 149.267 11.0555C149.697 9.47569 149.455 8.02853 148.039 6.98785C142.456 2.877 136.824 18.8765 136.824 18.8765L134.731 20.9088C134.194 20.5589 133.589 20.3279 132.955 20.2314C132.955 20.2314 131.828 21.3845 131.044 24.5325C130.629 26.2016 127.793 28.9893 125.227 31.2349C123.406 32.8291 121.647 34.4867 119.892 36.1501C118.595 37.3839 115.704 39.1482 109.397 40.1456C108.408 40.3013 107.509 40.4483 106.687 40.5838C106.897 39.8389 107.004 39.0688 107.004 38.2949C106.994 36.347 106.322 34.4603 105.099 32.9448C103.875 31.4292 102.173 30.3749 100.271 29.955C100.299 29.7533 100.299 29.5485 100.271 29.3467C100.164 28.9127 99.9445 28.5147 99.6336 28.1936C98.3048 26.5504 96.8635 24.8611 94.8861 24.0828C94.0707 23.7656 93.1973 23.6251 92.3236 23.6705H91.8854C91.7961 23.6705 91.7096 23.6705 91.6203 23.6705C90.6879 23.7221 89.7773 23.972 88.9492 24.4035C88.1211 24.835 87.3946 25.4382 86.818 26.1728C86.1089 27.1212 85.6823 28.2455 85.0712 29.2574C83.9355 31.1312 82.1887 32.5754 80.2949 33.717C79.1563 34.406 77.9601 34.9999 76.8849 35.7811C72.9849 38.6149 71.1862 43.8529 72.1663 48.5345C72.5986 50.59 73.5124 52.6137 73.2674 54.6979C73.0742 56.3152 72.2037 57.7681 71.3159 59.1403C70.4281 60.5125 69.4884 61.9078 69.1367 63.4962C68.7851 65.0846 69.154 66.9555 70.4858 67.9184C70.9758 68.2701 71.5696 68.4949 71.9875 68.9216C72.2656 69.2503 72.4982 69.6149 72.6793 70.0055C73.3864 71.2831 74.3455 72.4038 75.4985 73.2997C76.6515 74.1956 77.9744 74.8481 79.3869 75.2176C79.8349 75.332 80.2969 75.3825 80.759 75.3675H80.808H80.8974C81.9552 75.4338 83.0391 75.1513 83.3936 74.2144C83.4474 74.0014 83.5278 73.7961 83.6328 73.6032C83.7324 73.4594 83.881 73.3569 84.0508 73.315C84.3918 73.3929 84.7206 73.517 85.028 73.684C86.5046 74.4499 88.12 74.9116 89.7783 75.0417C90.0555 75.0639 90.3337 75.0687 90.6114 75.0562C91.1885 75.1101 91.7702 75.0272 92.3092 74.814C92.8275 74.5509 93.2753 74.1673 93.6149 73.6955C93.6899 73.6003 93.7591 73.4994 93.8311 73.4072C93.4503 75.7095 92.7336 77.9435 91.7038 80.0376C91.7038 80.0376 89.9743 82.9204 90.0983 85.8262C90.0317 86.8849 90.256 87.9416 90.7469 88.882C90.7469 88.882 90.7959 88.7551 90.8967 88.5562C91.3925 89.3865 93.0183 92.0415 94.0848 92.9727C94.1367 95.7142 94.1251 99.1476 93.7821 99.8539C93.2056 101.062 91.3839 109.655 99.2185 115.516L101.026 119.474L93.5861 120.002C92.8338 119.898 83.1053 118.589 83.0563 120.495C83.0073 122.475 84.5264 141.761 89.5708 140.455C94.2722 139.238 92.7214 133.614 92.4879 132.859L92.6551 132.813L92.4706 132.761L96.2323 129.195C96.3032 128.761 96.1995 128.316 95.944 127.958L95.9815 127.938L105.067 128.344L107.203 132.986C107.203 132.986 110.826 138.498 107.889 143.136C104.952 147.774 101.914 155.027 101.424 159.427C101.023 163.024 98.3595 166.559 97.4054 167.723C95.7019 168.3 89.1672 170.865 91.7759 174.749C94.7622 179.194 104.459 187.655 108.379 187.364C112.299 187.073 110.728 184.221 110.728 184.221L107.451 181.045C107.451 181.045 106.874 174.276 107.108 172.295C107.235 171.266 106.477 170.525 105.667 170.211C105.975 168.006 106.756 163.826 108.434 161.517C110.783 158.276 118.327 144.018 118.327 144.018C118.327 144.018 120.725 141.891 120.186 135.56C119.97 133.006 119.849 130.763 119.779 128.99L128.317 129.374C128.317 129.374 137.475 128.454 131.255 118.641C125.034 108.828 111.812 99.211 111.812 99.211L111.694 93.137C112.294 93.2869 112.645 93.3618 112.645 93.3618C112.645 93.3618 112.593 93.1427 112.507 92.7507L112.645 92.7824C112.645 92.7824 110.734 84.5117 110.146 77.9361L110.685 78.184C116.367 84.7596 120.197 79.2016 120.197 79.2016C120.197 79.2016 132.197 62.3315 131.021 63.1041C130.899 63.1645 130.767 63.1999 130.631 63.2083C130.496 63.2167 130.36 63.198 130.231 63.1531L131.096 60.3972C131.096 60.3972 134.639 54.9833 129.496 51.9391C125.299 49.4541 125.409 57.2434 125.591 60.1868L125.383 60.0109C125.383 60.0109 121.368 66.0648 119.212 69.4376C117.055 72.8105 115.245 70.5907 115.245 70.5907L112.521 67.5206C112.969 66.2906 113.188 64.9894 113.17 63.6807C113.229 62.7676 113.096 61.8522 112.779 60.994C112.461 60.1358 111.967 59.3539 111.328 58.6992C109.25 56.5804 108.641 54.5278 108.578 52.9481C108.598 52.1296 108.784 51.3236 109.123 50.5784L123.279 43.0832C123.279 43.0832 126.265 43.1293 130.28 36.9429C132.883 32.9862 135.746 29.2081 138.853 25.6337C138.853 25.6337 138.769 25.5126 138.625 25.3137C138.769 25.1436 138.853 25.0514 138.853 25.0514C138.853 25.0514 138.689 24.8121 138.409 24.4431L140.591 21.9264C140.522 23.0639 140.513 24.2042 140.565 25.3425L141.695 29.1622L142.329 50.4285C142.329 50.4285 141.643 52.4465 146.053 54.4904C149.783 56.22 155.692 59.1028 157.416 59.9532C157.353 60.1089 157.315 60.1925 157.315 60.1925L157.828 60.1579L157.903 60.1925C166.519 59.4199 166.225 68.0222 166.225 68.0222C166.225 68.0222 166.802 85.5207 164.17 91.612C161.538 97.7033 161.916 105.242 161.916 105.242C161.916 105.242 162.178 103.956 163.645 105.637C163.616 105.784 163.585 105.942 163.55 106.107C162.708 110.324 160.956 119.295 160.63 122.933C160.271 126.249 159.632 129.528 158.719 132.735L157.854 148.829L163.363 149.098L163.302 149.674C163.272 149.966 163.171 150.247 163.009 150.491C162.846 150.736 162.626 150.937 162.368 151.078C160.483 152.101 156.027 155.691 156.384 166.766L156.194 168.548C155.889 171.565 154.974 174.489 153.505 177.141C153.378 177.366 153.265 177.582 153.17 177.79C153.185 177.673 153.237 177.565 153.32 177.481C153.32 177.481 150.458 178.075 151.046 185.81C151.634 193.544 152.516 194.896 153.692 194.992C154.868 195.087 160.61 196.491 160.302 193.639C159.993 190.788 159.725 184.455 160.106 183.489C160.486 182.523 162.048 179.917 160.567 179.289C160.996 177.515 161.205 175.695 161.187 173.869C161.187 173.869 164.069 169.326 166.13 167.634C168.191 165.942 169.301 163.068 170.047 159.369C170.099 159.127 176.121 155.114 175.236 151.781C175.08 151.205 174.968 150.695 174.881 150.233C174.844 150.029 174.812 149.836 174.783 149.657H174.89L176.115 142.309V149.464L176.841 149.559L176.815 150.135L176.507 156.996C176.451 158.333 176.158 159.649 175.642 160.882C174.345 163.953 171.953 170.788 172.604 178.179L172.535 184.769C172.327 184.81 169.335 185.516 169.903 192.985C170.48 200.717 171.37 202.072 172.546 202.167C173.723 202.262 179.464 203.666 179.159 200.815C178.853 197.964 178.582 191.63 178.963 190.664C179.343 189.699 180.029 187.145 178.548 186.516C178.556 185.65 178.767 184.798 179.165 184.028C179.81 182.93 181.966 177.709 183.589 173.694C185.248 169.629 186.171 165.302 186.313 160.914C186.313 160.865 186.313 160.816 186.313 160.767C186.357 159.287 186.675 157.828 187.25 156.463C187.914 154.936 188.438 153.353 188.818 151.732C188.859 151.539 188.89 151.352 188.919 151.156L190.326 151.343L195.128 130.558C195.128 130.558 196.442 119.292 195.8 114.204C195.774 113.994 195.745 113.801 195.71 113.613L195.999 113.639C195.999 113.639 196.979 111.128 196.685 100.396C196.391 89.6632 198.645 86.2702 198.645 86.2702C199.861 82.413 201.204 81.1215 201.988 80.6891C202.19 80.5605 202.421 80.4851 202.66 80.47L206.295 84.6299L206.964 85.3967C206.965 85.3814 206.965 85.3659 206.964 85.3506L207.252 85.6879C207.23 85.5168 207.222 85.3442 207.229 85.1718C209.169 86.299 213.651 88.9339 216.326 90.825C219.814 93.2898 220.771 93.0015 223.82 92.7449C225.671 92.5921 228.173 91.5543 229.851 90.7644L230.003 90.6924C230.455 90.9333 230.93 91.1266 231.422 91.2689C231.422 91.2689 236.345 95.4403 236.82 87.8269C237.296 80.2135 230.914 82.0527 230.914 82.0527ZM103.219 170.716C102.718 170.566 102.235 170.362 101.778 170.107L103.219 170.716ZM95.5116 88.3025L95.5289 89.3836L95.454 89.4182C95.477 89.0377 95.4943 88.6629 95.5116 88.3025ZM172.515 184.795V185.216C172.461 185.159 172.432 185.084 172.432 185.006C172.432 184.927 172.461 184.852 172.515 184.795Z" fill="url(#paint0_linear)"/>
<path d="M188.23 58.1256H179.871V66.9181H188.23V58.1256Z" fill="#FF6501"/>
<path d="M169.713 159.649C168.978 163.324 167.888 166.181 165.871 167.865C163.853 169.548 161.019 174.063 161.019 174.063C160.97 180.067 159.385 181.892 159.385 181.892L157.751 182.325H153.715C153.715 182.325 152.995 180.307 152.85 179.107C152.801 178.707 153.087 178.035 153.485 177.314C154.927 174.673 155.824 171.768 156.122 168.773L156.309 167C155.969 155.996 160.345 152.424 162.181 151.407C162.435 151.265 162.65 151.064 162.809 150.821C162.969 150.578 163.066 150.301 163.095 150.011L163.421 146.866L174.276 147.4C174.276 147.4 174.045 148.357 174.458 150.571C174.541 151.029 174.654 151.539 174.804 152.107C175.668 155.42 169.759 159.406 169.713 159.649Z" fill="#8E5362"/>
<path d="M188.121 152.05C187.748 153.659 187.234 155.233 186.584 156.751C186.019 158.109 185.706 159.559 185.662 161.029C185.662 161.079 185.662 161.127 185.662 161.177C185.522 165.534 184.617 169.833 182.99 173.878C181.396 177.868 179.283 183.06 178.649 184.152C177.594 185.977 178.216 189.053 178.216 189.053L172.105 188.621L172.212 178.338C171.575 170.995 173.921 164.212 175.193 161.148C175.706 159.922 175.999 158.615 176.057 157.288L176.346 150.467L176.435 148.449C176.435 148.449 187.239 146.912 188.149 149.363C188.4 150.011 188.34 150.977 188.121 152.05Z" fill="#8E5362"/>
<path opacity="0.1" d="M174.458 150.571L163.083 150.011L163.409 146.866L174.276 147.4C174.276 147.4 174.037 148.354 174.458 150.571Z" fill="black"/>
<path opacity="0.1" d="M188.121 152.05L176.343 150.467L176.432 148.449C176.432 148.449 187.236 146.912 188.147 149.363C188.4 150.011 188.34 150.977 188.121 152.05Z" fill="black"/>
<path d="M194.309 131.011L189.602 151.672L175.671 149.798V142.686L174.466 149.994L157.748 149.175L158.613 133.176C159.508 129.983 160.135 126.721 160.486 123.424C160.812 119.809 162.524 110.892 163.351 106.703C163.64 105.323 163.801 104.452 163.801 104.452C163.801 104.452 192.436 110.408 194.309 112.57C194.629 112.939 194.84 113.723 194.97 114.764C195.598 119.814 194.309 131.011 194.309 131.011Z" fill="#BEE2F2"/>
<path opacity="0.1" d="M160.872 132.357C160.872 132.357 172.143 126.448 174.89 127.696L160.872 132.357Z" fill="black"/>
<path opacity="0.1" d="M167.021 113.043C167.021 113.043 176.389 120.154 176.677 122.074L167.021 113.043Z" fill="black"/>
<path opacity="0.1" d="M164.475 137.546C164.475 137.546 171.249 137.258 173.411 138.988L164.475 137.546Z" fill="black"/>
<path opacity="0.1" d="M176.677 129.942C176.677 129.942 179.897 140.481 178.502 143.364C177.107 146.247 175.668 142.689 175.668 142.689L176.677 129.942Z" fill="black"/>
<path d="M172.155 184.876C172.155 184.876 168.984 185.357 169.56 193.043C170.137 200.728 171.002 202.077 172.155 202.172C173.308 202.268 178.928 203.663 178.64 200.826C178.352 197.99 178.064 191.699 178.447 190.736C178.83 189.774 179.493 187.24 178.041 186.614L177.726 188.096C177.726 188.096 174.651 185.259 172.826 187.326C172.748 186.822 172.621 186.327 172.449 185.847C172.267 185.398 171.869 185.164 172.155 184.876Z" fill="#064564"/>
<path d="M230.182 90.5569C230.182 90.5569 229.456 90.9633 228.389 91.4707C226.743 92.2548 224.29 93.2869 222.475 93.4396C219.482 93.6933 218.546 93.9816 215.124 91.5312C212.498 89.6517 208.102 87.0312 206.188 85.9127L205.355 85.4197L205.272 85.3707V85.3361L206.86 80.9716L212.481 77.9822L213.876 79.1785L218.03 82.7388C218.03 82.7388 218.678 83.7823 219.725 83.7103C220.771 83.6382 226.354 84.1052 226.354 84.1052L227.409 84.2782L229.632 84.6472L230.182 90.5569Z" fill="#8E5362"/>
<path opacity="0.1" d="M230.182 90.5569C230.182 90.5569 229.456 90.9634 228.389 91.4707C227.262 90.8942 225.861 89.8132 226.4 88.0345C226.887 86.4345 227.02 85.1863 227.421 84.2869L229.643 84.6559L230.182 90.5569Z" fill="black"/>
<path d="M229.427 82.7734C229.427 82.7734 235.696 80.9717 235.229 88.539C234.762 96.1063 229.931 91.9638 229.931 91.9638C229.931 91.9638 225.824 90.8827 226.688 88.0345C227.553 85.1863 227.302 83.4595 229.427 82.7734Z" fill="#8E5362"/>
<path d="M164.427 58.2697L157.895 61.0142L157.794 61.0574L157.722 61.0228L157.315 60.8181C155.626 59.9764 149.821 57.0965 146.169 55.387C141.845 53.369 142.517 51.3511 142.517 51.3511L141.894 30.2116L140.787 26.415C140.787 26.415 140.006 13.5462 146.264 10.3204C152.522 7.09456 148.475 28.9605 148.475 28.9605L148.959 33.5038C149.272 36.4102 149.846 39.2824 150.674 42.0858C150.945 43.0074 151.115 43.9556 151.181 44.9138C151.375 47.9869 152.816 47.7822 152.816 47.7822C155.092 48.1397 157.29 48.8867 159.313 49.9904C160.064 50.387 160.783 50.842 161.463 51.3511L164.427 58.2697Z" fill="#8E5362"/>
<path d="M187.68 68.3595L182.105 67.7829C182.105 67.7829 183.748 65.3383 184.471 62.96C184.574 62.634 184.656 62.3018 184.716 61.9655C184.884 61.0228 184.84 60.1493 184.411 59.518C182.779 57.1166 194.116 53.7524 194.116 53.7524C193.978 55.0815 193.937 56.4187 193.992 57.7537C194.025 58.6827 194.121 59.6084 194.281 60.5241C194.624 62.3893 195.307 64.1449 196.61 65.0443C200.169 67.4947 187.68 68.3595 187.68 68.3595Z" fill="#8E5362"/>
<path opacity="0.1" d="M187.68 68.3596L182.105 67.783C182.105 67.783 183.748 65.3384 184.471 62.9601C185.114 63.874 185.336 63.8538 186.238 64.0354C186.238 64.0354 191.865 64.8685 194.286 60.5242C194.629 62.3893 195.312 64.1449 196.615 65.0444C200.169 67.4947 187.68 68.3596 187.68 68.3596Z" fill="black"/>
<path opacity="0.1" d="M206.2 85.9127C206.193 86.0841 206.201 86.2557 206.223 86.4258L205.358 85.4197L205.286 85.3361L206.874 80.9716L212.495 77.9822L213.89 79.1785C211.893 79.9425 206.289 82.3669 206.2 85.9127Z" fill="black"/>
<path opacity="0.1" d="M164.427 58.2697L157.895 61.0141H157.722L157.217 61.0487C157.217 61.0487 157.255 60.9651 157.315 60.8094C157.86 59.4862 160.388 53.0259 159.296 49.9817C160.047 50.3783 160.766 50.8333 161.446 51.3424L164.427 58.2697Z" fill="black"/>
<path opacity="0.1" d="M194.97 114.755C192.427 114.527 166.992 112.175 164.62 108.43C164.245 107.82 163.821 107.242 163.351 106.7C163.64 105.32 163.801 104.449 163.801 104.449C163.801 104.449 192.436 110.405 194.309 112.567C194.629 112.93 194.84 113.711 194.97 114.755Z" fill="black"/>
<path d="M186.239 64.3235C186.239 64.3235 191.926 65.1653 194.33 60.746C194.33 60.746 198.345 64.0439 200.746 64.3264C203.147 64.6089 214.294 78.6423 214.294 78.6423C214.294 78.6423 205.358 81.5251 205.935 86.1376L201.706 81.2368C201.706 81.2368 199.593 81.1388 197.769 87.0024C197.769 87.0024 195.558 90.3637 195.846 101.03C196.134 111.696 195.174 114.196 195.174 114.196C195.174 114.196 167.116 111.794 164.62 107.854C162.124 103.913 161.737 105.836 161.737 105.836C161.737 105.836 161.351 98.3404 163.945 92.2866C166.54 86.2327 165.963 68.8409 165.963 68.8409C165.963 68.8409 166.251 60.2876 157.797 61.0573C157.797 61.0573 161.351 52.7924 159.72 49.6213C159.72 49.6213 164.582 50.9416 168.047 50.982C170.174 50.9985 172.27 51.491 174.181 52.4234C175.222 52.9337 176.181 53.5765 176.726 54.3433C178.358 56.6496 181.05 55.5945 181.05 55.5945C181.729 57.7048 182.567 59.7605 183.558 61.7434C183.67 61.9539 183.783 62.1615 183.898 62.3604C184.065 62.6486 184.238 62.9369 184.411 63.1733C185.103 64.1621 185.299 64.1362 186.239 64.3235Z" fill="#FF6501"/>
<path opacity="0.1" d="M193.992 57.7451C193.686 58.1803 193.345 58.5901 192.972 58.9703C192.034 59.9323 190.914 60.6968 189.676 61.2187C188.439 61.7406 187.109 62.0092 185.766 62.0087C185.418 62.0089 185.071 61.9916 184.725 61.9568C184.892 61.0142 184.849 60.1407 184.42 59.5093C182.788 57.108 194.125 53.7438 194.125 53.7438C193.984 55.0726 193.94 56.4099 193.992 57.7451Z" fill="black"/>
<path d="M195.846 51.6393C195.846 53.6348 195.254 55.5856 194.146 57.2448C193.037 58.9041 191.461 60.1973 189.618 60.961C187.774 61.7246 185.746 61.9244 183.789 61.5351C181.832 61.1458 180.034 60.1848 178.623 58.7738C177.212 57.3627 176.251 55.5649 175.862 53.6077C175.473 51.6504 175.673 49.6217 176.436 47.7781C177.2 45.9344 178.493 44.3586 180.152 43.2499C181.811 42.1413 183.762 41.5495 185.757 41.5495C187.083 41.5446 188.398 41.8022 189.624 42.3075C190.85 42.8128 191.964 43.5558 192.902 44.4937C193.84 45.4316 194.583 46.5458 195.088 47.7722C195.593 48.9986 195.851 50.3129 195.846 51.6393Z" fill="#8E5362"/>
<path opacity="0.1" d="M200.844 74.7016L201.052 81.4531C201.052 81.4531 204.064 79.0258 204.159 76.7195C204.254 74.4133 200.844 74.7016 200.844 74.7016Z" fill="black"/>
<path opacity="0.1" d="M176.533 81.453C176.533 81.453 184.46 92.3355 189.072 93.4396C193.684 94.5437 178.263 84.9815 176.533 81.453Z" fill="black"/>
<path opacity="0.1" d="M184.941 82.5861C184.941 82.5861 189.36 87.579 192.531 88.2017L184.941 82.5861Z" fill="black"/>
<path opacity="0.1" d="M169.376 95.1693C169.376 95.1693 177.447 103.097 182.059 103.578L169.376 95.1693Z" fill="black"/>
<path opacity="0.1" d="M195.846 51.6393C195.847 54.2769 194.812 56.8094 192.963 58.6906L191.856 58.0016C191.428 57.7787 191.059 57.4577 190.778 57.0647C190.412 56.4536 190.519 55.6868 190.548 54.9747C190.608 53.467 190.193 51.8354 189.014 50.8927C187.103 49.3619 184.039 50.2095 182.096 48.7075C181.628 48.3102 181.216 47.8516 180.871 47.344L179.049 44.9023C178.94 44.7581 178.807 44.614 178.666 44.4439C180.084 43.049 181.883 42.1046 183.837 41.7294C185.79 41.3542 187.811 41.565 189.645 42.3351C191.48 43.1053 193.045 44.4006 194.145 46.0581C195.245 47.7156 195.831 49.6614 195.828 51.6509L195.846 51.6393Z" fill="black"/>
<path d="M179.678 38.7186C180.58 38.0296 181.681 37.6664 182.696 37.159C183.71 36.6516 184.607 36.0059 185.622 35.5735C186.636 35.1411 187.809 34.8874 188.861 35.2477C191.118 36.0232 191.972 39.177 194.292 39.7304C194.684 39.8227 195.088 39.8313 195.483 39.8919C196.236 40.0348 196.951 40.3361 197.58 40.7759C198.208 41.2157 198.736 41.784 199.129 42.4432C199.903 43.7732 200.302 45.2888 200.282 46.8279C200.314 47.682 200.19 48.5349 199.916 49.3445C199.23 51.227 197.509 52.5156 196.347 54.1444C195.248 55.703 194.664 57.5671 194.678 59.4746L191.865 57.7248C191.436 57.5028 191.067 57.1816 190.787 56.7879C190.421 56.1767 190.528 55.4099 190.556 54.6979C190.617 53.1902 190.202 51.5585 189.026 50.6158C187.112 49.0851 184.048 49.9326 182.108 48.4307C181.64 48.0334 181.228 47.5747 180.883 47.0671L179.061 44.6254C178.666 44.095 177.908 43.4348 177.735 42.7891C177.352 41.3996 178.663 39.4998 179.678 38.7186Z" fill="#362133"/>
<path opacity="0.1" d="M192.179 57.3992C191.75 57.1772 191.381 56.856 191.101 56.4623C190.735 55.8511 190.842 55.0843 190.871 54.3723C190.931 52.8646 190.516 51.2329 189.337 50.2902C187.426 48.7595 184.362 49.607 182.419 48.1051C181.951 47.7078 181.539 47.2491 181.194 46.7415L179.372 44.2998C178.975 43.7694 178.219 43.1092 178.046 42.4635C177.732 41.3507 178.528 39.9007 179.378 38.9724C178.424 39.8545 177.378 41.5294 177.732 42.7777C177.917 43.4234 178.663 44.0836 179.058 44.614L180.88 47.0557C181.225 47.5633 181.637 48.022 182.105 48.4193C184.039 49.9212 187.103 49.0737 189.023 50.6045C190.199 51.5471 190.614 53.1788 190.554 54.6865C190.525 55.3985 190.418 56.1653 190.784 56.7765C191.064 57.1702 191.433 57.4914 191.862 57.7134L194.676 59.4632C194.676 59.296 194.676 59.1289 194.693 58.9645L192.179 57.3992Z" fill="black"/>
<path d="M153.303 177.652C153.303 177.652 150.495 178.228 151.072 185.928C151.648 193.628 152.513 194.963 153.666 195.058C154.819 195.153 160.44 196.548 160.152 193.712C159.864 190.875 159.575 184.585 159.959 183.622C160.342 182.659 161.864 180.073 160.411 179.448L159.238 180.981C159.238 180.981 156.162 178.145 154.338 180.212C154.338 180.212 152.631 178.323 153.303 177.652Z" fill="#064564"/>
<path opacity="0.1" d="M155.079 182.425C155.687 182.714 156.255 183.065 156.86 183.354C157.456 183.666 158.121 183.823 158.794 183.809C159.08 183.804 159.356 183.708 159.584 183.535" fill="black"/>
<path opacity="0.1" d="M173.555 189.955C173.916 190.287 174.195 190.711 174.602 190.984C175.178 191.371 175.916 191.394 176.619 191.402C176.736 191.413 176.854 191.398 176.965 191.359C177.091 191.291 177.197 191.192 177.274 191.071L177.651 190.584" fill="black"/>
<path d="M126.187 62.1125C126.187 62.1125 124.89 49.8145 129.934 52.8414C134.979 55.8683 131.505 61.2476 131.505 61.2476L130.321 65.0443L126.187 62.1125Z" fill="#FEA666"/>
<path d="M134.258 22.8115L137.141 19.9806C137.141 19.9806 142.666 4.07633 148.143 8.16123C153.62 12.2461 141.202 22.5752 141.202 22.5752L137.91 26.4179L134.258 22.8115Z" fill="#FEA666"/>
<path d="M92.0758 85.7081L91.9316 88.9743C91.9316 88.9743 94.5749 93.5868 95.6789 93.9241C96.7829 94.2613 96.6878 84.1687 96.6878 84.1687L92.0758 85.7081Z" fill="#064564"/>
<path opacity="0.1" d="M92.0758 85.7081L91.9316 88.9743C91.9316 88.9743 94.5749 93.5868 95.6789 93.9241C96.7829 94.2613 96.6878 84.1687 96.6878 84.1687L92.0758 85.7081Z" fill="black"/>
<path d="M96.4946 82.1218L96.6906 94.1603H110.091L109.083 87.1465L96.4946 82.1218Z" fill="#FEA666"/>
<path d="M99.6193 112.178L100.245 116.02L108.077 133.415C108.077 133.415 111.631 138.892 108.748 143.505C105.866 148.117 102.888 155.324 102.407 159.695C101.925 164.065 98.132 168.343 98.132 168.343L106.396 171.851C106.396 171.851 106.973 164.982 109.279 161.762C111.585 158.542 118.981 144.37 118.981 144.37C118.981 144.37 121.336 142.254 120.809 135.961C120.281 129.668 120.327 125.245 120.327 125.245L119.511 115.205L99.6193 112.178Z" fill="#FF6501"/>
<path opacity="0.1" d="M99.6193 112.178L100.245 116.02L108.077 133.415C108.077 133.415 111.631 138.892 108.748 143.505C105.866 148.117 102.888 155.324 102.407 159.695C101.925 164.065 98.132 168.343 98.132 168.343L106.396 171.851C106.396 171.851 106.973 164.982 109.279 161.762C111.585 158.542 118.981 144.37 118.981 144.37C118.981 144.37 121.336 142.254 120.809 135.961C120.281 129.668 120.327 125.245 120.327 125.245L119.511 115.205L99.6193 112.178Z" fill="black"/>
<path d="M98.8496 167.815C98.8496 167.815 90.0089 170.505 92.9404 174.927C95.872 179.349 105.384 187.756 109.227 187.467C113.069 187.179 111.533 184.342 111.533 184.342L108.313 181.171C108.313 181.171 107.736 174.446 107.978 172.477C108.221 170.508 105.24 169.594 104.854 170.747C104.468 171.9 98.8496 167.815 98.8496 167.815Z" fill="#064564"/>
<path d="M104.422 89.0463L97.4142 89.8217C96.7881 89.8909 96.2108 90.1926 95.7965 90.6673C95.3823 91.1419 95.1613 91.7547 95.1774 92.3845C95.2524 95.1866 95.3014 99.6434 94.9093 100.456C94.3328 101.658 92.5572 110.212 100.242 116.023L110.668 119.339L93.9495 120.541L94.4798 129.815L97.0741 128.373L128.782 129.815C128.782 129.815 137.766 128.901 131.664 119.148C125.562 109.396 112.593 99.8336 112.593 99.8336L112.449 92.2404L111.487 90.0322L104.422 89.0463Z" fill="#FF6501"/>
<path opacity="0.1" d="M113.118 119.192C114.254 118.695 115.481 118.439 116.721 118.439C117.961 118.439 119.188 118.695 120.324 119.192H113.118Z" fill="black"/>
<path d="M94.7679 120.489C94.7679 120.489 84.4399 119.001 84.3909 120.97C84.3419 122.939 85.8322 142.11 90.7814 140.812C95.7307 139.515 93.6149 133.173 93.6149 133.173L97.3161 129.619C97.3161 129.619 97.6995 127.65 95.2493 127.84L94.7679 120.489Z" fill="#064564"/>
<path d="M111.87 66.725L115.952 71.3864C115.952 71.3864 117.73 73.5975 119.843 70.2333C121.956 66.8691 125.896 60.8643 125.896 60.8643C125.896 60.8643 130.269 64.707 131.422 63.9402C132.575 63.1734 120.806 79.9425 120.806 79.9425C120.806 79.9425 117.058 85.466 111.484 78.9336L109.852 78.1639L111.87 66.725Z" fill="#064564"/>
<path opacity="0.1" d="M111.87 66.725L115.952 71.3864C115.952 71.3864 117.73 73.5975 119.843 70.2333C121.956 66.8691 125.896 60.8643 125.896 60.8643C125.896 60.8643 130.269 64.707 131.422 63.9402C132.575 63.1734 120.806 79.9425 120.806 79.9425C120.806 79.9425 117.058 85.466 111.484 78.9336L109.852 78.1639L111.87 66.725Z" fill="black"/>
<path d="M99.3829 47.7822C104.079 47.7822 107.886 43.9748 107.886 39.278C107.886 34.5813 104.079 30.7738 99.3829 30.7738C94.6866 30.7738 90.8795 34.5813 90.8795 39.278C90.8795 43.9748 94.6866 47.7822 99.3829 47.7822Z" fill="#FEA666"/>
<path opacity="0.1" d="M99.38 43.8559C99.38 43.8559 92.0729 47.3152 92.9376 53.3691C93.8024 59.4229 93.9465 67.0623 93.9465 67.0623C93.9465 67.0623 97.2642 71.963 92.8655 81.3321C92.8655 81.3321 90.0551 86.0887 91.9287 89.548C91.9287 89.548 94.007 84.0707 99.38 88.1066C104.753 92.1425 113.403 94.0163 113.403 94.0163C113.403 94.0163 108.935 74.4134 111.674 71.6747C111.674 71.6747 116.43 64.6119 112.106 60.1436C107.782 55.6753 109.944 51.4953 109.944 51.4953L123.829 44.049C123.829 44.049 126.758 44.0951 130.698 37.9462C133.249 34.0167 136.058 30.2608 139.107 26.7033C139.107 26.7033 136.126 22.235 133.342 21.8977C133.342 21.8977 132.235 23.0508 131.468 26.1758C131.059 27.8334 128.277 30.6037 125.761 32.8379C123.974 34.4234 122.25 36.0695 120.529 37.7386C119.255 38.9638 116.418 40.7165 110.233 41.7082C100.052 43.3312 99.38 43.8559 99.38 43.8559Z" fill="black"/>
<path d="M99.38 43.2792C99.38 43.2792 92.0729 46.7386 92.9376 52.7924C93.8024 58.8463 93.9465 66.4856 93.9465 66.4856C93.9465 66.4856 97.2642 71.3864 92.8655 80.7554C92.8655 80.7554 90.0551 85.512 91.9287 88.9714C91.9287 88.9714 94.007 83.4941 99.38 87.53C104.753 91.5659 113.403 93.4397 113.403 93.4397C113.403 93.4397 108.935 73.8367 111.674 71.0981C111.674 71.0981 116.43 64.0353 112.106 59.5669C107.782 55.0986 109.944 50.9186 109.944 50.9186L123.829 43.4724C123.829 43.4724 126.758 43.5185 130.698 37.3695C133.249 33.44 136.058 29.6841 139.107 26.1267C139.107 26.1267 136.126 21.6583 133.342 21.321C133.342 21.321 132.235 22.4742 131.468 25.5991C131.059 27.2567 128.277 30.0271 125.761 32.2612C123.974 33.8467 122.25 35.4928 120.529 37.1619C119.255 38.3871 116.418 40.1399 110.233 41.1315C100.052 42.7545 99.38 43.2792 99.38 43.2792Z" fill="#064564"/>
<path opacity="0.1" d="M105.672 79.5071C105.672 79.5071 111.339 87.8672 111.484 89.3085C111.486 89.3085 110.622 80.3229 105.672 79.5071Z" fill="black"/>
<path opacity="0.1" d="M98.2269 51.3511C98.2269 51.3511 102.179 56.1077 107.889 52.1208C106.311 52.6567 104.64 52.8649 102.979 52.7325C101.317 52.6002 99.7003 52.1301 98.2269 51.3511Z" fill="black"/>
<path opacity="0.1" d="M101.291 30.3846C101.188 29.9526 100.973 29.5551 100.669 29.2315C99.3657 27.597 97.9504 25.9192 96.0104 25.1437C94.7227 24.6626 93.3149 24.6062 91.9928 24.9828C90.6708 25.3594 89.5039 26.1492 88.6629 27.2366C87.9654 28.1764 87.5503 29.2949 86.9478 30.301C85.8352 32.1633 84.1143 33.5989 82.2638 34.7348C81.1482 35.418 79.9722 36.0089 78.9201 36.7844C75.095 39.6009 73.328 44.8072 74.2908 49.4687C74.7145 51.5097 75.611 53.5219 75.3688 55.5946C75.1815 57.2032 74.3254 58.6446 73.4577 60.011C72.5901 61.3775 71.6648 62.7612 71.3189 64.3352C70.973 65.9092 71.3362 67.7744 72.642 68.7286C73.1234 69.0803 73.7027 69.3051 74.1149 69.726C74.3877 70.0536 74.6155 70.4162 74.7923 70.8042C75.479 72.071 76.4167 73.1846 77.5481 74.0767C78.6796 74.9689 79.9811 75.621 81.3731 75.9932C82.6126 76.3189 84.2758 76.2007 84.7283 75.0015C84.7803 74.7897 84.8587 74.5854 84.9618 74.3932C85.3711 73.8167 86.2733 74.1395 86.9075 74.4711C88.3511 75.2258 89.9328 75.6799 91.557 75.8058C92.2011 75.8908 92.8563 75.8124 93.4623 75.5781C93.9739 75.3182 94.4143 74.9372 94.745 74.4682C96.2612 72.4935 96.6965 69.9134 96.9559 67.4371C97.126 65.8256 97.2441 64.1853 96.9357 62.594C96.4457 60.0398 94.892 57.6529 95.1226 55.0642C95.3676 52.2967 97.6131 50.0337 97.9561 47.2806C98.1305 45.8392 97.7705 44.3839 96.9444 43.19C96.6395 42.8213 96.381 42.4166 96.1747 41.985C96.0763 41.7667 96.0457 41.5238 96.0868 41.2879C96.1279 41.052 96.2389 40.8339 96.4053 40.6618C96.5879 40.5332 96.7905 40.4357 97.0049 40.3735C98.8583 39.6614 99.847 37.8049 99.9796 35.9052C100.032 35.1845 99.9796 34.5214 100.179 33.818C100.496 32.7312 101.455 31.5435 101.291 30.3846Z" fill="black"/>
<path d="M100.715 30.3846C100.611 29.9526 100.396 29.5551 100.092 29.2315C98.7891 27.597 97.3738 25.9192 95.4339 25.1437C94.1462 24.6626 92.7383 24.6062 91.4163 24.9828C90.0942 25.3594 88.9274 26.1492 88.0864 27.2366C87.3888 28.1764 86.9737 29.2949 86.3713 30.301C85.2586 32.1633 83.5378 33.5989 81.6872 34.7348C80.5717 35.418 79.3956 36.0089 78.3435 36.7844C74.5184 39.6009 72.7515 44.8072 73.7142 49.4687C74.138 51.5097 75.0344 53.5219 74.7923 55.5946C74.6049 57.2032 73.7488 58.6446 72.8812 60.011C72.0136 61.3775 71.0883 62.7612 70.7424 64.3352C70.3965 65.9092 70.7597 67.7744 72.0654 68.7286C72.5468 69.0803 73.1262 69.3051 73.5384 69.726C73.8112 70.0536 74.039 70.4162 74.2158 70.8042C74.9024 72.071 75.8401 73.1846 76.9716 74.0767C78.1031 74.9689 79.4046 75.621 80.7965 75.9932C82.036 76.3189 83.6992 76.2007 84.1518 75.0015C84.2037 74.7897 84.2822 74.5854 84.3853 74.3932C84.7946 73.8167 85.6968 74.1395 86.3309 74.4711C87.7746 75.2258 89.3563 75.6799 90.9804 75.8058C91.6246 75.8908 92.2797 75.8124 92.8857 75.5781C93.3974 75.3182 93.8378 74.9372 94.1685 74.4682C95.6847 72.4935 96.1199 69.9134 96.3793 67.4371C96.5494 65.8256 96.6676 64.1853 96.3592 62.594C95.8691 60.0398 94.3155 57.6529 94.5461 55.0642C94.7911 52.2967 97.0365 50.0337 97.3796 47.2806C97.5539 45.8392 97.194 44.3839 96.3678 43.19C96.0629 42.8213 95.8045 42.4166 95.5982 41.985C95.4998 41.7667 95.4692 41.5238 95.5103 41.2879C95.5514 41.052 95.6623 40.8339 95.8288 40.6618C96.0113 40.5332 96.2139 40.4357 96.4283 40.3735C98.2818 39.6614 99.2705 37.8049 99.4031 35.9052C99.455 35.1845 99.4031 34.5214 99.602 33.818C99.919 32.7312 100.879 31.5435 100.715 30.3846Z" fill="#362133"/>
<g opacity="0.1">
<path opacity="0.1" d="M83.5262 74.3786C83.4233 74.5711 83.3439 74.7753 83.2898 74.9868C83.0218 75.7018 82.3213 76.0304 81.5402 76.1111C82.6269 76.2207 83.7885 75.9584 84.1546 74.9868C84.2087 74.7753 84.288 74.5711 84.391 74.3786C84.4635 74.2727 84.563 74.1881 84.6792 74.1335C84.2411 74.0067 83.7914 74.0125 83.5262 74.3786Z" fill="black"/>
<path opacity="0.1" d="M100.729 30.3816C100.628 29.9485 100.413 29.5503 100.106 29.2285C98.8035 27.5939 97.3882 25.9161 95.4483 25.1407C94.6052 24.8115 93.699 24.6755 92.7964 24.7428C93.4092 24.7814 94.0122 24.9156 94.5835 25.1407C96.5234 25.9161 97.9387 27.5939 99.2416 29.2285C99.5485 29.5503 99.7635 29.9485 99.8642 30.3816C100.029 31.5347 99.0716 32.731 98.7545 33.7977C98.5441 34.5011 98.6046 35.1612 98.5556 35.8848C98.4201 37.7817 97.4343 39.6324 95.578 40.3531C95.3636 40.4154 95.1609 40.5128 94.9784 40.6414C94.8119 40.8141 94.7011 41.0329 94.6605 41.2694C94.6199 41.5059 94.6513 41.7491 94.7507 41.9675C94.956 42.399 95.2135 42.8037 95.5174 43.1725C96.3444 44.365 96.7054 45.8194 96.5321 47.2603C96.1862 50.0191 93.9378 52.2792 93.6957 55.0438C93.4651 57.6383 95.0217 60.0195 95.5088 62.5707C95.8143 64.162 95.699 65.8024 95.529 67.4138C95.2696 69.8901 94.8372 72.4731 93.3181 74.4449C92.9886 74.9139 92.5491 75.295 92.0383 75.5548C91.7397 75.6857 91.4209 75.7647 91.0957 75.7883C91.7082 75.8612 92.3292 75.781 92.903 75.5548C93.4148 75.3018 93.8571 74.9278 94.1915 74.4651C95.7106 72.4933 96.1429 69.9103 96.4024 67.434C96.5724 65.8225 96.6906 64.1822 96.3822 62.5909C95.8951 60.0397 94.3385 57.6498 94.5691 55.064C94.817 52.2936 97.0596 50.0335 97.4055 47.2805C97.5788 45.8396 97.2178 44.3852 96.3908 43.1927C96.0869 42.8239 95.8294 42.4192 95.6241 41.9877C95.5247 41.7693 95.4933 41.5261 95.5339 41.2896C95.5745 41.0531 95.6853 40.8343 95.8518 40.6616C96.0343 40.533 96.2369 40.4356 96.4514 40.3733C98.3077 39.6584 99.2935 37.8019 99.429 35.905C99.478 35.1814 99.429 34.5213 99.6279 33.8179C99.9363 32.731 100.893 31.5433 100.729 30.3816Z" fill="black"/>
</g>
<path opacity="0.1" d="M89.8158 132.121C90.3098 132.66 90.9457 133.05 91.6508 133.244C92.3558 133.439 93.1015 133.431 93.8023 133.222" fill="black"/>
<path opacity="0.1" d="M108.287 181.416C108.011 181.639 107.691 181.799 107.348 181.886C107.004 181.972 106.646 181.983 106.298 181.918" fill="black"/>
<path opacity="0.1" d="M30.3095 190.365C34.5966 190.365 38.072 189.777 38.072 189.053C38.072 188.329 34.5966 187.741 30.3095 187.741C26.0223 187.741 22.5469 188.329 22.5469 189.053C22.5469 189.777 26.0223 190.365 30.3095 190.365Z" fill="#064564"/>
<path d="M242.83 216.483C247.118 216.483 250.593 215.895 250.593 215.171C250.593 214.447 247.118 213.859 242.83 213.859C238.543 213.859 235.068 214.447 235.068 215.171C235.068 215.895 238.543 216.483 242.83 216.483Z" fill="#064564"/>
<path opacity="0.1" d="M242.83 191.235C247.118 191.235 250.593 190.648 250.593 189.924C250.593 189.199 247.118 188.612 242.83 188.612C238.543 188.612 235.068 189.199 235.068 189.924C235.068 190.648 238.543 191.235 242.83 191.235Z" fill="#064564"/>
<path opacity="0.1" d="M52.3203 202.544C56.6075 202.544 60.0829 201.957 60.0829 201.233C60.0829 200.508 56.6075 199.921 52.3203 199.921C48.0332 199.921 44.5577 200.508 44.5577 201.233C44.5577 201.957 48.0332 202.544 52.3203 202.544Z" fill="#064564"/>
<path d="M267.381 203.193C273.782 203.193 278.971 202.315 278.971 201.233C278.971 200.15 273.782 199.272 267.381 199.272C260.979 199.272 255.79 200.15 255.79 201.233C255.79 202.315 260.979 203.193 267.381 203.193Z" fill="#064564"/>
<path opacity="0.1" d="M100.732 221C115.181 221 126.893 219.02 126.893 216.578C126.893 214.136 115.181 212.156 100.732 212.156C86.2832 212.156 74.5703 214.136 74.5703 216.578C74.5703 219.02 86.2832 221 100.732 221Z" fill="#064564"/>
<path d="M272.172 198.027C272.701 197.595 273.087 197.013 273.278 196.358C273.42 195.695 273.137 194.902 272.506 194.66C271.797 194.389 271.039 194.879 270.465 195.378C269.892 195.877 269.231 196.439 268.479 196.335C268.866 195.985 269.155 195.54 269.319 195.044C269.483 194.548 269.515 194.019 269.413 193.507C269.38 193.295 269.291 193.095 269.154 192.93C268.759 192.509 268.047 192.691 267.574 193.023C266.075 194.078 265.657 196.113 265.649 197.946C265.499 197.286 265.625 196.597 265.623 195.928C265.62 195.26 265.432 194.487 264.862 194.132C264.509 193.938 264.111 193.839 263.709 193.844C263.034 193.821 262.285 193.887 261.823 194.38C261.247 194.994 261.4 196.021 261.898 196.687C262.397 197.353 263.152 197.782 263.847 198.249C264.406 198.582 264.883 199.036 265.242 199.578C265.284 199.654 265.318 199.733 265.346 199.814H269.569C270.513 199.339 271.388 198.737 272.172 198.027Z" fill="#064564"/>
<path d="M247.624 212.034C248.152 211.602 248.537 211.02 248.728 210.365C248.869 209.702 248.59 208.924 247.956 208.667C247.247 208.396 246.488 208.886 245.915 209.385C245.341 209.884 244.681 210.446 243.929 210.342C244.316 209.992 244.605 209.547 244.769 209.051C244.933 208.556 244.965 208.026 244.863 207.514C244.832 207.302 244.742 207.102 244.603 206.938C244.211 206.517 243.496 206.698 243.027 207.03C241.528 208.085 241.11 210.12 241.101 211.954C240.948 211.294 241.075 210.605 241.072 209.936C241.069 209.267 240.882 208.494 240.311 208.14C239.957 207.95 239.56 207.855 239.158 207.866C238.484 207.843 237.734 207.909 237.273 208.402C236.697 209.016 236.849 210.042 237.348 210.708C237.847 211.374 238.602 211.804 239.3 212.271C239.858 212.604 240.333 213.058 240.692 213.6C240.733 213.675 240.768 213.754 240.796 213.836H245.018C245.964 213.355 246.84 212.749 247.624 212.034Z" fill="#064564"/>
<path d="M61.112 186.029C61.112 186.029 57.0621 172.275 61.873 162.154C63.9216 157.919 64.5406 153.134 63.6371 148.518C63.1912 146.331 62.5457 144.19 61.7087 142.121" stroke="#535461" stroke-width="2" stroke-miterlimit="10"/>
<path d="M64.6919 135.724C64.6919 137.411 61.6394 142.297 61.6394 142.297C61.6394 142.297 58.5897 137.411 58.5897 135.724C58.5771 135.316 58.6468 134.909 58.7944 134.528C58.9421 134.146 59.1649 133.799 59.4494 133.505C59.734 133.212 60.0746 132.979 60.451 132.819C60.8275 132.66 61.2321 132.578 61.6408 132.578C62.0496 132.578 62.4542 132.66 62.8306 132.819C63.2071 132.979 63.5477 133.212 63.8322 133.505C64.1168 133.799 64.3395 134.146 64.4872 134.528C64.6349 134.909 64.7045 135.316 64.6919 135.724Z" fill="#064564"/>
<path d="M69.7364 145.062C68.8198 146.474 63.6024 148.919 63.6024 148.919C63.6024 148.919 63.6975 143.153 64.6142 141.744C65.0646 141.088 65.7528 140.635 66.5325 140.479C67.3122 140.324 68.1218 140.479 68.7891 140.911C69.4564 141.343 69.9288 142.019 70.1057 142.794C70.2826 143.569 70.1501 144.383 69.7364 145.062Z" fill="#064564"/>
<path d="M69.5172 161.015C68.0125 161.776 62.2734 161.251 62.2734 161.251C62.2734 161.251 65.2626 156.325 66.7673 155.567C67.4864 155.229 68.3088 155.185 69.0598 155.444C69.8107 155.704 70.431 156.245 70.789 156.955C71.1469 157.664 71.2143 158.485 70.9769 159.243C70.7394 160.001 70.2158 160.637 69.5172 161.015Z" fill="#064564"/>
<path d="M66.632 173.056C65.2772 174.057 59.5323 174.498 59.5323 174.498C59.5323 174.498 61.6481 169.136 62.9914 168.133C63.6432 167.698 64.4374 167.53 65.2094 167.665C65.9813 167.799 66.672 168.226 67.1384 168.855C67.6047 169.485 67.8111 170.27 67.7147 171.048C67.6182 171.826 67.2265 172.537 66.6204 173.033L66.632 173.056Z" fill="#064564"/>
<path d="M57.1946 149.248C58.4052 150.421 64.0347 151.637 64.0347 151.637C64.0347 151.637 62.6569 146.042 61.4405 144.869C60.8554 144.329 60.0825 144.039 59.2868 144.061C58.491 144.083 57.7353 144.415 57.1807 144.986C56.6261 145.557 56.3166 146.322 56.3181 147.118C56.3196 147.914 56.6321 148.678 57.1888 149.248H57.1946Z" fill="#064564"/>
<path d="M54.0008 163.365C55.5054 164.123 61.2416 163.598 61.2416 163.598C61.2416 163.598 58.2525 158.671 56.7478 157.913C56.0273 157.568 55.2002 157.519 54.444 157.777C53.6879 158.035 53.063 158.579 52.7034 159.293C52.3439 160.006 52.2784 160.832 52.5209 161.593C52.7635 162.355 53.2948 162.991 54.0008 163.365Z" fill="#064564"/>
<path d="M52.7756 177.51C54.1304 178.513 59.8752 178.952 59.8752 178.952C59.8752 178.952 57.7594 173.59 56.4162 172.589C55.7643 172.154 54.9702 171.987 54.1982 172.122C53.4262 172.256 52.7355 172.682 52.2692 173.312C51.8028 173.942 51.5965 174.727 51.6929 175.505C51.7893 176.282 52.1811 176.993 52.7871 177.49L52.7756 177.51Z" fill="#064564"/>
<path d="M51.5305 185.164C51.5305 185.164 56.4625 184.184 57.7798 182.878C59.0971 181.572 65.012 179.289 65.6692 180.921C66.3264 182.552 74.5473 188.102 68.9581 189.082C63.369 190.062 55.8053 190.388 54.1622 189.736C52.5192 189.085 51.5305 185.164 51.5305 185.164Z" fill="#A8A8A8"/>
<path opacity="0.2" d="M68.9668 188.468C63.3776 189.448 55.8139 189.774 54.1709 189.119C52.917 188.624 52.0465 186.237 51.7035 185.121L51.5305 185.164C51.5305 185.164 52.5163 189.082 54.1622 189.736C55.8081 190.391 63.3689 190.062 68.9581 189.082C70.5723 188.794 71.0335 188.136 70.8606 187.295C70.7309 187.834 70.1688 188.257 68.9668 188.468Z" fill="black"/>
<path d="M244.419 171.012C244.419 171.012 246.004 173.085 243.69 176.201C241.375 179.318 239.467 181.967 240.231 183.919C240.231 183.919 243.724 178.11 246.572 178.029C249.42 177.948 247.541 174.498 244.419 171.012Z" fill="#064564"/>
<path opacity="0.1" d="M244.419 171.012C244.557 171.213 244.667 171.433 244.744 171.664C247.517 174.922 248.993 177.963 246.327 178.038C243.845 178.11 240.867 182.549 240.153 183.671C240.176 183.758 240.204 183.843 240.236 183.927C240.236 183.927 243.73 178.119 246.578 178.038C249.426 177.957 247.54 174.498 244.419 171.012Z" fill="black"/>
<path d="M247.365 173.653C247.365 174.382 247.281 174.973 247.18 174.973C247.079 174.973 246.999 174.397 246.999 173.653C246.999 172.909 247.099 173.267 247.2 173.267C247.301 173.267 247.365 172.924 247.365 173.653Z" fill="#FFD037"/>
<path d="M248.374 174.524C247.734 174.872 247.174 175.083 247.128 174.994C247.082 174.904 247.558 174.552 248.198 174.204C248.838 173.855 248.587 174.109 248.636 174.204C248.685 174.299 249.014 174.175 248.374 174.524Z" fill="#FFD037"/>
<path d="M236.057 171.012C236.057 171.012 234.471 173.085 236.786 176.201C239.1 179.318 241.009 181.967 240.245 183.919C240.245 183.919 236.754 178.11 233.903 178.029C231.053 177.948 232.929 174.498 236.057 171.012Z" fill="#064564"/>
<path opacity="0.1" d="M236.057 171.012C235.918 171.213 235.808 171.433 235.731 171.664C232.958 174.922 231.482 177.963 234.148 178.038C236.63 178.11 239.608 182.549 240.323 183.671C240.299 183.758 240.271 183.844 240.236 183.927C240.236 183.927 236.745 178.119 233.895 178.038C231.044 177.957 232.929 174.498 236.057 171.012Z" fill="black"/>
<path d="M233.111 173.653C233.111 174.382 233.194 174.973 233.295 174.973C233.396 174.973 233.477 174.397 233.477 173.653C233.477 172.909 233.376 173.267 233.275 173.267C233.174 173.267 233.111 172.924 233.111 173.653Z" fill="#FFD037"/>
<path d="M232.102 174.524C232.742 174.872 233.298 175.083 233.347 174.994C233.396 174.904 232.918 174.552 232.278 174.204C231.638 173.855 231.889 174.109 231.84 174.204C231.791 174.299 231.462 174.175 232.102 174.524Z" fill="#FFD037"/>
<path d="M233.615 183.656C233.615 183.656 238.043 183.518 239.38 182.57C240.718 181.621 246.192 180.485 246.523 181.993C246.855 183.501 253.176 189.572 248.178 189.612C243.179 189.653 236.564 188.834 235.232 188.024C233.901 187.214 233.615 183.656 233.615 183.656Z" fill="#A8A8A8"/>
<path opacity="0.2" d="M248.264 189.096C243.266 189.137 236.65 188.318 235.319 187.508C234.304 186.891 233.898 184.674 233.765 183.651H233.615C233.615 183.651 233.903 187.222 235.229 188.032C236.555 188.843 243.176 189.661 248.175 189.621C249.616 189.621 250.115 189.096 250.089 188.338C249.887 188.802 249.336 189.088 248.264 189.096Z" fill="black"/>
</g>
<defs>
<linearGradient id="paint0_linear" x1="152.937" y1="202.608" x2="152.937" y2="6.31327" gradientUnits="userSpaceOnUse">
<stop stop-color="#808080" stop-opacity="0.25"/>
<stop offset="0.54" stop-color="#808080" stop-opacity="0.12"/>
<stop offset="1" stop-color="#808080" stop-opacity="0.1"/>
</linearGradient>
<clipPath id="clip0">
<rect width="291" height="221" fill="white"/>
</clipPath>
</defs>
</svg>
