<svg width="90" height="90" viewBox="0 0 90 90" fill="none" xmlns="http://www.w3.org/2000/svg">
<path d="M85.7812 46.4062V66.0938C85.779 66.839 85.482 67.5531 84.955 68.08C84.4281 68.607 83.714 68.904 82.9688 68.9062H49.2188V46.4062H85.7812Z" fill="#064564"/>
<path d="M85.7812 40.7812V46.4062H49.2188V37.9688H82.9688C83.714 37.971 84.4281 38.268 84.955 38.795C85.482 39.3219 85.779 40.036 85.7812 40.7812Z" fill="#FF6501"/>
<path d="M77.3438 63.2812C78.8971 63.2812 80.1562 62.0221 80.1562 60.4688C80.1562 58.9154 78.8971 57.6562 77.3438 57.6562C75.7904 57.6562 74.5312 58.9154 74.5312 60.4688C74.5312 62.0221 75.7904 63.2812 77.3438 63.2812Z" fill="#FF9811"/>
<path d="M71.7188 63.2812C73.2721 63.2812 74.5312 62.0221 74.5312 60.4688C74.5312 58.9154 73.2721 57.6562 71.7188 57.6562C70.1654 57.6562 68.9062 58.9154 68.9062 60.4688C68.9062 62.0221 70.1654 63.2812 71.7188 63.2812Z" fill="#FF3051"/>
<path d="M66.0938 18.2812V22.5C66.0938 24.3648 65.353 26.1532 64.0343 27.4718C62.7157 28.7905 60.9273 29.5312 59.0625 29.5312C57.1977 29.5312 55.4093 28.7905 54.0907 27.4718C52.772 26.1532 52.0312 24.3648 52.0312 22.5V18.2812H66.0938Z" fill="#BEE2F2"/>
<path d="M59.0625 29.5312H43.5938V26.7188C43.5938 25.2269 43.0011 23.7962 41.9462 22.7413C40.8913 21.6864 39.4606 21.0938 37.9688 21.0938V11.25C37.9688 9.3852 38.7095 7.59677 40.0282 6.27816C41.3468 4.95954 43.1352 4.21875 45 4.21875C46.8648 4.21875 48.6532 4.95954 49.9718 6.27816C51.2905 7.59677 52.0312 9.3852 52.0312 11.25V22.5C52.0312 24.3648 52.772 26.1532 54.0907 27.4718C55.4093 28.7905 57.1977 29.5312 59.0625 29.5312Z" fill="#FF6501"/>
<path d="M49.2188 68.9062V71.7188H43.5938V35.1562H49.2188V37.9688V46.4062V68.9062Z" fill="#57B793"/>
<path d="M15.4688 4.21878H45C44.0759 4.216 43.1603 4.39596 42.306 4.74833C41.4516 5.1007 40.6754 5.61851 40.0219 6.27198C39.3685 6.92544 38.8507 7.70167 38.4983 8.556C38.1459 9.41033 37.966 10.3259 37.9688 11.25V32.3438H9.84375V9.84378C9.84375 8.35194 10.4364 6.9212 11.4913 5.86631C12.5462 4.81141 13.9769 4.21878 15.4688 4.21878Z" fill="#BEE2F2"/>
<path d="M43.5938 26.7188V80.1562C43.5938 81.6481 43.0011 83.0788 41.9462 84.1337C40.8913 85.1886 39.4606 85.7812 37.9688 85.7812H9.84375C8.35191 85.7812 6.92117 85.1886 5.86627 84.1337C4.81138 83.0788 4.21875 81.6481 4.21875 80.1562V26.7188C4.21875 25.2269 4.81138 23.7962 5.86627 22.7413C6.92117 21.6864 8.35191 21.0938 9.84375 21.0938V32.3438H37.9688V21.0938C39.4606 21.0938 40.8913 21.6864 41.9462 22.7413C43.0011 23.7962 43.5938 25.2269 43.5938 26.7188Z" fill="#064564"/>
<path d="M32.3438 74.5312H37.9688V80.1562H32.3438V74.5312Z" fill="#FF6501"/>
<path d="M32.3438 63.2812H37.9688V68.9062H32.3438V63.2812Z" fill="#FF6501"/>
<path d="M32.3438 52.0312H37.9688V57.6562H32.3438V52.0312Z" fill="#FF6501"/>
<path d="M9.84375 40.7812H37.9688V46.4062H9.84375V40.7812Z" fill="#BEE2F2"/>
<path d="M21.0938 74.5312H26.7188V80.1562H21.0938V74.5312Z" fill="#FF6501"/>
<path d="M21.0938 63.2812H26.7188V68.9062H21.0938V63.2812Z" fill="#FF6501"/>
<path d="M21.0938 52.0312H26.7188V57.6562H21.0938V52.0312Z" fill="#FF6501"/>
<path d="M9.84375 74.5312H15.4688V80.1562H9.84375V74.5312Z" fill="#FF6501"/>
<path d="M9.84375 63.2812H15.4688V68.9062H9.84375V63.2812Z" fill="#FF6501"/>
<path d="M9.84375 52.0312H15.4688V57.6562H9.84375V52.0312Z" fill="#FF6501"/>
<path d="M82.9688 36.5625H50.625V35.1562C50.625 34.7833 50.4768 34.4256 50.2131 34.1619C49.9494 33.8982 49.5917 33.75 49.2188 33.75H45V30.9375H59.0625C61.2996 30.9353 63.4444 30.0456 65.0262 28.4637C66.6081 26.8819 67.4978 24.7371 67.5 22.5V18.2812C67.5 17.9083 67.3518 17.5506 67.0881 17.2869C66.8244 17.0232 66.4667 16.875 66.0938 16.875H53.4375V11.25C53.4353 9.01292 52.5456 6.86811 50.9637 5.28625C49.3819 3.7044 47.2371 2.81473 45 2.8125H15.4688C13.6046 2.81473 11.8175 3.55624 10.4994 4.87437C9.18124 6.1925 8.43973 7.97963 8.4375 9.84375V19.8281C6.85042 20.1545 5.42439 21.0181 4.39976 22.2732C3.37513 23.5284 2.81455 25.0985 2.8125 26.7188V80.1562C2.81473 82.0204 3.55624 83.8075 4.87437 85.1256C6.1925 86.4438 7.97963 87.1853 9.84375 87.1875H37.9688C39.8329 87.1853 41.62 86.4438 42.9381 85.1256C44.2563 83.8075 44.9978 82.0204 45 80.1562V73.125H49.2188C49.5917 73.125 49.9494 72.9768 50.2131 72.7131C50.4768 72.4494 50.625 72.0917 50.625 71.7188V70.3125H82.9688C84.0876 70.3125 85.1607 69.868 85.9519 69.0769C86.743 68.2857 87.1875 67.2126 87.1875 66.0938V40.7812C87.1875 39.6624 86.743 38.5893 85.9519 37.7981C85.1607 37.007 84.0876 36.5625 82.9688 36.5625ZM64.6875 22.5C64.6875 23.9918 64.0949 25.4226 63.04 26.4775C61.9851 27.5324 60.5543 28.125 59.0625 28.125C57.5707 28.125 56.1399 27.5324 55.085 26.4775C54.0301 25.4226 53.4375 23.9918 53.4375 22.5V19.6875H64.6875V22.5ZM11.25 9.84375C11.25 8.72487 11.6945 7.65181 12.4856 6.86064C13.2768 6.06947 14.3499 5.625 15.4688 5.625H38.7169C37.3284 7.16939 36.5609 9.17321 36.5625 11.25V30.9375H11.25V9.84375ZM42.1875 80.1562C42.1875 81.2751 41.743 82.3482 40.9519 83.1394C40.1607 83.9305 39.0876 84.375 37.9688 84.375H9.84375C8.72487 84.375 7.65181 83.9305 6.86064 83.1394C6.06947 82.3482 5.625 81.2751 5.625 80.1562V26.7188C5.6286 25.8493 5.90074 25.0022 6.40419 24.2934C6.90763 23.5845 7.61778 23.0486 8.4375 22.7588V32.3438C8.4375 32.7167 8.58566 33.0744 8.84938 33.3381C9.1131 33.6018 9.47079 33.75 9.84375 33.75H37.9688C38.3417 33.75 38.6994 33.6018 38.9631 33.3381C39.2268 33.0744 39.375 32.7167 39.375 32.3438V22.7588C40.1947 23.0486 40.9049 23.5845 41.4083 24.2934C41.9118 25.0022 42.1839 25.8493 42.1875 26.7188V80.1562ZM39.375 19.8281V11.25C39.375 9.75816 39.9676 8.32742 41.0225 7.27252C42.0774 6.21763 43.5082 5.625 45 5.625C46.4918 5.625 47.9226 6.21763 48.9775 7.27252C50.0324 8.32742 50.625 9.75816 50.625 11.25V22.5C50.6256 24.5785 51.3972 26.5828 52.7906 28.125H45V26.7188C44.998 25.0985 44.4374 23.5284 43.4127 22.2732C42.3881 21.0181 40.9621 20.1545 39.375 19.8281ZM47.8125 70.3125H45V36.5625H47.8125V70.3125ZM82.9688 39.375C83.3417 39.375 83.6994 39.5232 83.9631 39.7869C84.2268 40.0506 84.375 40.4083 84.375 40.7812V45H50.625V39.375H82.9688ZM82.9688 67.5H50.625V47.8125H84.375V66.0938C84.375 66.4667 84.2268 66.8244 83.9631 67.0881C83.6994 67.3518 83.3417 67.5 82.9688 67.5Z" fill="black"/>
<path d="M15.4688 50.625H9.84375C9.47079 50.625 9.1131 50.7732 8.84938 51.0369C8.58566 51.3006 8.4375 51.6583 8.4375 52.0312V57.6562C8.4375 58.0292 8.58566 58.3869 8.84938 58.6506C9.1131 58.9143 9.47079 59.0625 9.84375 59.0625H15.4688C15.8417 59.0625 16.1994 58.9143 16.4631 58.6506C16.7268 58.3869 16.875 58.0292 16.875 57.6562V52.0312C16.875 51.6583 16.7268 51.3006 16.4631 51.0369C16.1994 50.7732 15.8417 50.625 15.4688 50.625ZM14.0625 56.25H11.25V53.4375H14.0625V56.25Z" fill="black"/>
<path d="M26.7188 50.625H21.0938C20.7208 50.625 20.3631 50.7732 20.0994 51.0369C19.8357 51.3006 19.6875 51.6583 19.6875 52.0312V57.6562C19.6875 58.0292 19.8357 58.3869 20.0994 58.6506C20.3631 58.9143 20.7208 59.0625 21.0938 59.0625H26.7188C27.0917 59.0625 27.4494 58.9143 27.7131 58.6506C27.9768 58.3869 28.125 58.0292 28.125 57.6562V52.0312C28.125 51.6583 27.9768 51.3006 27.7131 51.0369C27.4494 50.7732 27.0917 50.625 26.7188 50.625ZM25.3125 56.25H22.5V53.4375H25.3125V56.25Z" fill="black"/>
<path d="M37.9688 50.625H32.3438C31.9708 50.625 31.6131 50.7732 31.3494 51.0369C31.0857 51.3006 30.9375 51.6583 30.9375 52.0312V57.6562C30.9375 58.0292 31.0857 58.3869 31.3494 58.6506C31.6131 58.9143 31.9708 59.0625 32.3438 59.0625H37.9688C38.3417 59.0625 38.6994 58.9143 38.9631 58.6506C39.2268 58.3869 39.375 58.0292 39.375 57.6562V52.0312C39.375 51.6583 39.2268 51.3006 38.9631 51.0369C38.6994 50.7732 38.3417 50.625 37.9688 50.625ZM36.5625 56.25H33.75V53.4375H36.5625V56.25Z" fill="black"/>
<path d="M15.4688 61.875H9.84375C9.47079 61.875 9.1131 62.0232 8.84938 62.2869C8.58566 62.5506 8.4375 62.9083 8.4375 63.2812V68.9062C8.4375 69.2792 8.58566 69.6369 8.84938 69.9006C9.1131 70.1643 9.47079 70.3125 9.84375 70.3125H15.4688C15.8417 70.3125 16.1994 70.1643 16.4631 69.9006C16.7268 69.6369 16.875 69.2792 16.875 68.9062V63.2812C16.875 62.9083 16.7268 62.5506 16.4631 62.2869C16.1994 62.0232 15.8417 61.875 15.4688 61.875ZM14.0625 67.5H11.25V64.6875H14.0625V67.5Z" fill="black"/>
<path d="M26.7188 61.875H21.0938C20.7208 61.875 20.3631 62.0232 20.0994 62.2869C19.8357 62.5506 19.6875 62.9083 19.6875 63.2812V68.9062C19.6875 69.2792 19.8357 69.6369 20.0994 69.9006C20.3631 70.1643 20.7208 70.3125 21.0938 70.3125H26.7188C27.0917 70.3125 27.4494 70.1643 27.7131 69.9006C27.9768 69.6369 28.125 69.2792 28.125 68.9062V63.2812C28.125 62.9083 27.9768 62.5506 27.7131 62.2869C27.4494 62.0232 27.0917 61.875 26.7188 61.875ZM25.3125 67.5H22.5V64.6875H25.3125V67.5Z" fill="black"/>
<path d="M37.9688 61.875H32.3438C31.9708 61.875 31.6131 62.0232 31.3494 62.2869C31.0857 62.5506 30.9375 62.9083 30.9375 63.2812V68.9062C30.9375 69.2792 31.0857 69.6369 31.3494 69.9006C31.6131 70.1643 31.9708 70.3125 32.3438 70.3125H37.9688C38.3417 70.3125 38.6994 70.1643 38.9631 69.9006C39.2268 69.6369 39.375 69.2792 39.375 68.9062V63.2812C39.375 62.9083 39.2268 62.5506 38.9631 62.2869C38.6994 62.0232 38.3417 61.875 37.9688 61.875ZM36.5625 67.5H33.75V64.6875H36.5625V67.5Z" fill="black"/>
<path d="M15.4688 73.125H9.84375C9.47079 73.125 9.1131 73.2732 8.84938 73.5369C8.58566 73.8006 8.4375 74.1583 8.4375 74.5312V80.1562C8.4375 80.5292 8.58566 80.8869 8.84938 81.1506C9.1131 81.4143 9.47079 81.5625 9.84375 81.5625H15.4688C15.8417 81.5625 16.1994 81.4143 16.4631 81.1506C16.7268 80.8869 16.875 80.5292 16.875 80.1562V74.5312C16.875 74.1583 16.7268 73.8006 16.4631 73.5369C16.1994 73.2732 15.8417 73.125 15.4688 73.125ZM14.0625 78.75H11.25V75.9375H14.0625V78.75Z" fill="black"/>
<path d="M26.7188 73.125H21.0938C20.7208 73.125 20.3631 73.2732 20.0994 73.5369C19.8357 73.8006 19.6875 74.1583 19.6875 74.5312V80.1562C19.6875 80.5292 19.8357 80.8869 20.0994 81.1506C20.3631 81.4143 20.7208 81.5625 21.0938 81.5625H26.7188C27.0917 81.5625 27.4494 81.4143 27.7131 81.1506C27.9768 80.8869 28.125 80.5292 28.125 80.1562V74.5312C28.125 74.1583 27.9768 73.8006 27.7131 73.5369C27.4494 73.2732 27.0917 73.125 26.7188 73.125ZM25.3125 78.75H22.5V75.9375H25.3125V78.75Z" fill="black"/>
<path d="M37.9688 73.125H32.3438C31.9708 73.125 31.6131 73.2732 31.3494 73.5369C31.0857 73.8006 30.9375 74.1583 30.9375 74.5312V80.1562C30.9375 80.5292 31.0857 80.8869 31.3494 81.1506C31.6131 81.4143 31.9708 81.5625 32.3438 81.5625H37.9688C38.3417 81.5625 38.6994 81.4143 38.9631 81.1506C39.2268 80.8869 39.375 80.5292 39.375 80.1562V74.5312C39.375 74.1583 39.2268 73.8006 38.9631 73.5369C38.6994 73.2732 38.3417 73.125 37.9688 73.125ZM36.5625 78.75H33.75V75.9375H36.5625V78.75Z" fill="black"/>
<path d="M37.9688 39.375H9.84375C9.47079 39.375 9.1131 39.5232 8.84938 39.7869C8.58566 40.0506 8.4375 40.4083 8.4375 40.7812V46.4062C8.4375 46.7792 8.58566 47.1369 8.84938 47.4006C9.1131 47.6643 9.47079 47.8125 9.84375 47.8125H37.9688C38.3417 47.8125 38.6994 47.6643 38.9631 47.4006C39.2268 47.1369 39.375 46.7792 39.375 46.4062V40.7812C39.375 40.4083 39.2268 40.0506 38.9631 39.7869C38.6994 39.5232 38.3417 39.375 37.9688 39.375ZM36.5625 45H11.25V42.1875H36.5625V45Z" fill="black"/>
<path d="M77.3439 56.2501C76.3027 56.2537 75.3002 56.6447 74.5314 57.3469C73.9266 56.7972 73.1752 56.435 72.3685 56.3044C71.5617 56.1737 70.7344 56.2801 69.987 56.6108C69.2396 56.9415 68.6043 57.4821 68.1584 58.167C67.7125 58.8519 67.4751 59.6516 67.4751 60.4688C67.4751 61.2861 67.7125 62.0858 68.1584 62.7707C68.6043 63.4556 69.2396 63.9962 69.987 64.3269C70.7344 64.6575 71.5617 64.764 72.3685 64.6333C73.1752 64.5026 73.9266 64.1404 74.5314 63.5907C75.0393 64.0523 75.6521 64.3831 76.3168 64.5542C76.9814 64.7254 77.6778 64.7318 78.3455 64.5729C79.0131 64.4141 79.632 64.0947 80.1483 63.6425C80.6646 63.1903 81.0628 62.619 81.3084 61.9781C81.5539 61.3372 81.6394 60.6461 81.5574 59.9647C81.4754 59.2833 81.2284 58.6322 80.8378 58.0679C80.4472 57.5035 79.9249 57.043 79.316 56.7262C78.7072 56.4094 78.0302 56.246 77.3439 56.2501ZM71.7189 61.8751C71.4408 61.8751 71.1689 61.7926 70.9376 61.6381C70.7064 61.4836 70.5261 61.2639 70.4197 61.007C70.3133 60.75 70.2854 60.4673 70.3397 60.1945C70.3939 59.9217 70.5279 59.6711 70.7245 59.4745C70.9212 59.2778 71.1718 59.1439 71.4446 59.0896C71.7173 59.0353 72.0001 59.0632 72.2571 59.1696C72.514 59.2761 72.7336 59.4563 72.8882 59.6876C73.0427 59.9188 73.1252 60.1907 73.1252 60.4688C73.1252 60.8418 72.977 61.1995 72.7133 61.4632C72.4496 61.7269 72.0919 61.8751 71.7189 61.8751ZM77.3439 61.8751C77.0658 61.8751 76.7939 61.7926 76.5626 61.6381C76.3314 61.4836 76.1511 61.2639 76.0447 61.007C75.9383 60.75 75.9104 60.4673 75.9647 60.1945C76.0189 59.9217 76.1529 59.6711 76.3495 59.4745C76.5462 59.2778 76.7968 59.1439 77.0696 59.0896C77.3423 59.0353 77.6251 59.0632 77.8821 59.1696C78.139 59.2761 78.3586 59.4563 78.5132 59.6876C78.6677 59.9188 78.7502 60.1907 78.7502 60.4688C78.7502 60.8418 78.602 61.1995 78.3383 61.4632C78.0746 61.7269 77.7169 61.8751 77.3439 61.8751Z" fill="black"/>
<path d="M14.0625 11.25H16.875V14.0625H14.0625V11.25Z" fill="black"/>
<path d="M19.6875 11.25H33.75V14.0625H19.6875V11.25Z" fill="black"/>
<path d="M14.0625 16.875H33.75V19.6875H14.0625V16.875Z" fill="black"/>
<path d="M14.0625 22.5H33.75V25.3125H14.0625V22.5Z" fill="black"/>
</svg>
