<svg width="120" height="120" viewBox="0 0 120 120" fill="none" xmlns="http://www.w3.org/2000/svg">
<g clip-path="url(#clip0)">
<path d="M100.875 101.251H63.375L71.6466 69.8197C71.9628 68.6181 72.6679 67.555 73.6519 66.7964C74.636 66.0378 75.8434 65.6263 77.0859 65.6262H102.953C103.814 65.6262 104.663 65.8237 105.435 66.2035C106.208 66.5833 106.883 67.1353 107.408 67.8169C107.934 68.4986 108.296 69.2918 108.466 70.1353C108.637 70.9789 108.612 71.8504 108.393 72.6828L100.875 101.251Z" fill="#064564"/>
<path d="M95.2503 46.8762L100.875 43.1262L85.9165 28.5329L93.3753 18.7512L108.933 30.4193C111.088 32.036 112.838 34.1323 114.043 36.5423C115.248 38.9523 115.875 41.6097 115.875 44.3042C115.875 47.3641 115.067 50.3697 113.531 53.0163C111.995 55.6629 109.787 57.8564 107.13 59.3745L102.75 61.8762L95.2503 46.8762Z" fill="#FCB079"/>
<path d="M37.1253 41.2512L52.1253 35.6262L48.3753 26.2512L72.7503 22.5012L74.6253 11.2512H46.1825C43.4943 11.2511 40.8652 12.0398 38.621 13.5196C36.3768 14.9994 34.6162 17.1053 33.5574 19.5762C32.2322 22.6682 32.0878 26.1391 33.1517 29.3304L37.1253 41.2512Z" fill="#FCB079"/>
<path d="M71.1149 12.1653L60.103 21.3563L64.0562 23.0021L59.8213 32.72C59.5996 33.2307 59.4824 33.7807 59.4763 34.3374C59.4703 34.8942 59.5756 35.4465 59.7861 35.962C59.9966 36.4774 60.308 36.9456 60.7021 37.339C61.0961 37.7324 61.5648 38.043 62.0806 38.2526L66.0341 39.8986L60.1044 53.5027L75.9179 60.0863L92.8592 21.2171L71.1149 12.1653Z" fill="#FCB079"/>
<path d="M94.5514 17.3309L86.9295 34.82L85.5162 27.3458L78.6607 40.2153C77.9793 41.4944 76.8304 42.4612 75.4537 42.914C74.0769 43.3668 72.5785 43.2707 71.2709 42.6458L62.081 38.2513C61.5651 38.0419 61.0963 37.7315 60.7022 37.3383C60.3081 36.9451 59.9966 36.477 59.786 35.9616C59.5755 35.4462 59.4702 34.8939 59.4763 34.3372C59.4824 33.7805 59.5999 33.2307 59.8217 32.72L61.1599 29.6473L62.8568 25.7591L64.0568 23.0028L73.9404 27.1161L83.142 20.6661C83.4336 20.4617 83.6688 20.187 83.8257 19.8673C83.9827 19.5477 84.0563 19.1936 84.0397 18.8379C84.0231 18.4822 83.9168 18.1365 83.7308 17.8328C83.5447 17.5292 83.285 17.2776 82.9756 17.1013L71.1138 12.1653C69.9605 11.6927 68.9732 10.8887 68.2769 9.85487C67.5806 8.82106 67.2065 7.60394 67.2021 6.3575C67.2031 5.49992 67.381 4.65176 67.7248 3.8661C68.4183 2.31028 69.693 1.08758 71.2764 0.459491C72.8597 -0.168595 74.626 -0.152205 76.1974 0.505157L90.0326 6.26375C91.0646 6.68288 92.0023 7.30415 92.7906 8.09101C93.5789 8.87788 94.2019 9.81444 94.6229 10.8456C95.044 11.8768 95.2545 12.9818 95.2422 14.0955C95.2299 15.2093 94.995 16.3093 94.5514 17.3309Z" fill="#2C1105"/>
<path d="M69.999 20.8263L71.695 16.9384L75.1337 18.4384L73.4378 22.3263L69.999 20.8263Z" fill="#2C1105"/>
<path d="M37.125 41.2512L52.125 35.6262L57.75 46.8762L82.125 54.3762L95.25 46.8762L102.75 61.8762L87.75 73.1262L78.375 101.251H31.5L42.75 58.1262L37.125 41.2512Z" fill="#BEE2F2"/>
<path d="M69.961 30.9083C69.0238 31.5725 67.8958 31.9131 66.7477 31.8786C65.7806 31.8703 64.8227 31.6902 63.9188 31.3465C62.8933 30.9736 61.9546 30.3954 61.1602 29.6473L62.857 25.759C63.0375 26.2442 63.5484 27.1512 65.2242 27.8333C66.5086 28.3536 67.4625 28.0981 67.6899 27.9223L69.961 30.9083Z" fill="#FCB079"/>
<path d="M9 101.251H117.75V108.751H9V101.251Z" fill="#2C1105"/>
<path d="M16.5 93.7512H72.75V101.251H16.5V93.7512Z" fill="#CECECC"/>
<path d="M51.1406 101.251H19.3809C18.5547 101.251 17.7516 100.978 17.0964 100.475C16.4412 99.9715 15.9706 99.2659 15.7577 98.4675L9.11203 73.546C9.03769 73.2673 9.00003 72.9801 9 72.6917C9 72.2563 9.08576 71.8252 9.25237 71.4229C9.41899 71.0207 9.66321 70.6552 9.97108 70.3473C10.2789 70.0394 10.6444 69.7952 11.0467 69.6286C11.4489 69.462 11.8801 69.3762 12.3155 69.3762H45.405C46.2501 69.3764 47.0704 69.662 47.7329 70.1867C48.3953 70.7115 48.8611 71.4446 49.0547 72.2672L54.7901 96.6422C54.9196 97.1926 54.923 97.7652 54.8 98.317C54.677 98.8689 54.4307 99.3858 54.0797 99.8291C53.7288 100.272 53.2821 100.631 52.7731 100.877C52.2641 101.123 51.706 101.251 51.1406 101.251Z" fill="#DFDFDD"/>
<path d="M34.3529 88.9136C35.7223 87.4808 35.5638 85.1069 33.999 83.6113C32.4341 82.1157 30.0554 82.0648 28.686 83.4976C27.3167 84.9304 27.4751 87.3043 29.04 88.7999C30.6048 90.2955 32.9835 90.3464 34.3529 88.9136Z" fill="#F1F1F1"/>
<path d="M93.375 76.8762H110.25V101.251H93.375V76.8762Z" fill="#FF6501"/>
<path d="M115.024 80.6262H110.25V84.3762H115.024C115.25 84.3765 115.466 84.4662 115.626 84.6257C115.785 84.7852 115.875 85.0014 115.875 85.227V92.9004C115.875 93.126 115.785 93.3423 115.626 93.5018C115.466 93.6613 115.25 93.751 115.024 93.7512H110.25V97.5012H115.024C116.244 97.4999 117.413 97.0147 118.276 96.1522C119.138 95.2897 119.624 94.1202 119.625 92.9004V85.227C119.624 84.0072 119.138 82.8378 118.276 81.9753C117.413 81.1127 116.244 80.6276 115.024 80.6262Z" fill="#FF6501"/>
</g>
<defs>
<clipPath id="clip0">
<rect width="120" height="120" fill="white"/>
</clipPath>
</defs>
</svg>
