<svg width="100" height="99" viewBox="0 0 100 99" fill="none" xmlns="http://www.w3.org/2000/svg">
<g clip-path="url(#clip0)">
<path d="M9.62504 32.7417C8.4196 33.464 6.70145 32.2026 5.48417 33.0858C4.79366 33.5214 3.87049 32.643 4.57285 32.0462C5.2752 31.4493 5.94201 31.3362 6.77255 31.2351C7.6031 31.134 8.93671 30.9078 9.71985 31.4517C10.1874 31.8103 10.14 32.4553 9.62504 32.7417Z" fill="#FF6501"/>
<path d="M22.1286 32.8501C21.2862 33.1124 20.4793 32.891 19.6725 32.6696C18.6901 32.5974 17.8832 32.376 16.9008 32.3038C16.0821 32.2436 16.165 31.1149 16.9837 31.175C17.978 31.0862 18.7967 31.1464 19.7791 31.2186C20.5978 31.2788 21.5921 31.1897 22.2352 31.3991C22.8665 31.7695 22.8072 32.5757 22.1286 32.8501Z" fill="#FF6501"/>
<path d="M34.8409 34.595C32.6886 34.7613 30.9704 33.4999 28.8537 33.1822C28.1987 33.1341 28.2698 32.1666 28.9248 32.2147C29.7435 32.2749 30.7141 32.5084 31.5327 32.5685C32.6671 32.8138 33.8133 32.898 34.9357 33.305C35.5907 33.3531 35.5077 34.4819 34.8409 34.595Z" fill="#FF6501"/>
<path d="M45.9016 38.6502C45.1066 38.2676 44.6746 37.4252 44.0552 36.8933C43.4358 36.3615 42.8046 35.9908 41.9978 35.7694C41.3546 35.56 41.7414 34.7779 42.2326 34.814C43.0631 34.7129 43.8581 35.0956 44.6531 35.4782C45.4363 36.0221 46.5232 36.9126 46.7914 37.7429C47.0717 38.412 46.5331 39.0209 45.9016 38.6502Z" fill="#FF6501"/>
<path d="M54.4408 50.1397C53.6577 49.5958 53.5532 48.7775 53.285 47.9472C52.8767 46.7824 52.1291 45.7547 51.5453 44.7391C51.0896 44.2193 51.8035 43.4611 52.4232 43.993C53.1829 44.8595 53.9421 45.7259 54.5378 46.5802C54.9697 47.4226 55.8692 48.6235 55.6344 49.579C55.4354 50.0507 54.9083 50.4983 54.4408 50.1397Z" fill="#FF6501"/>
<path d="M56.3495 60.0072C56.1386 60.6401 54.9922 60.5559 55.0396 59.9109C54.8425 58.1131 55.4522 56.5367 54.752 54.8641C54.6238 54.3683 55.3025 54.094 55.5947 54.6018C56.3065 56.1132 56.8192 58.0963 56.3495 60.0072Z" fill="#FF6501"/>
<path d="M52.1384 72.505C51.5761 73.4364 50.1614 72.5218 50.724 71.5905C51.4853 70.1874 52.5744 68.8083 53.0207 67.2199C53.0681 66.5749 54.0505 66.6472 54.0031 67.2921C54.0368 69.0779 53.2393 70.9647 52.1384 72.505Z" fill="#FF6501"/>
<path d="M45.8431 75.2847C45.2808 76.2161 44.5666 76.9742 43.5486 77.3857C42.6943 77.8093 41.1733 78.346 40.4139 77.4796C40.1101 77.133 40.1456 76.6493 40.485 76.5121C41.0117 76.0644 41.9823 76.2979 42.6491 76.1848C43.6553 75.9345 44.3576 75.3376 44.9081 74.5675C45.2951 73.7853 46.2298 74.5025 45.8431 75.2847Z" fill="#FF6501"/>
<path d="M32.3197 77.8575C31.3373 77.7853 30.2029 77.5398 29.2442 77.1451C28.7648 76.9477 28.4848 76.2787 29.0115 75.831C29.3627 75.5326 30.3451 75.6048 30.8245 75.8022C31.152 75.8262 31.292 76.1608 31.2683 76.4833C31.584 76.6686 32.0752 76.7047 32.4026 76.7288C33.2213 76.7889 33.1384 77.9177 32.3197 77.8575Z" fill="#FF6501"/>
<path d="M23.4133 71.3666C22.1034 71.2703 20.9809 70.8636 20.2215 69.9972C19.7658 69.4773 19.4739 68.9695 19.3457 68.4737C19.0656 67.8047 18.6337 66.9623 18.6811 66.3173C18.7285 65.6724 19.7583 65.0996 20.2021 65.7807C20.8097 66.4738 20.8786 67.7758 21.3106 68.6181C21.7307 69.6217 22.5257 70.0044 23.4963 70.2379C24.1512 70.286 24.2436 71.2655 23.4133 71.3666Z" fill="#FF6501"/>
<path d="M20.5242 59.1575C19.4609 57.9445 19.5795 56.332 19.5224 54.8688C19.5461 54.5463 19.7335 54.2358 20.0728 54.0986C20.4122 53.9615 20.5759 53.9735 20.8915 54.1588C21.2072 54.3441 21.3472 54.6787 21.3235 55.0012C21.0768 56.1179 20.8064 57.557 21.554 58.5847C21.6822 59.0805 20.9798 59.6773 20.5242 59.1575Z" fill="#FF6501"/>
<path d="M23.6482 45.769C23.4252 46.5635 23.2023 47.3574 22.9793 48.1516C22.9437 48.6354 22.125 48.5752 22.1606 48.0915C22.0679 47.1119 21.9753 46.1324 22.2101 45.177C22.2694 44.3707 22.6798 43.2661 23.6741 43.177C24.1653 43.2131 24.6447 43.4105 24.6091 43.8942C24.3859 44.6881 23.8591 45.1358 23.6482 45.769Z" fill="#FF6501"/>
<path d="M30.5818 36.5516C29.189 37.584 27.3286 38.2579 26.8707 40.0075C26.8352 40.4913 26.0165 40.4311 26.0521 39.9474C26.1943 38.0124 28.1613 35.8873 29.998 35.5359C30.6648 35.4228 31.1083 36.1039 30.5818 36.5516Z" fill="#FF6501"/>
<path d="M42.9752 29.1944C41.4304 30.0536 39.4182 30.5542 37.7215 31.2401C37.0428 31.5147 36.6109 30.6721 37.2896 30.3977C38.9981 29.5506 40.7184 28.5422 42.7307 28.0416C43.2456 27.7552 43.6538 28.92 42.9752 29.1944Z" fill="#FF6501"/>
<path d="M57.2201 30.2414C55.2078 30.742 52.6354 29.9044 50.9053 28.8046C50.2741 28.4337 50.8364 27.5026 51.4792 27.7119C53.3849 28.6626 55.3853 28.3232 57.3146 28.9514C57.7824 29.31 57.7231 30.1163 57.2201 30.2414Z" fill="#FF6501"/>
<path d="M72.0377 32.4652C71.2306 32.2437 70.4359 31.8611 69.4653 31.6276C68.6582 31.4062 67.8516 31.1848 67.0445 30.9634C66.5651 30.766 66.6125 30.1208 67.1156 29.9959C69.1044 29.8176 71.2446 29.813 72.7872 31.2233C73.5703 31.7672 72.6805 32.6745 72.0377 32.4652Z" fill="#FF6501"/>
<path d="M84.8209 33.2426C84.1659 33.1944 83.5347 32.8238 82.8916 32.6144C81.921 32.3809 80.9149 32.6312 80.0725 32.8936C79.2301 33.1559 78.8337 31.8298 79.6761 31.5675C81.3727 30.8813 84.3677 30.4529 85.5707 32.0007C85.8626 32.5085 85.6277 33.464 84.8209 33.2426Z" fill="#FF6501"/>
<path d="M96.8428 35.4231C94.9353 36.7419 92.8754 37.8872 90.9794 39.0451C89.0835 40.2027 86.8127 41.9812 84.6482 42.3085C83.654 42.3973 82.5789 41.3456 83.3168 40.265C84.4059 38.8859 86.1025 38.2003 87.6473 37.3411C89.5314 36.3448 91.4273 35.1869 93.1477 34.1785C88.6363 30.6048 83.7855 27.1681 79.8127 22.985C79.0533 22.1186 80.3061 20.7516 81.2412 21.4688C86.2082 25.5626 91.5265 29.3579 96.8563 32.992C97.4762 33.5242 97.7092 34.8383 96.8428 35.4231Z" fill="#FF6501"/>
</g>
<defs>
<clipPath id="clip0">
<rect width="92.9728" height="91.5583" fill="white" transform="matrix(0.99731 0.0732976 0.0732976 -0.99731 0 91.312)"/>
</clipPath>
</defs>
</svg>
