<svg width="147" height="108" viewBox="0 0 147 108" fill="none" xmlns="http://www.w3.org/2000/svg">
<path d="M125.093 107.648V95.6719C125.093 95.6719 129.77 104.162 125.093 107.648Z" fill="#F1F1F1"/>
<path d="M125.381 107.645L116.541 99.5466C116.541 99.5466 125.971 101.85 125.381 107.645Z" fill="#F1F1F1"/>
<path d="M31.7167 0H10.5722L0 18.2734L10.5722 36.547H31.7167L42.2889 18.2734L31.7167 0Z" fill="#E6E6E6"/>
<path d="M11.7591 34.4959H30.5302L39.9157 18.2735L30.5302 2.05115H11.7591L2.37354 18.2735L11.7591 34.4959Z" fill="white"/>
<path d="M11.532 14.2983C12.0102 14.2983 12.398 13.9114 12.398 13.4341C12.398 12.9568 12.0102 12.5699 11.532 12.5699C11.0537 12.5699 10.666 12.9568 10.666 13.4341C10.666 13.9114 11.0537 14.2983 11.532 14.2983Z" fill="#E2E2E2"/>
<path d="M11.532 19.1376C12.0102 19.1376 12.398 18.7507 12.398 18.2735C12.398 17.7962 12.0102 17.4093 11.532 17.4093C11.0537 17.4093 10.666 17.7962 10.666 18.2735C10.666 18.7507 11.0537 19.1376 11.532 19.1376Z" fill="#E2E2E2"/>
<path d="M11.532 23.977C12.0102 23.977 12.398 23.5901 12.398 23.1128C12.398 22.6356 12.0102 22.2487 11.532 22.2487C11.0537 22.2487 10.666 22.6356 10.666 23.1128C10.666 23.5901 11.0537 23.977 11.532 23.977Z" fill="#E2E2E2"/>
<path d="M31.6229 12.7428H15.1694V14.1255H31.6229V12.7428Z" fill="#E2E2E2"/>
<path d="M31.6229 17.5822H15.1694V18.9648H31.6229V17.5822Z" fill="#E2E2E2"/>
<path d="M31.6229 22.4214H15.1694V23.8041H31.6229V22.4214Z" fill="#E2E2E2"/>
<path d="M136.428 0H115.283L104.711 18.2734L115.283 36.547H136.428L147 18.2734L136.428 0Z" fill="#E6E6E6"/>
<path d="M116.47 34.4959H135.241L144.627 18.2735L135.241 2.05115H116.47L107.084 18.2735L116.47 34.4959Z" fill="white"/>
<path d="M116.243 14.2983C116.722 14.2983 117.109 13.9114 117.109 13.4341C117.109 12.9568 116.722 12.5699 116.243 12.5699C115.765 12.5699 115.377 12.9568 115.377 13.4341C115.377 13.9114 115.765 14.2983 116.243 14.2983Z" fill="#E2E2E2"/>
<path d="M116.243 19.1376C116.722 19.1376 117.109 18.7507 117.109 18.2735C117.109 17.7962 116.722 17.4093 116.243 17.4093C115.765 17.4093 115.377 17.7962 115.377 18.2735C115.377 18.7507 115.765 19.1376 116.243 19.1376Z" fill="#E2E2E2"/>
<path d="M116.243 23.977C116.722 23.977 117.109 23.5901 117.109 23.1128C117.109 22.6356 116.722 22.2487 116.243 22.2487C115.765 22.2487 115.377 22.6356 115.377 23.1128C115.377 23.5901 115.765 23.977 116.243 23.977Z" fill="#E2E2E2"/>
<path d="M136.334 12.7428H119.88V14.1255H136.334V12.7428Z" fill="#E2E2E2"/>
<path d="M136.334 17.5822H119.88V18.9648H136.334V17.5822Z" fill="#E2E2E2"/>
<path d="M136.334 22.4214H119.88V23.8041H136.334V22.4214Z" fill="#E2E2E2"/>
<path d="M83.9692 0.17749H63.03L52.5605 18.2734L63.03 36.3695H83.9692L94.439 18.2734L83.9692 0.17749Z" fill="#E6E6E6"/>
<path d="M64.2055 34.3383H82.7943L92.0887 18.2734L82.7943 2.20862H64.2055L54.9111 18.2734L64.2055 34.3383Z" fill="white"/>
<path d="M63.9811 14.3369C64.4547 14.3369 64.8387 13.9538 64.8387 13.4811C64.8387 13.0085 64.4547 12.6254 63.9811 12.6254C63.5075 12.6254 63.1235 13.0085 63.1235 13.4811C63.1235 13.9538 63.5075 14.3369 63.9811 14.3369Z" fill="#064564"/>
<path d="M63.9811 19.1293C64.4547 19.1293 64.8387 18.7461 64.8387 18.2735C64.8387 17.8009 64.4547 17.4177 63.9811 17.4177C63.5075 17.4177 63.1235 17.8009 63.1235 18.2735C63.1235 18.7461 63.5075 19.1293 63.9811 19.1293Z" fill="#064564"/>
<path d="M63.9811 23.9216C64.4547 23.9216 64.8387 23.5385 64.8387 23.0659C64.8387 22.5932 64.4547 22.2101 63.9811 22.2101C63.5075 22.2101 63.1235 22.5932 63.1235 23.0659C63.1235 23.5385 63.5075 23.9216 63.9811 23.9216Z" fill="#064564"/>
<path d="M83.8766 12.7965H67.583V14.1657H83.8766V12.7965Z" fill="#064564"/>
<path d="M83.8766 17.5889H67.583V18.9581H83.8766V17.5889Z" fill="#064564"/>
<path d="M83.8766 22.3812H67.583V23.7505H83.8766V22.3812Z" fill="#064564"/>
<path d="M91.3509 105.907L89.3171 105.906L88.3496 98.078L91.3513 98.0782L91.3509 105.907Z" fill="#9F616A"/>
<path d="M91.8699 107.874L85.312 107.874V107.791C85.3121 107.115 85.581 106.467 86.0597 105.99C86.5384 105.512 87.1876 105.244 87.8645 105.244H87.8647L91.87 105.244L91.8699 107.874Z" fill="#064564"/>
<path d="M110.263 105.907L108.229 105.906L107.262 98.078L110.263 98.0782L110.263 105.907Z" fill="#9F616A"/>
<path d="M110.781 107.874L104.224 107.874V107.791C104.224 107.115 104.493 106.467 104.971 105.99C105.45 105.512 106.099 105.244 106.776 105.244H106.776L110.782 105.244L110.781 107.874Z" fill="#064564"/>
<path d="M90.5406 66.1794C90.5406 66.1794 88.8335 70.8034 89.0774 72.7504C89.3212 74.6973 87.3702 88.3259 87.6141 89.5427C87.858 90.7596 87.3702 96.8437 87.6141 97.8172C87.858 98.7907 86.9296 99.9534 87.4174 100.927C87.9051 101.9 88.5896 103.901 88.5896 103.901L91.76 103.658L92.2477 100.981C92.2477 100.981 93.711 100.738 93.4671 99.2774C93.2232 97.8172 94.6865 88.0825 94.6865 88.0825L98.8324 74.4539L104.685 86.8657C104.685 86.8657 104.929 95.6269 105.661 96.6004C106.392 97.5738 104.929 100.251 105.661 101.224C106.392 102.198 107.124 103.901 107.124 103.901H110.782V101.954C110.782 101.954 112.977 100.738 110.782 97.0871L109.299 75.1642L107.836 65.1862L90.5406 66.1794Z" fill="#064564"/>
<path d="M99.6317 35.5783C102.147 35.5783 104.187 33.5432 104.187 31.0328C104.187 28.5224 102.147 26.4873 99.6317 26.4873C97.116 26.4873 95.0767 28.5224 95.0767 31.0328C95.0767 33.5432 97.116 35.5783 99.6317 35.5783Z" fill="#A0616A"/>
<path d="M95.7558 30.7192C96.0772 31.5387 96.3986 32.3582 96.7201 33.1777C97.1152 34.1851 97.5677 35.2629 98.4939 35.8252C99.6375 36.5193 101.165 36.1809 102.271 35.4289C103.266 34.7526 104.03 33.7886 104.46 32.6665C104.889 31.5444 104.965 30.3178 104.676 29.1516C104.387 27.9854 103.747 26.9353 102.843 26.1425C101.938 25.3497 100.812 24.8521 99.6162 24.7165L99.5704 25.5393L98.5586 24.693C98.4837 24.8211 98.3808 24.9307 98.2575 25.0134C98.1341 25.0961 97.9936 25.1499 97.8464 25.1707C97.6993 25.1915 97.5493 25.1787 97.4078 25.1333C97.2663 25.088 97.137 25.0112 97.0295 24.9088C97.2953 25.4586 96.9885 26.1291 96.5455 26.5503C96.0013 27.0677 94.4447 27.6895 94.5093 28.6144C94.5524 29.2317 95.5049 30.0796 95.7558 30.7192Z" fill="#064564"/>
<path d="M112.17 72.9033C112.327 72.6696 112.431 72.4044 112.474 72.1263C112.517 71.8482 112.499 71.5641 112.42 71.294C112.341 71.0238 112.204 70.7742 112.018 70.5626C111.832 70.3511 111.602 70.1828 111.344 70.0697L111.435 65.6724L108.77 64.9655L108.729 71.1771C108.568 71.6224 108.575 72.1116 108.751 72.5517C108.926 72.9919 109.257 73.3526 109.681 73.5654C110.106 73.7781 110.593 73.8283 111.052 73.7063C111.511 73.5843 111.908 73.2986 112.17 72.9033Z" fill="#9F616A"/>
<path d="M103.016 38.3876C103.016 38.3876 99.4861 36.6264 96.1525 37.8006C92.8188 38.9747 91.0539 40.3445 91.0539 40.3445L93.211 51.6945L90.2695 66.9583C90.2695 66.9583 105.369 65.7841 106.742 66.9583C108.114 68.1324 108.114 65.5884 108.114 65.5884L106.938 51.1074L109.095 41.9101L103.016 38.3876Z" fill="#BEE2F2"/>
<path d="M88.1175 73.1636C88.3339 72.9833 88.5081 72.7578 88.6277 72.503C88.7473 72.2482 88.8095 71.9703 88.8099 71.6889C88.8103 71.4076 88.7488 71.1295 88.6299 70.8744C88.511 70.6193 88.3374 70.3933 88.1215 70.2124L89.446 66.0175L87.0877 64.5925L85.3007 70.5427C85.0201 70.9249 84.8898 71.3965 84.9344 71.8681C84.9789 72.3397 85.1953 72.7787 85.5425 73.1017C85.8897 73.4248 86.3436 73.6095 86.8182 73.6209C87.2928 73.6323 87.7551 73.4696 88.1175 73.1636Z" fill="#9F616A"/>
<path d="M92.4261 40.3446H91.0534C91.0534 40.3446 88.8963 41.7144 88.8963 43.6713C88.8963 45.6282 85.7588 68.5239 85.7588 68.5239L89.0925 69.1109L92.0339 53.0644L94.191 48.7592L92.4261 40.3446Z" fill="#BEE2F2"/>
<path d="M105.369 41.91H109.095C109.095 41.91 110.271 43.0842 110.859 45.8238C111.448 48.5635 112.036 59.3264 112.036 59.3264L111.644 69.1108H108.702L108.31 56.391L106.349 48.1721L105.369 41.91Z" fill="#BEE2F2"/>
<path d="M133.517 108H70.3119C70.2679 108 70.2257 107.983 70.1946 107.952C70.1635 107.921 70.146 107.878 70.146 107.834C70.146 107.791 70.1635 107.748 70.1946 107.717C70.2257 107.686 70.2679 107.669 70.3119 107.669H133.517C133.561 107.669 133.603 107.686 133.634 107.717C133.665 107.748 133.683 107.791 133.683 107.834C133.683 107.878 133.665 107.921 133.634 107.952C133.603 107.983 133.561 108 133.517 108Z" fill="#CBCBCB"/>
</svg>
