<svg width="117" height="87" viewBox="0 0 117 87" fill="none" xmlns="http://www.w3.org/2000/svg">
<g clip-path="url(#clip0)">
<path d="M84.1944 51.6115L85.1148 51.0415C85.2023 50.9859 85.2886 50.9265 85.3773 50.8709C83.4032 50.5302 81.6043 49.5233 80.2783 48.0168C78.9522 46.5104 78.1786 44.5947 78.0855 42.5869C78.0178 41.2061 78.278 39.8288 78.8445 38.5686C79.372 37.3895 80.1508 36.3408 81.126 35.4965C82.1013 34.6523 83.2492 34.033 84.4889 33.6823L84.4433 37.3173L86.4332 33.3608C86.4414 33.3595 86.4497 33.3595 86.4579 33.3608C87.611 33.3068 88.7634 33.4812 89.8494 33.8741C90.9353 34.267 91.9335 34.8708 92.7869 35.6508C93.6403 36.4308 94.3323 37.3719 94.8233 38.4203C95.3142 39.4687 95.5946 40.6039 95.6484 41.761C95.6558 41.9291 95.6484 42.0948 95.6484 42.2556C96.3408 41.463 96.9692 40.6136 97.3857 39.6826C98.2285 37.7971 98.2482 35.6618 98.1779 33.0666C98.0449 27.9231 97.8243 22.7413 97.536 17.5743C95.4583 17.3428 93.531 16.3754 92.1003 14.8459C90.6696 13.3164 89.8293 11.3252 89.7304 9.22981C89.7181 8.95903 89.7218 8.6932 89.7304 8.42861C89.7304 8.36308 89.7304 8.29632 89.7403 8.23079C89.7575 7.97485 89.7809 7.72139 89.8204 7.47163C89.8204 7.42959 89.8351 7.39003 89.8425 7.34799C89.8787 7.13615 89.9218 6.92678 89.9719 6.71989C89.9916 6.64323 90.0101 6.56534 90.0311 6.48868C90.0927 6.26366 90.1543 6.04234 90.2393 5.82349C90.2652 5.75055 90.296 5.68007 90.3231 5.60836C90.3859 5.44763 90.4537 5.28937 90.5251 5.13234C90.5633 5.0495 90.6003 4.9679 90.641 4.88506C90.6508 4.86404 90.6594 4.84302 90.6705 4.822C91.5982 2.98326 93.1387 1.52886 95.0242 0.711614C96.9096 -0.105634 99.0209 -0.234056 100.991 0.34867L100.932 5.07918L102.903 1.17212C104.52 2.10094 105.799 3.52424 106.553 5.23415C107.306 6.94405 107.496 8.85098 107.092 10.6764H107.102C107.089 10.7395 107.069 10.8 107.054 10.8619C107.027 10.9781 106.998 11.0931 106.966 11.2081C106.924 11.3552 106.877 11.4999 106.829 11.6445C106.792 11.7521 106.756 11.8621 106.715 11.9685C106.656 12.1242 106.592 12.2763 106.521 12.4284C106.481 12.5174 106.446 12.6077 106.398 12.6955C106.285 12.923 106.162 13.1455 106.028 13.3631C105.982 13.4385 105.931 13.5103 105.882 13.5857C105.789 13.7316 105.694 13.8762 105.592 14.0172C105.529 14.1037 105.461 14.1866 105.395 14.2719C105.298 14.3955 105.2 14.5192 105.098 14.6317C105.025 14.7145 104.951 14.7961 104.875 14.879C104.767 14.9927 104.657 15.1028 104.542 15.2116C104.467 15.2845 104.39 15.3575 104.312 15.4267C104.182 15.5417 104.047 15.6517 103.91 15.7593C103.841 15.8137 103.774 15.8706 103.703 15.9225C103.495 16.0775 103.28 16.2229 103.058 16.3589C103.017 16.3837 102.972 16.4047 102.935 16.4294C102.75 16.5395 102.566 16.6421 102.367 16.7385C102.285 16.7793 102.198 16.8152 102.113 16.8535C101.954 16.9252 101.794 16.9945 101.63 17.0575C101.536 17.0934 101.438 17.1268 101.341 17.1601C101.179 17.2158 101.016 17.2665 100.848 17.3122C100.749 17.3394 100.652 17.3666 100.552 17.3901C100.372 17.4334 100.189 17.4692 100.004 17.5002C99.9916 17.5002 99.9805 17.5002 99.9682 17.5076C100.09 19.6869 100.198 21.8676 100.292 24.0494C100.816 22.9698 101.555 22.009 102.462 21.226C103.369 20.443 104.427 19.8543 105.569 19.496C106.711 19.1377 107.914 19.0173 109.104 19.1423C110.295 19.2672 111.447 19.6349 112.49 20.2227L110.937 24.4945L114.133 21.4146C115.844 22.9883 116.863 25.1786 116.967 27.5052C117.007 28.3215 116.932 29.1396 116.744 29.9347C116.342 31.6555 115.435 33.2155 114.139 34.4123C112.843 35.609 111.218 36.3874 109.476 36.6464C107.734 36.9053 105.955 36.6329 104.369 35.8645C102.782 35.0961 101.463 33.8671 100.582 32.3371C100.582 32.5584 100.598 32.7809 100.604 33.0023C100.662 35.2921 100.735 38.1408 99.5974 40.6853C98.8273 42.4101 97.5865 43.811 96.3605 45.0659C95.5633 45.8832 94.7366 46.6732 93.8889 47.4386C93.0554 48.5617 91.9674 49.4695 90.7149 50.087C89.3226 51.1635 87.881 52.1716 86.3901 53.1112L85.4845 53.6973C84.6478 54.2178 83.7903 54.752 82.9487 55.3046C83.0966 55.2898 83.2432 55.2737 83.3935 55.2675C85.2563 55.18 87.0986 55.6889 88.6543 56.7208C90.21 57.7527 91.3984 59.2541 92.0481 61.0082L86.5552 65.4951L92.5927 64.0893C92.591 65.5809 92.2126 67.0477 91.4928 68.3527C90.773 69.6578 89.7353 70.7584 88.4766 71.5518C87.2179 72.3452 85.7793 72.8055 84.2953 72.8897C82.8113 72.9739 81.3301 72.6793 79.9904 72.0333C80.1259 72.2039 80.2627 72.3733 80.3982 72.5427C80.668 72.8802 80.9366 73.2153 81.1991 73.5479C84.7723 78.0892 85.7679 82.4018 83.9973 85.6894L81.846 84.5222C83.571 81.3224 80.9835 77.2274 79.2794 75.0686C79.0219 74.7422 78.7582 74.4134 78.4921 74.0795C76.2089 71.2358 73.6215 68.0063 73.6868 64.0485C73.7792 58.089 79.5567 54.4948 84.1944 51.6115Z" fill="#F2F2F2"/>
<path d="M56.1238 87C87.1201 87 112.248 85.8375 112.248 84.4035C112.248 82.9695 87.1201 81.8071 56.1238 81.8071C25.1275 81.8071 0 82.9695 0 84.4035C0 85.8375 25.1275 87 56.1238 87Z" fill="#BEE2F2"/>
<path d="M101.465 83.4354C101.835 82.7541 101.416 81.9196 100.938 81.3112C100.46 80.7029 99.877 80.0748 99.8894 79.2971C99.9066 78.1844 101.083 77.5278 102.025 76.9381C102.722 76.5 103.365 75.9808 103.941 75.3913C104.182 75.1645 104.382 74.8966 104.531 74.6C104.724 74.1648 104.719 73.6702 104.707 73.193C104.666 71.6054 104.588 70.0195 104.473 68.4353" stroke="#9F616A" stroke-width="4" stroke-miterlimit="10"/>
<path d="M106.261 68.3512C106.247 68.0608 106.161 67.7784 106.01 67.53C105.859 67.2816 105.649 67.0751 105.398 66.9294L105.011 67.6984L105.022 66.7686C104.758 66.6891 104.478 66.6745 104.206 66.726C103.935 66.7776 103.68 66.8938 103.463 67.0649C103.245 67.2359 103.072 67.4569 102.957 67.7092C102.843 67.9614 102.79 68.2376 102.804 68.5144C102.826 68.9735 103.028 69.4052 103.367 69.7145C103.535 69.8677 103.731 69.9862 103.944 70.0633C104.158 70.1404 104.384 70.1745 104.611 70.1638C104.837 70.1531 105.06 70.0977 105.265 70.0008C105.47 69.9039 105.654 69.7674 105.807 69.5991C105.959 69.4308 106.077 69.234 106.154 69.0199C106.231 68.8058 106.265 68.5786 106.254 68.3512H106.261Z" fill="#57B793"/>
<path d="M103.177 80.0971C102.996 80.4501 102.699 80.7298 102.337 80.8895C101.975 81.0492 101.569 81.0792 101.187 80.9743C100.806 80.8695 100.472 80.6362 100.241 80.3136C100.011 79.991 99.8976 79.5987 99.921 79.2024C99.9444 78.8061 100.103 78.4299 100.37 78.1369C100.637 77.8439 100.996 77.6519 101.387 77.593C101.778 77.5341 102.178 77.612 102.519 77.8135C102.86 78.015 103.121 78.328 103.259 78.7L102.18 79.5815L103.368 79.3046C103.368 79.5802 103.302 79.852 103.177 80.0971Z" fill="#57B793"/>
<path d="M102.323 76.723C102.096 76.7339 101.869 76.6998 101.655 76.6226C101.442 76.5454 101.245 76.4265 101.077 76.273C100.909 76.1194 100.774 75.934 100.677 75.7276C100.581 75.5211 100.526 75.2976 100.516 75.0699C100.503 74.7984 100.554 74.5275 100.665 74.2798C100.769 74.0479 100.922 73.8416 101.114 73.6754C101.305 73.5092 101.531 73.3871 101.774 73.3179L101.766 74.0338L102.158 73.2548C102.616 73.2333 103.064 73.3954 103.403 73.7055C103.742 74.0155 103.945 74.448 103.966 74.9079C103.988 75.3678 103.826 75.8174 103.517 76.1578C103.208 76.4982 102.777 76.7015 102.319 76.723H102.323Z" fill="#57B793"/>
<path d="M106.521 73.9151C106.063 73.9367 105.616 73.7751 105.277 73.4658C104.938 73.1565 104.736 72.7248 104.714 72.2657C104.693 71.8066 104.854 71.3577 105.162 71.0178C105.47 70.6779 105.9 70.4747 106.358 70.4531C106.681 70.4371 107.003 70.5134 107.285 70.6732L106.979 71.514L107.607 70.9081C107.945 71.2174 108.146 71.6483 108.167 72.1062C108.175 72.2666 108.16 72.4273 108.122 72.5834C108.036 72.9501 107.833 73.2785 107.544 73.5188C107.255 73.7591 106.896 73.8982 106.521 73.9151Z" fill="#57B793"/>
<path opacity="0.1" d="M106.028 68.8087C105.629 68.8532 105.241 68.9781 104.84 69.0028C104.44 69.0275 104 68.9311 103.746 68.6183C103.609 68.4501 103.541 68.2375 103.426 68.0545C103.317 67.8835 103.167 67.7421 102.991 67.6428C102.886 67.8616 102.829 68.1 102.822 68.3425C102.816 68.5851 102.86 68.8263 102.952 69.0505C103.045 69.2747 103.183 69.477 103.358 69.6442C103.533 69.8114 103.742 69.9397 103.969 70.0209C104.197 70.1021 104.44 70.1343 104.681 70.1155C104.922 70.0967 105.156 70.0273 105.369 69.9117C105.581 69.7961 105.767 69.637 105.914 69.4446C106.062 69.2522 106.167 69.031 106.224 68.7951C106.157 68.7976 106.092 68.8025 106.028 68.8087Z" fill="black"/>
<path opacity="0.1" d="M106.521 73.9151C106.223 73.9302 105.926 73.8675 105.659 73.7329C105.392 73.5983 105.165 73.3965 104.999 73.1473C104.833 72.8981 104.734 72.6099 104.713 72.311C104.691 72.0122 104.748 71.7128 104.876 71.4422C105.013 71.5352 105.131 71.6541 105.223 71.7921C105.347 71.9788 105.421 72.194 105.566 72.3658C105.835 72.6836 106.295 72.7874 106.713 72.7677C107.131 72.7479 107.532 72.6304 107.945 72.5921C108.002 72.5921 108.061 72.5822 108.119 72.581C108.033 72.9475 107.831 73.276 107.543 73.5167C107.254 73.7574 106.896 73.8973 106.521 73.9151Z" fill="black"/>
<path opacity="0.1" d="M102.323 76.7229C102.096 76.7339 101.869 76.6998 101.655 76.6225C101.442 76.5453 101.245 76.4265 101.077 76.2729C100.909 76.1193 100.774 75.934 100.677 75.7275C100.581 75.5211 100.526 75.2976 100.516 75.0698C100.503 74.7983 100.554 74.5275 100.665 74.2798C100.809 74.3739 100.934 74.4933 101.035 74.6322C101.169 74.8226 101.253 75.0414 101.405 75.217C101.697 75.5434 102.187 75.6584 102.629 75.6472C103.072 75.6361 103.47 75.5323 103.896 75.5001C103.791 75.8415 103.583 76.1421 103.302 76.3609C103.02 76.5797 102.678 76.7061 102.323 76.7229Z" fill="black"/>
<path opacity="0.1" d="M103.176 80.0971C103.083 80.3049 102.951 80.4922 102.785 80.6484C102.62 80.8046 102.426 80.9266 102.214 81.0075C102.002 81.0884 101.776 81.1266 101.549 81.1198C101.322 81.1131 101.099 81.0615 100.891 80.9682C100.684 80.8748 100.498 80.7414 100.342 80.5757C100.186 80.4099 100.065 80.215 99.9842 80.0021C99.9036 79.7892 99.8656 79.5624 99.8723 79.3348C99.8791 79.1071 99.9304 78.883 100.023 78.6752C100.165 78.7699 100.293 78.8844 100.403 79.0153C100.567 79.2168 100.675 79.4443 100.866 79.6335C101.22 79.9809 101.79 80.128 102.298 80.1379C102.591 80.1418 102.885 80.1282 103.176 80.0971Z" fill="black"/>
<path d="M98.8579 82.6503C98.8579 82.6503 100.222 82.6082 100.633 82.314C101.045 82.0197 102.728 81.6686 102.835 82.1409C102.942 82.6132 104.887 84.4901 103.345 84.4975C101.804 84.5049 99.7648 84.2502 99.3545 84.0029C98.9442 83.7556 98.8579 82.6503 98.8579 82.6503Z" fill="#656380"/>
<path opacity="0.2" d="M103.372 84.3331C101.832 84.3454 99.7919 84.0858 99.3816 83.8385C99.0698 83.6481 98.9442 82.9619 98.9035 82.6454H98.8579C98.8579 82.6454 98.9442 83.7495 99.3508 84.0054C99.7574 84.2613 101.8 84.5099 103.342 84.5C103.786 84.5 103.94 84.3368 103.932 84.1018C103.874 84.2416 103.704 84.3306 103.372 84.3331Z" fill="black"/>
<path d="M23.9539 79.6211C23.0594 77.9594 24.0771 75.9242 25.2403 74.443C26.4034 72.9618 27.8278 71.4212 27.797 69.5332C27.7526 66.8206 24.8842 65.2194 22.5924 63.7815C20.8918 62.7143 19.3231 61.4489 17.9189 60.0116C17.3558 59.4342 16.81 58.8185 16.4822 58.0816C16.0091 57.0208 16.0214 55.8153 16.0522 54.653C16.1508 50.779 16.3414 46.9123 16.6239 43.053" stroke="#9F616A" stroke-width="4" stroke-miterlimit="10"/>
<path d="M12.2659 42.8416C12.2996 42.1339 12.51 41.446 12.8777 40.8411C13.2454 40.2362 13.7587 39.7336 14.3704 39.3797L15.3142 41.2528L15.2858 38.9852C16.1433 38.7317 17.0588 38.7582 17.9003 39.0608C18.7418 39.3635 19.4656 39.9267 19.9673 40.6691C20.469 41.4115 20.7226 42.2946 20.6914 43.1911C20.6603 44.0875 20.346 44.9508 19.794 45.6564C19.2421 46.3619 18.4809 46.8732 17.6205 47.1163C16.7601 47.3594 15.8449 47.3219 15.0071 47.0091C14.1694 46.6962 13.4524 46.1243 12.9596 45.3759C12.4669 44.6275 12.224 43.7413 12.2659 42.8453V42.8416Z" fill="#57B793"/>
<path d="M19.7846 71.4719C20.2085 72.3009 20.8933 72.9661 21.7327 73.3643C22.5721 73.7626 23.519 73.8714 24.4264 73.6741C25.3338 73.4767 26.1508 72.9842 26.7506 72.2729C27.3503 71.5617 27.6992 70.6716 27.743 69.741C27.7724 69.1559 27.6788 68.5712 27.4682 68.0248C27.1604 67.2235 26.6168 66.5351 25.9097 66.0512C25.2026 65.5673 24.3655 65.3107 23.5096 65.3157C22.6538 65.3207 21.8197 65.5869 21.1182 66.079C20.4167 66.571 19.8811 67.2657 19.5825 68.0706L22.2156 70.2195L19.3189 69.5432C19.3177 70.2143 19.4774 70.8758 19.7846 71.4719Z" fill="#57B793"/>
<path d="M21.8655 63.2597C22.8992 63.3071 23.9142 62.9715 24.7173 62.3166C25.5203 61.6617 26.0553 60.7334 26.2205 59.7083C26.3856 58.6832 26.1693 57.633 25.6128 56.7576C25.0562 55.8822 24.1983 55.2427 23.2024 54.9609L23.2246 56.703L22.2758 54.8076H22.2647C21.1476 54.7553 20.0556 55.1505 19.2288 55.9061C18.402 56.6618 17.9083 57.7161 17.8561 58.8371C17.804 59.958 18.1978 61.0539 18.9509 61.8835C19.7039 62.7132 20.7546 63.2086 21.8717 63.2609L21.8655 63.2597Z" fill="#57B793"/>
<path d="M11.6311 56.426C12.2838 56.4579 12.9349 56.3372 13.5331 56.0733C14.1313 55.8094 14.6602 55.4096 15.0781 54.9054C15.4959 54.4013 15.7912 53.8065 15.9408 53.1682C16.0903 52.5299 16.0899 51.8654 15.9397 51.2273C15.7894 50.5891 15.4934 49.9947 15.075 49.491C14.6566 48.9873 14.1273 48.5881 13.5288 48.3249C12.9303 48.0617 12.279 47.9417 11.6263 47.9743C10.9737 48.0069 10.3375 48.1914 9.76808 48.513L10.5074 50.5617L8.98075 49.0818C8.57265 49.4544 8.24179 49.9042 8.0071 50.4053C7.77242 50.9064 7.63853 51.4491 7.61308 52.0022C7.59351 52.3935 7.6296 52.7857 7.72027 53.1669C7.92984 54.0632 8.42513 54.8664 9.13094 55.4546C9.83676 56.0428 10.7146 56.3839 11.6311 56.426Z" fill="#57B793"/>
<path opacity="0.1" d="M12.8328 43.9692C13.8062 44.0768 14.7525 44.3797 15.7284 44.4403C16.7042 44.5009 17.7774 44.2672 18.3947 43.5056C18.7274 43.0951 18.8937 42.5758 19.1746 42.1282C19.4408 41.7112 19.8057 41.3667 20.2368 41.1255C20.5052 41.6616 20.6569 42.2489 20.6818 42.8484C20.7067 43.4479 20.6043 44.0458 20.3813 44.6025C20.1584 45.1593 19.8199 45.662 19.3885 46.0775C18.9571 46.4929 18.4426 46.8115 17.8791 47.0122C17.3156 47.2128 16.716 47.2909 16.1201 47.2413C15.5243 47.1916 14.9457 47.0154 14.4229 46.7242C13.9001 46.433 13.445 46.0336 13.0878 45.5524C12.7306 45.0713 12.4795 44.5194 12.3511 43.9334C12.5149 43.9408 12.6751 43.9519 12.8328 43.9692Z" fill="black"/>
<path opacity="0.1" d="M11.6315 56.4261C12.358 56.4597 13.0808 56.3043 13.7298 55.9749C14.3788 55.6455 14.9319 55.1534 15.3355 54.5462C15.7391 53.9391 15.9794 53.2376 16.0331 52.5098C16.0868 51.782 15.9521 51.0526 15.6421 50.3924C15.3073 50.6183 15.0194 50.9071 14.7944 51.243C14.4937 51.698 14.3126 52.2235 13.959 52.6414C13.3022 53.4154 12.181 53.6689 11.1632 53.6231C10.1455 53.5774 9.16349 53.2856 8.15067 53.1929C8.01021 53.1805 7.86728 53.1706 7.72559 53.1669C7.93492 54.0624 8.42947 54.8651 9.1343 55.4532C9.83912 56.0413 10.7158 56.3829 11.6315 56.4261Z" fill="black"/>
<path opacity="0.1" d="M21.8659 63.2597C22.5853 63.2936 23.3014 63.142 23.9458 62.8192C24.5903 62.4965 25.1415 62.0135 25.5471 61.4162C25.9526 60.819 26.1989 60.1274 26.2623 59.4075C26.3258 58.6876 26.2045 57.9634 25.9098 57.3039C25.5626 57.5353 25.2607 57.8287 25.0189 58.1694C24.6912 58.6331 24.4866 59.1672 24.1034 59.595C23.3925 60.39 22.1973 60.6707 21.1192 60.6447C20.0756 60.6224 19.0702 60.3653 18.0327 60.2849C18.2896 61.1159 18.7953 61.8473 19.4812 62.3796C20.1671 62.9119 20.9998 63.2192 21.8659 63.2597Z" fill="black"/>
<path opacity="0.1" d="M19.7847 71.4719C20.2085 72.3008 20.8934 72.9661 21.7327 73.3643C22.5721 73.7625 23.5191 73.8714 24.4265 73.674C25.3339 73.4767 26.1509 72.9841 26.7506 72.2729C27.3504 71.5616 27.6992 70.6716 27.743 69.7409C27.7725 69.1559 27.6789 68.5711 27.4683 68.0248C27.1214 68.2534 26.81 68.5321 26.5442 68.8519C26.1437 69.3465 25.8788 69.8979 25.4155 70.3554C24.553 71.2036 23.162 71.5547 21.9237 71.5918C21.2089 71.5943 20.4947 71.5542 19.7847 71.4719Z" fill="black"/>
<path d="M53.1322 82.0914L36.868 85.4297L36.4984 85.3926L22.2056 83.946V65.7708L39.7019 62.8035L52.3929 64.2871L52.3966 64.3675L52.3978 64.4071L53.1322 82.0914Z" fill="#F76100"/>
<path opacity="0.1" d="M53.1319 82.0915L36.8677 85.4298L36.498 85.3927V66.76L52.3963 64.3675L53.1319 82.0915Z" fill="black"/>
<path opacity="0.05" d="M52.3978 64.4071L52.3929 64.4108L36.4984 66.76L22.2056 65.7708L39.7019 62.8035L52.3929 64.2871L52.3966 64.3675L52.3978 64.4071Z" fill="black"/>
<path d="M70.9984 82.8333L54.7342 86.1716L54.3646 86.1345L40.0718 84.6879V66.5127L57.5681 63.5453L70.2591 65.029L70.2628 65.1093L70.2641 65.1489L70.9984 82.8333Z" fill="#9F616A"/>
<path opacity="0.1" d="M70.9981 82.8333L54.7339 86.1716L54.3643 86.1345V67.5018L70.2625 65.1093L70.9981 82.8333Z" fill="black"/>
<path opacity="0.05" d="M70.264 65.1489L70.2591 65.1526L54.3646 67.5018L40.0718 66.5127L57.5681 63.5453L70.2591 65.029L70.2628 65.1093L70.264 65.1489Z" fill="black"/>
<path d="M59.786 65.029L43.5218 68.3673L43.1522 68.3302L28.8594 66.8836V48.7084L46.3557 45.741L59.0467 47.2247L59.0504 47.3051L59.0516 47.3446L59.786 65.029Z" fill="#9F616A"/>
<path opacity="0.1" d="M59.7857 65.029L43.5215 68.3673L43.1519 68.3302V49.6975L59.0501 47.3051L59.7857 65.029Z" fill="black"/>
<path opacity="0.05" d="M59.0516 47.3446L59.0467 47.3483L43.1522 49.6975L28.8594 48.7084L46.3557 45.741L59.0467 47.2247L59.0504 47.3051L59.0516 47.3446Z" fill="black"/>
<path d="M69.0267 65.7906L60.5385 67.534L60.3451 67.5142L52.8857 66.7587V57.273L62.0171 55.7238L68.6411 56.499L68.6435 56.541V56.5608L69.0267 65.7906Z" fill="#9F616A"/>
<path opacity="0.1" d="M69.0269 65.7906L60.5387 67.534L60.3452 67.5142V57.7898L68.6437 56.541L69.0269 65.7906Z" fill="black"/>
<path opacity="0.05" d="M68.6435 56.5608L68.6411 56.5633L60.3451 57.7898L52.8857 57.273L62.0171 55.7238L68.6411 56.499L68.6435 56.541V56.5608Z" fill="black"/>
<path d="M46.2318 47.3681L37.7436 49.1102L37.5502 49.0917L30.0908 48.3362V38.8505L39.2222 37.3013L45.8462 38.0765L45.8486 38.1185V38.1383L46.2318 47.3681Z" fill="#9F616A"/>
<path opacity="0.1" d="M46.2319 47.3681L37.7437 49.1102L37.5503 49.0917V39.3673L45.8487 38.1185L46.2319 47.3681Z" fill="black"/>
<path opacity="0.05" d="M45.8486 38.1383L45.8461 38.1408L37.5502 39.3673L30.0908 38.8505L39.2222 37.3013L45.8461 38.0765L45.8486 38.1185V38.1383Z" fill="black"/>
<path d="M61.141 46.9972L52.6528 48.7393L52.4594 48.7207L45 47.9653V38.4796L54.1314 36.9303L60.7553 37.7056L60.7578 37.7476V37.7674L61.141 46.9972Z" fill="#F76100"/>
<path opacity="0.1" d="M61.1411 46.9972L52.6529 48.7393L52.4595 48.7207V38.9964L60.7579 37.7476L61.1411 46.9972Z" fill="black"/>
<path opacity="0.05" d="M60.7578 37.7674L60.7553 37.7699L52.4594 38.9964L45 38.4796L54.1314 36.9303L60.7553 37.7056L60.7578 37.7476V37.7674Z" fill="black"/>
<path d="M65.5765 37.4768L57.0883 39.2189L56.8949 39.2004L49.4355 38.4449V28.9592L58.5669 27.41L65.1909 28.1852L65.1933 28.2272V28.247L65.5765 37.4768Z" fill="#9F616A"/>
<path opacity="0.1" d="M65.5767 37.4768L57.0885 39.2189L56.895 39.2004V29.476L65.1935 28.2272L65.5767 37.4768Z" fill="black"/>
<path opacity="0.05" d="M65.1933 28.247L65.1909 28.2495L56.8949 29.476L49.4355 28.9592L58.5669 27.41L65.1909 28.1852L65.1933 28.2272V28.247Z" fill="black"/>
<path d="M71.3578 18.085C71.2679 18.8886 70.6568 19.5365 70.43 20.3105C70.09 21.4789 70.6765 22.7339 71.4847 23.6488C72.1362 24.3758 72.9248 24.9658 73.8051 25.3848C74.6854 25.8038 75.6397 26.0433 76.6129 26.0895C76.8988 26.1142 77.1867 26.0827 77.4606 25.9968C77.7045 25.8972 77.9242 25.7462 78.105 25.5541C78.7112 24.9421 79.0377 24.0952 79.1671 23.2408C79.2965 22.3864 79.2472 21.5172 79.1967 20.6555C79.1966 20.4771 79.1641 20.3003 79.1006 20.1337C79.0181 19.9753 78.9045 19.8352 78.7667 19.722C78.3297 19.319 77.848 18.9676 77.3312 18.6747C77.1095 18.5511 76.8717 18.4275 76.73 18.2136C76.6327 18.0432 76.5695 17.8555 76.5439 17.6609L76.385 16.8498C76.3568 16.6159 76.2773 16.3913 76.1521 16.192C75.8724 15.8137 75.3364 15.7618 74.867 15.7432L73.142 15.6752C72.606 15.6542 71.9012 15.4996 71.3776 15.606C70.8847 15.7036 71.051 16.1562 71.1398 16.5667C71.2681 17.0631 71.3412 17.5723 71.3578 18.085Z" fill="#F19E62"/>
<path opacity="0.1" d="M71.3578 18.085C71.2679 18.8886 70.6568 19.5365 70.43 20.3105C70.09 21.4789 70.6765 22.7339 71.4847 23.6488C72.1362 24.3758 72.9248 24.9658 73.8051 25.3848C74.6854 25.8038 75.6397 26.0433 76.6129 26.0895C76.8988 26.1142 77.1867 26.0827 77.4606 25.9968C77.7045 25.8972 77.9242 25.7462 78.105 25.5541C78.7112 24.9421 79.0377 24.0952 79.1671 23.2408C79.2965 22.3864 79.2472 21.5172 79.1967 20.6555C79.1966 20.4771 79.1641 20.3003 79.1006 20.1337C79.0181 19.9753 78.9045 19.8352 78.7667 19.722C78.3297 19.319 77.848 18.9676 77.3312 18.6747C77.1095 18.5511 76.8717 18.4275 76.73 18.2136C76.6327 18.0432 76.5695 17.8555 76.5439 17.6609L76.385 16.8498C76.3568 16.6159 76.2773 16.3913 76.1521 16.192C75.8724 15.8137 75.3364 15.7618 74.867 15.7432L73.142 15.6752C72.606 15.6542 71.9012 15.4996 71.3776 15.606C70.8847 15.7036 71.051 16.1562 71.1398 16.5667C71.2681 17.0631 71.3412 17.5723 71.3578 18.085Z" fill="black"/>
<path d="M82.3129 54.2821L81.581 62.3336C81.39 64.4454 81.1953 66.5658 80.8208 68.6504C80.6975 69.3688 80.5398 70.0834 80.3599 70.7919C79.8597 72.759 79.134 74.6816 78.8999 76.6982C78.8925 76.7563 78.8863 76.8219 78.8801 76.875C78.8321 77.3201 78.7902 77.7702 78.6337 78.1856C78.5105 78.4935 78.3368 78.7742 78.2099 79.0783C77.9634 79.6866 77.924 80.3592 77.8932 81.0182C77.005 80.5151 76.0324 80.1798 75.0236 80.0291C74.5307 79.9562 73.9947 79.9055 73.6682 79.5345C73.2986 79.1315 73.3417 78.5145 73.4033 77.973C73.5972 76.2914 73.7902 74.6107 73.9824 72.9309C74.0465 72.208 74.1701 71.4918 74.352 70.7894C74.4186 70.5557 74.4987 70.3258 74.58 70.0958C74.6921 69.7793 74.8055 69.4627 74.8905 69.1376C75.0084 68.6151 75.0899 68.0851 75.1344 67.5513C75.3328 65.8599 75.5719 64.1722 75.7813 62.482L75.7924 62.393C76.1066 59.8311 76.3456 57.2569 76.2766 54.6765C76.2668 54.2945 76.2508 53.9124 76.2261 53.5291C76.1916 52.974 76.1411 52.6797 76.5958 52.3323C77.1022 51.949 77.7688 51.6807 78.3479 51.4297C78.6596 51.2937 82.0923 50.0697 82.1675 50.3392C82.3268 50.9117 82.4097 51.5029 82.4139 52.0974C82.4209 52.8269 82.3871 53.5563 82.3129 54.2821Z" fill="#FF6501"/>
<path opacity="0.1" d="M80.821 68.6505C80.6977 69.3688 80.54 70.0835 80.3601 70.7919C79.8599 72.759 79.1342 74.6817 78.9001 76.6983C78.8927 76.7564 78.8865 76.8219 78.8803 76.8751C77.35 74.6817 76.0612 72.3226 74.5679 70.1057C74.68 69.7892 74.7933 69.4727 74.8784 69.1475C75.0009 68.6221 75.0865 68.0887 75.1347 67.5513C75.333 65.8599 75.5721 64.1722 75.7815 62.482L75.7926 62.393C75.8791 62.7517 76.003 63.1002 76.1623 63.4328C77.1652 65.4778 79.5482 66.5115 80.7138 68.4687C80.7524 68.5297 80.7881 68.5903 80.821 68.6505Z" fill="black"/>
<path d="M68.4033 50.6705C68.4538 52.31 68.7151 53.9359 68.9763 55.5556L69.5147 58.8939C69.8092 60.7238 70.1172 62.5895 70.9797 64.2278C71.6254 65.4543 72.5544 66.5003 73.3959 67.5995C75.4635 70.3023 77.0172 73.3648 78.9775 76.1468C79.548 76.9554 80.3624 77.8308 81.3346 77.6614C81.9728 77.5513 82.4361 77.0172 82.9364 76.6067C83.5278 76.122 84.24 75.7672 84.7057 75.1589C85.1715 74.5506 85.2626 73.5416 84.6318 73.1089C84.4162 72.9618 84.1537 72.9061 83.9098 72.8122C82.9327 72.4412 82.2994 71.4818 81.8977 70.5124C81.496 69.5431 81.2508 68.5033 80.7148 67.6019C79.5492 65.6447 77.165 64.6111 76.1621 62.5648C75.6002 61.4199 75.546 60.092 75.5041 58.8222L75.3945 55.5692C75.3821 55.2131 75.3735 54.8434 75.5177 54.5182C75.9009 53.6528 77.0591 53.5712 77.998 53.4611C79.0627 53.3364 80.0942 53.0099 81.0376 52.4992C81.5786 52.2062 82.1059 51.8328 82.393 51.2887C82.6567 50.7942 82.6924 50.2118 82.7232 49.6505L83.0485 43.7541C83.0768 43.2471 83.1015 42.7217 82.9253 42.2469C82.478 41.0525 80.9748 40.6618 79.7045 40.7187C77.3412 40.825 75.1604 41.8451 72.9277 42.535C72.3745 42.7056 71.8188 42.8589 71.2483 42.9739C70.7555 43.074 70.1394 43.0332 69.6663 43.194C68.8185 43.4808 68.8395 45.3429 68.72 46.1144C68.4734 47.6199 68.3674 49.1452 68.4033 50.6705Z" fill="#F76100"/>
<path d="M81.014 77.9111C81.2222 78.1225 81.29 78.4317 81.3442 78.7234C81.6454 80.3428 81.8021 81.9859 81.8124 83.6332C81.799 83.7869 81.8293 83.9413 81.8999 84.0783C81.959 84.1595 82.0385 84.2236 82.1303 84.2638C82.7329 84.5519 83.4315 84.1501 83.9342 83.7087C84.8644 82.8914 85.6518 81.7935 85.7048 80.5533C85.7183 80.2343 85.6826 79.9116 85.738 79.5964C85.8194 79.129 86.0917 78.7222 86.3307 78.3142C86.7397 77.6187 87.0703 76.8797 87.3164 76.1109C87.4076 75.8216 87.4692 75.4581 87.2425 75.2565C87.1631 75.1932 87.0723 75.1458 86.9751 75.1168L84.2521 74.103C84.0155 74.0152 83.429 75.5273 83.3366 75.693C83.1087 76.0973 82.8819 76.326 82.4248 76.42C81.9677 76.514 81.4034 76.378 80.9672 76.6117C80.2279 77.0061 80.5963 77.4895 81.014 77.9111Z" fill="#535070"/>
<path d="M76.8153 78.8446C76.7649 78.7437 76.6944 78.654 76.6083 78.5813C76.4825 78.5009 76.3392 78.4521 76.1906 78.4391C75.6731 78.3501 75.0595 78.292 74.701 78.679C74.3658 79.0412 74.4238 79.631 74.1441 80.039C74.0554 80.1626 73.9346 80.2739 73.8582 80.4099C73.7633 80.6181 73.7209 80.8466 73.735 81.0751C73.7202 81.7044 73.7054 82.3363 73.7498 82.9644C73.7855 83.4911 73.873 84.0437 74.202 84.4567C74.7293 85.1194 75.6805 85.2146 76.5233 85.2567L77.2072 85.2925C77.3952 85.3146 77.5857 85.2969 77.7665 85.2406C77.8786 85.1889 77.9791 85.115 78.0621 85.0235C78.1451 84.9319 78.2088 84.8245 78.2495 84.7077C78.6056 83.8199 78.0425 82.8642 77.6951 81.974C77.2946 80.949 77.3661 79.8127 76.8153 78.8446Z" fill="#535070"/>
<path d="M71.161 13.5535C71.1522 13.4635 71.1654 13.3727 71.1992 13.2889C71.299 13.1121 71.5602 13.1653 71.7573 13.2098C72.5496 13.4101 73.385 13.2283 74.2019 13.2753C75.0188 13.3223 75.938 13.7316 76.1018 14.5352C76.6945 14.1144 77.2053 13.588 77.6088 12.9823C77.8355 12.6423 78.0326 12.2528 78.0018 11.8448C77.9574 11.2563 77.4658 10.8161 77.0161 10.4427L75.6607 9.32994C75.4822 9.1656 75.2761 9.03418 75.0521 8.94171C74.7391 8.83414 74.3966 8.88607 74.0664 8.88607C73.0807 8.88607 72.0235 8.43478 71.145 8.88607C70.7753 9.07524 70.5006 9.40042 70.2344 9.71694L69.0232 11.1561C68.9316 11.2479 68.8646 11.3614 68.8286 11.4862C68.7941 11.6618 68.884 11.8349 68.916 12.0117C68.9727 12.3332 68.8347 12.6769 68.9407 12.986C69.1169 13.4979 69.7379 13.5708 70.1174 13.8651C70.2578 13.9739 70.4796 14.3461 70.6484 14.3411C70.9454 14.3349 71.1524 13.7909 71.161 13.5535Z" fill="#9F616A"/>
<path d="M73.2162 17.7981C75.3597 17.7981 77.0974 16.0544 77.0974 13.9034C77.0974 11.7524 75.3597 10.0087 73.2162 10.0087C71.0726 10.0087 69.335 11.7524 69.335 13.9034C69.335 16.0544 71.0726 17.7981 73.2162 17.7981Z" fill="#F19E62"/>
<path d="M74.125 22.426C73.9935 22.0485 73.7459 21.7227 73.418 21.4956C73.09 21.2685 72.6986 21.1518 72.3002 21.1624C72.186 21.1843 72.0677 21.1691 71.9626 21.1191C71.903 21.0735 71.8553 21.0141 71.8234 20.946C71.5881 20.5198 71.3985 20.0697 71.2578 19.6033C71.1962 19.3968 71.1112 19.1532 70.903 19.1001C70.7354 19.0568 70.5641 19.1656 70.452 19.2979C70.3526 19.4398 70.2448 19.5757 70.1292 19.7047C69.6363 20.1424 68.7738 19.743 68.2576 20.1448C68.1726 20.2104 68.1023 20.2944 68.0111 20.355C67.9224 20.4093 67.8266 20.4509 67.7265 20.4787C66.7244 20.8058 65.7419 21.191 64.7842 21.6322C65.1292 23.7143 65.4816 25.836 66.2898 27.7834C66.6743 28.7107 67.1092 29.6194 67.4173 30.5752C68.0999 32.6932 68.1294 34.9595 68.1381 37.1863C68.1381 38.7095 68.1381 40.2649 67.6452 41.7066C67.5343 42.033 67.3988 42.3569 67.368 42.6957C67.3372 43.0345 67.4382 43.4178 67.7154 43.6205C67.8759 43.7268 68.06 43.7917 68.2514 43.8097C69.1028 43.9334 69.9604 43.7083 70.7982 43.513C73.0444 42.9912 75.3362 42.692 77.6218 42.4002L81.4538 41.9056C81.7287 41.8864 81.9977 41.8164 82.2473 41.6992C82.9483 41.3146 83.0149 40.2563 82.5787 39.5837C82.3705 39.261 82.076 38.9964 81.8998 38.6551C81.7236 38.3139 81.7101 37.8341 82.0119 37.598C82.628 37.1158 82.4432 36.2219 82.4727 35.4405C82.5549 33.2545 82.5438 31.0702 82.4395 28.8875C82.4081 28.4348 82.4007 27.9809 82.4173 27.5274C82.4604 26.7584 82.6502 26.0054 82.8399 25.2574L84.0043 20.6579C83.6999 20.1757 83.1172 19.8691 82.5664 19.7306C82.0156 19.5922 81.4402 19.5513 80.8968 19.382C79.7879 19.0358 78.7923 18.1579 77.6304 18.2395C77.5423 18.2411 77.4557 18.2622 77.3766 18.3013C77.1154 18.4509 77.1561 18.8293 77.1401 19.131C77.1031 19.7999 76.6127 20.3575 76.073 20.7494C75.5333 21.1414 74.9148 21.4257 74.4183 21.8721C74.332 21.9373 74.2611 22.0207 74.2104 22.1164C74.1598 22.2121 74.1306 22.3178 74.125 22.426Z" fill="#BEE2F2"/>
<path d="M58.747 26.7893C58.4899 26.957 58.2167 27.0983 57.9313 27.2109C57.6603 27.3185 57.3707 27.4038 57.1489 27.5917C57.0391 27.6873 56.9469 27.8016 56.8766 27.9293C56.7453 28.1631 56.6789 28.4279 56.6844 28.6963C56.6899 28.9646 56.767 29.2265 56.9077 29.4547C57.0484 29.6829 57.2476 29.8691 57.4844 29.9938C57.7212 30.1184 57.9871 30.177 58.2542 30.1635C58.6102 30.1449 58.9466 30.0003 59.2731 29.8581L62.0109 28.6625C62.4742 28.4609 62.9745 28.226 63.1938 27.7685C63.2189 27.7257 63.2285 27.6755 63.2209 27.6264C63.1997 27.5725 63.1593 27.5284 63.1075 27.5027C62.4906 27.0999 61.9509 26.589 61.5144 25.9943C61.4023 25.841 61.268 25.48 61.1053 25.3872C60.5262 25.0645 59.2115 26.4876 58.747 26.7893Z" fill="#F19E62"/>
<path d="M88.0127 25.8187L89.0218 26.976C89.2387 27.2233 89.4555 27.4706 89.6527 27.7376C90.1378 28.4081 90.5269 29.1435 90.8084 29.9224C91.0277 30.4998 91.2101 31.1155 91.1337 31.7288C91.0825 32.0432 90.9978 32.3512 90.8811 32.6474C90.6962 33.217 90.4668 33.771 90.1948 34.3042C89.9677 34.7088 89.7111 35.096 89.4272 35.4627C88.6456 36.502 87.7903 37.4834 86.868 38.3992C86.523 38.7417 86.3752 39.2968 86.2286 39.7592C85.9513 40.6136 85.2921 41.28 84.6551 41.9106C84.4502 42.128 84.2236 42.3235 83.9787 42.4942C83.612 42.7317 83.1829 42.8539 82.7466 42.8453C82.5561 42.8464 82.3676 42.8072 82.1933 42.7303C81.7571 42.5226 81.5354 42.0169 81.4898 41.5347C81.4495 41.0966 81.5225 40.6554 81.7017 40.2538C82.2808 38.9667 83.768 38.4091 84.819 37.4694C85.4351 36.9192 85.907 36.2268 86.3727 35.5431C86.6882 35.1157 86.9517 34.6521 87.1576 34.162C87.3917 33.5327 87.3005 32.7884 87.5063 32.1504C87.5925 31.8796 87.7527 31.636 87.8402 31.3677C87.9277 31.0994 87.9573 30.7817 87.7934 30.5505C87.6706 30.4027 87.5137 30.2872 87.3363 30.2142C86.6647 29.8729 85.9131 29.4328 85.785 28.6872C85.7337 28.2743 85.8412 27.8573 86.0856 27.5213C86.3288 27.1895 86.6132 26.8903 86.9321 26.631C87.2241 26.3665 87.7182 26.0734 88.0127 25.8187Z" fill="#F19E62"/>
<path d="M58.0991 28.404C57.9216 28.043 57.6986 27.6746 57.3388 27.4953C57.1637 27.4195 56.9751 27.3804 56.7844 27.3804C56.5937 27.3804 56.405 27.4195 56.2299 27.4953C55.8813 27.6465 55.5547 27.8445 55.259 28.0838L54.3891 28.728C54.1919 28.8578 54.0175 29.0195 53.8728 29.2065C53.7349 29.4333 53.6436 29.6855 53.6042 29.9483C53.481 30.5504 53.3812 31.1699 53.4675 31.7794C53.6055 32.7686 54.1969 33.6242 54.8475 34.3759C55.2541 34.8433 55.7568 35.3156 56.3753 35.3366C56.6427 35.3452 56.9396 35.2389 57.0505 34.9953C57.0892 34.8986 57.1097 34.7954 57.1109 34.6912C57.1774 33.5933 56.7856 32.5213 56.3297 31.521C56.2065 31.249 56.0734 30.9671 56.0833 30.6691C56.0795 30.6186 56.0925 30.5681 56.1203 30.5257C56.1594 30.4846 56.2118 30.4587 56.2681 30.4528C56.8928 30.3291 57.9697 30.8163 58.4071 30.1202C58.6905 29.6602 58.3011 28.8133 58.0991 28.404Z" fill="#F19E62"/>
<path d="M70.9564 12.3282C70.9487 12.2382 70.9622 12.1475 70.9958 12.0636C71.0956 11.8856 71.3568 11.94 71.554 11.9845C72.3462 12.1848 73.1816 12.0031 73.9985 12.05C74.8154 12.097 75.7334 12.5063 75.8985 13.3099C76.4906 12.8884 77.0012 12.3622 77.4054 11.757C77.6321 11.4158 77.8292 11.0263 77.7984 10.6183C77.7541 10.0298 77.2612 9.58959 76.8127 9.21743L75.4574 8.10466C75.2793 7.94034 75.0736 7.80891 74.8499 7.71643C74.5357 7.60886 74.1944 7.66079 73.8642 7.66079C72.8785 7.66079 71.8213 7.2095 70.9428 7.66079C70.5732 7.84996 70.2984 8.17514 70.0323 8.49166L68.8199 9.93084C68.7287 10.0228 68.6622 10.1363 68.6264 10.261C68.5919 10.4365 68.6819 10.6096 68.7139 10.7864C68.7706 11.1079 68.6326 11.4516 68.7385 11.7595C68.9147 12.2726 69.5357 12.3455 69.9152 12.6398C70.0557 12.7486 70.2775 13.1208 70.4463 13.1158C70.7383 13.1096 70.9453 12.5656 70.9564 12.3282Z" fill="black"/>
<path d="M62.7132 23.0009C62.5568 23.1029 62.4192 23.2313 62.3066 23.3805C62.1649 23.5969 62.1354 23.8751 62.0134 24.0976C61.7522 24.5848 61.1398 24.7591 60.7591 25.1585C60.6973 25.2131 60.6542 25.2857 60.6358 25.3662C60.6335 25.4749 60.6697 25.581 60.7381 25.6654L62.5789 28.5685C63.195 28.6229 63.779 28.2371 64.3926 28.2891C64.6206 28.3076 64.8559 28.3867 65.0752 28.3187C65.232 28.2487 65.379 28.1585 65.5126 28.0504C65.8823 27.818 66.3653 27.7908 66.6721 27.4854C66.9789 27.18 67.0048 26.7312 67.0011 26.3145C67.0066 25.9529 66.9698 25.5919 66.8914 25.2388C66.6203 24.1261 65.7714 23.268 65.2391 22.2813C64.9791 21.8004 64.8387 21.5197 64.2904 21.8498C63.7421 22.18 63.232 22.6201 62.7132 23.0009Z" fill="#BEE2F2"/>
<path d="M85.0657 21.5333C85.4117 21.7587 85.7237 22.0327 85.9923 22.3469C86.272 22.7092 86.4309 23.1543 86.7008 23.5252C86.9706 23.8961 87.3169 24.1632 87.6126 24.4945C88.0623 24.9965 88.3666 25.6073 88.6648 26.2144C87.9349 27.1674 87.1394 28.068 86.2843 28.9097C86.1889 29.0223 86.0631 29.1048 85.9221 29.1471C85.8264 29.1575 85.7298 29.1438 85.6407 29.1073C85.5517 29.0708 85.4731 29.0127 85.412 28.9382C85.2789 28.7997 85.1853 28.6266 85.0583 28.4819C84.7594 28.1725 84.3608 27.9793 83.9334 27.9367C83.5095 27.8953 83.083 27.8891 82.6581 27.9181C82.5649 27.9292 82.4704 27.9134 82.3858 27.8724C82.3229 27.829 82.272 27.7703 82.238 27.7018C81.7451 26.8511 81.8991 25.7829 82.0753 24.811L82.4782 22.5855C82.5371 22.1606 82.6501 21.745 82.8146 21.3491C82.9674 21.0215 83.3075 20.4651 83.7289 20.564C84.1503 20.6629 84.7096 21.2762 85.0657 21.5333Z" fill="#BEE2F2"/>
<path d="M49.9286 37.8478L41.4404 39.5899L41.247 39.5713L33.7876 38.8159V29.3301L42.919 27.7809L49.5429 28.5561L49.5454 28.5982V28.6179L49.9286 37.8478Z" fill="#F76100"/>
<path opacity="0.1" d="M49.9287 37.8477L41.4405 39.5898L41.2471 39.5713V29.8469L49.5455 28.5982L49.9287 37.8477Z" fill="black"/>
<path opacity="0.05" d="M49.5454 28.618L49.5429 28.6204L41.247 29.847L33.7876 29.3301L42.919 27.7809L49.5429 28.5561L49.5454 28.5982V28.618Z" fill="black"/>
<path d="M54.3641 28.451L45.8759 30.1944L45.6825 30.1746L38.2231 29.4191V19.9334L47.3545 18.3842L53.9785 19.1594L53.9809 19.2015V19.2212L54.3641 28.451Z" fill="#9F616A"/>
<path opacity="0.1" d="M54.3643 28.451L45.8761 30.1944L45.6826 30.1746V20.4502L53.9811 19.2014L54.3643 28.451Z" fill="black"/>
<path opacity="0.05" d="M53.9809 19.2212L53.9785 19.2237L45.6825 20.4502L38.2231 19.9334L47.3545 18.3842L53.9785 19.1594L53.9809 19.2015V19.2212Z" fill="black"/>
</g>
<defs>
<clipPath id="clip0">
<rect width="117" height="87" fill="white"/>
</clipPath>
</defs>
</svg>
