<svg width="149" height="79" viewBox="0 0 149 79" fill="none" xmlns="http://www.w3.org/2000/svg">
<path d="M148.035 78.7959H65.0698C64.8141 78.7956 64.569 78.6941 64.3883 78.5137C64.2075 78.3334 64.1058 78.0889 64.1055 77.8338V0.962094C64.1058 0.707033 64.2075 0.462515 64.3883 0.282159C64.569 0.101804 64.8141 0.000333819 65.0698 0H148.035C148.291 0.000333819 148.536 0.101804 148.717 0.282159C148.898 0.462515 148.999 0.707033 149 0.962094V77.8336C148.999 78.0887 148.898 78.3332 148.717 78.5136C148.536 78.694 148.291 78.7954 148.035 78.7957V78.7959ZM65.0698 0.38408C64.9166 0.384414 64.7697 0.445285 64.6614 0.553375C64.553 0.661465 64.492 0.80797 64.4917 0.960832V77.8336C64.492 77.9865 64.553 78.133 64.6614 78.2411C64.7697 78.3492 64.9166 78.41 65.0698 78.4104H148.035C148.189 78.4101 148.336 78.3492 148.444 78.2411C148.552 78.133 148.613 77.9865 148.614 77.8336V0.962094C148.613 0.809233 148.552 0.662727 148.444 0.554638C148.336 0.446548 148.189 0.385676 148.035 0.385343L65.0698 0.38408Z" fill="#E6E6E6"/>
<path d="M104.273 19.9753C104.099 19.9753 103.933 20.0442 103.81 20.1667C103.687 20.2891 103.618 20.4553 103.618 20.6285C103.618 20.8017 103.687 20.9679 103.81 21.0904C103.933 21.2129 104.099 21.2817 104.273 21.2817H140.196C140.369 21.2817 140.536 21.2129 140.659 21.0904C140.782 20.9679 140.85 20.8017 140.85 20.6285C140.85 20.4553 140.782 20.2891 140.659 20.1667C140.536 20.0442 140.369 19.9753 140.196 19.9753H104.273Z" fill="#E6E6E6"/>
<path d="M104.273 23.8948C104.099 23.8948 103.933 23.9636 103.81 24.0861C103.687 24.2086 103.618 24.3747 103.618 24.548C103.618 24.7212 103.687 24.8873 103.81 25.0098C103.933 25.1323 104.099 25.2011 104.273 25.2011H122.612C122.786 25.2011 122.952 25.1323 123.075 25.0098C123.198 24.8873 123.267 24.7212 123.267 24.548C123.267 24.3747 123.198 24.2086 123.075 24.0861C122.952 23.9636 122.786 23.8948 122.612 23.8948H104.273Z" fill="#E6E6E6"/>
<path d="M72.8749 42.8652C72.7013 42.8652 72.5347 42.9341 72.412 43.0565C72.2892 43.179 72.2202 43.3452 72.2202 43.5184C72.2202 43.6916 72.2892 43.8578 72.412 43.9803C72.5347 44.1028 72.7013 44.1716 72.8749 44.1716H140.231C140.404 44.1716 140.571 44.1028 140.694 43.9803C140.816 43.8578 140.885 43.6916 140.885 43.5184C140.885 43.3452 140.816 43.179 140.694 43.0565C140.571 42.9341 140.404 42.8652 140.231 42.8652H72.8749Z" fill="#E6E6E6"/>
<path d="M72.8749 46.7847C72.7013 46.7847 72.5347 46.8535 72.412 46.976C72.2892 47.0985 72.2202 47.2646 72.2202 47.4378C72.2202 47.6111 72.2892 47.7772 72.412 47.8997C72.5347 48.0222 72.7013 48.091 72.8749 48.091H122.647C122.821 48.091 122.987 48.0222 123.11 47.8997C123.233 47.7772 123.302 47.6111 123.302 47.4378C123.302 47.2646 123.233 47.0985 123.11 46.976C122.987 46.8535 122.821 46.7847 122.647 46.7847H72.8749Z" fill="#E6E6E6"/>
<path d="M72.8749 50.6154C72.7013 50.6154 72.5347 50.6842 72.412 50.8067C72.2892 50.9292 72.2202 51.0953 72.2202 51.2685C72.2202 51.4418 72.2892 51.6079 72.412 51.7304C72.5347 51.8529 72.7013 51.9217 72.8749 51.9217H140.231C140.404 51.9217 140.571 51.8529 140.694 51.7304C140.816 51.6079 140.885 51.4418 140.885 51.2685C140.885 51.0953 140.816 50.9292 140.694 50.8067C140.571 50.6842 140.404 50.6154 140.231 50.6154H72.8749Z" fill="#E6E6E6"/>
<path d="M72.8749 54.5348C72.7013 54.5348 72.5347 54.6036 72.412 54.7261C72.2892 54.8486 72.2202 55.0147 72.2202 55.188C72.2202 55.3612 72.2892 55.5273 72.412 55.6498C72.5347 55.7723 72.7013 55.8411 72.8749 55.8411H122.647C122.821 55.8411 122.987 55.7723 123.11 55.6498C123.233 55.5273 123.302 55.3612 123.302 55.188C123.302 55.0147 123.233 54.8486 123.11 54.7261C122.987 54.6036 122.821 54.5348 122.647 54.5348H72.8749Z" fill="#E6E6E6"/>
<path d="M95.1942 33.737H43.1191C42.8634 33.7367 42.6183 33.6353 42.4375 33.4549C42.2568 33.2746 42.1551 33.03 42.1548 32.7749V9.97393C42.1551 9.71886 42.2568 9.47431 42.4375 9.29395C42.6183 9.11358 42.8634 9.01213 43.1191 9.01184H95.1942C95.4498 9.01213 95.6949 9.11358 95.8757 9.29395C96.0565 9.47431 96.1582 9.71886 96.1585 9.97393V32.7749C96.1582 33.03 96.0565 33.2746 95.8757 33.4549C95.6949 33.6353 95.4498 33.7367 95.1942 33.737Z" fill="#064564"/>
<path d="M139.814 69.784H120.075C119.819 69.7838 119.574 69.6823 119.394 69.5019C119.213 69.3216 119.111 69.077 119.111 68.8219V65.6666C119.111 65.4115 119.213 65.1669 119.394 64.9866C119.574 64.8062 119.819 64.7048 120.075 64.7045H139.814C140.07 64.7048 140.315 64.8062 140.496 64.9866C140.677 65.1669 140.778 65.4115 140.778 65.6666V68.8219C140.778 69.077 140.677 69.3216 140.496 69.5019C140.315 69.6823 140.07 69.7838 139.814 69.784Z" fill="#FF6501"/>
<path d="M22.8402 38.59C21.9896 37.9564 21.7399 36.7725 22.2826 35.9455C22.3365 35.8646 22.3975 35.7885 22.4648 35.7182L22.5192 18.8735L25.0288 19.341L25.1391 35.9082C25.7108 36.5699 25.8263 37.5343 25.3632 38.2399C24.8205 39.0668 23.6909 39.2236 22.8402 38.59Z" fill="#FFB8B8"/>
<path d="M35.8915 76.2938L38.4787 76.2936L39.7097 66.337L35.8911 66.3372L35.8915 76.2938Z" fill="#FFB8B8"/>
<path d="M35.2319 75.4509L40.3272 75.4507H40.3274C41.1886 75.4507 42.0145 75.7921 42.6234 76.3996C43.2323 77.0071 43.5745 77.8311 43.5745 78.6903V78.7956L35.2321 78.7959L35.2319 75.4509Z" fill="#2F2E41"/>
<path d="M11.8339 76.2938L14.4213 76.2936L15.652 66.337L11.8335 66.3372L11.8339 76.2938Z" fill="#FFB8B8"/>
<path d="M11.1738 75.4509L16.2691 75.4507H16.2693C17.1305 75.4507 17.9563 75.7921 18.5653 76.3996C19.1742 77.0071 19.5163 77.8311 19.5164 78.6903V78.7956L11.174 78.7959L11.1738 75.4509Z" fill="#2F2E41"/>
<path d="M35.7407 73.5127L35.5238 72.2146C35.3011 72.1369 35.1118 71.9853 34.9875 71.7852C34.7547 71.4181 34.7176 70.9015 34.8772 70.2495L33.1315 55.5409L24.0177 46.1067L18.171 60.1766L15.8564 71.3106V72.9193L11.2354 73.5113L11.4456 71.9951C11.2689 71.9195 11.1216 71.7885 11.026 71.622C10.7605 71.1811 10.7642 70.4977 11.0368 69.5911L11.0486 69.5518L11.0335 69.4164C11.023 69.3214 11.0924 60.2271 13.8022 55.7212L16.516 42.0409C16.4455 41.8483 16.0976 40.7266 16.7357 38.8311C17.3654 36.9605 19.1267 33.9471 23.9411 30.2138L23.9576 30.201L23.9781 30.1967C24.0315 30.1857 29.3415 29.1325 32.0877 32.7154L32.1062 32.7396V32.7702C32.1062 32.9917 32.1014 38.1466 31.6929 39.2904L38.2094 51.2451C38.3363 51.3792 39.4756 52.6918 39.0709 56.1428L40.1236 67.9064C40.2441 68.1358 41.3337 70.2965 40.1327 71.1518L40.3481 72.6371L35.7407 73.5127Z" fill="#064564"/>
<path d="M24.8396 24.0793C23.616 24.0793 21.99 23.6479 20.9947 21.659L20.9751 21.6199L23.4272 16.4339C23.7449 15.762 24.3135 15.2408 25.0114 14.9819C25.7094 14.723 26.4811 14.7468 27.1616 15.0484C27.8421 15.35 28.3773 15.9053 28.6526 16.5955C28.928 17.2857 28.9217 18.0561 28.635 18.7417L26.515 23.8123L26.4781 23.826C25.9486 23.9956 25.3957 24.0811 24.8396 24.0793Z" fill="#064564"/>
<path d="M31.6317 34.3614L23.9014 30.7194L24.964 17.7854L26.9012 15.4232L27.2764 15.343C29.0011 14.9746 30.7932 15.0737 32.4665 15.6298L32.5033 15.6421L35.6853 22.4147C35.7053 22.4485 38 26.4907 34.8277 28.6218L31.6317 34.3614Z" fill="#BEE2F2"/>
<path d="M42.2589 30.2396C42.1666 30.278 42.0775 30.3236 41.9924 30.3759L33.8466 26.6583L33.6376 24.4971L30.3274 24.3855L30.3247 28.2472C30.3245 28.5592 30.4257 28.8628 30.6132 29.1125C30.8006 29.3622 31.0642 29.5445 31.3643 29.632L41.1461 32.4842C41.2466 32.8551 41.4578 33.1866 41.7518 33.4347C42.0457 33.6828 42.4084 33.8358 42.7916 33.8733C43.1748 33.9107 43.5603 33.8309 43.8969 33.6444C44.2335 33.4579 44.5052 33.1736 44.6759 32.8293C44.8466 32.485 44.9082 32.0969 44.8525 31.7168C44.7968 31.3367 44.6264 30.9826 44.364 30.7015C44.1016 30.4203 43.7596 30.2256 43.3836 30.1431C43.0076 30.0606 42.6153 30.0943 42.2589 30.2397L42.2589 30.2396Z" fill="#FFB8B8"/>
<path d="M32.2954 25.4194C31.3672 25.4194 30.3197 25.0991 29.3142 24.096L29.2832 24.0651L29.9626 18.3711C30.0506 17.6334 30.4245 16.9594 31.0043 16.4932C31.5841 16.0271 32.3237 15.8058 33.0649 15.8768C33.8061 15.9478 34.49 16.3054 34.9703 16.8731C35.4506 17.4407 35.6892 18.1734 35.6349 18.9144L35.2339 24.3938L35.2032 24.4183C35.1835 24.4341 33.9232 25.4194 32.2954 25.4194Z" fill="#064564"/>
<path d="M34.7796 10.9176C36.1527 8.41153 35.2296 5.26938 32.7177 3.89943C30.2059 2.52947 27.0566 3.45049 25.6835 5.95658C24.3104 8.46267 25.2335 11.6048 27.7453 12.9748C30.2572 14.3447 33.4065 13.4237 34.7796 10.9176Z" fill="#FFB8B8"/>
<path d="M35.5067 5.69708C35.2495 4.20457 34.0486 2.9673 32.6181 2.46106C31.1874 1.95482 29.5742 2.11946 28.1733 2.70243C27.94 2.79995 27.7119 2.90938 27.4899 3.03028C26.9778 2.0565 25.7225 1.49172 24.5743 1.55268C23.1871 1.62632 21.9344 2.3586 20.7297 3.04875C19.525 3.7389 18.2322 4.42556 16.8434 4.39343C14.3336 4.33538 12.4665 2.01387 10.0531 1.32396C8.97877 1.01684 7.83563 1.04791 6.77965 1.41292C5.72367 1.77793 4.80628 2.45911 4.15264 3.36351C3.499 4.26792 3.14096 5.3515 3.12736 6.46642C3.11375 7.58135 3.44525 8.67331 4.07663 9.59332C5.10636 7.75219 7.52456 7.13034 9.62283 7.38098C11.721 7.63163 13.6766 8.54925 15.7321 9.03804C17.7878 9.52683 20.1685 9.50585 21.7607 8.1197C22.664 7.33345 23.1943 6.20965 23.9806 5.30701C24.5125 4.69647 25.2696 4.18093 26.0433 4.05958C25.2812 4.74428 24.6995 5.60526 24.3491 6.56684C23.7287 8.32538 24.0604 10.4368 25.3473 11.7885C26.727 13.2376 28.8924 13.6238 30.8955 13.6003L30.9374 13.5578C30.3241 12.6419 29.8401 11.3719 30.5153 10.5005C31.1819 9.64024 32.4965 9.76698 33.5173 9.38634C34.9391 8.85617 35.7638 7.18961 35.5067 5.69708Z" fill="#2F2E41"/>
<path d="M49.4976 79H0.180648C0.132737 79 0.0867886 78.981 0.0529105 78.9472C0.0190324 78.9134 0 78.8675 0 78.8197C0 78.772 0.0190324 78.7261 0.0529105 78.6923C0.0867886 78.6585 0.132737 78.6395 0.180648 78.6395H49.4976C49.5455 78.6395 49.5915 78.6585 49.6253 78.6923C49.6592 78.7261 49.6782 78.772 49.6782 78.8197C49.6782 78.8675 49.6592 78.9134 49.6253 78.9472C49.5915 78.981 49.5455 79 49.4976 79Z" fill="#CCCCCC"/>
<path d="M66.8203 17.0088C66.5941 17.0095 66.4112 17.3025 66.4116 17.6633C66.4121 18.023 66.5948 18.3144 66.8203 18.3151H86.1261C86.3522 18.3144 86.5352 18.0214 86.5347 17.6607C86.5343 17.3009 86.3516 17.0095 86.1261 17.0088H66.8203Z" fill="white"/>
<path d="M66.8203 20.7937C66.5941 20.7944 66.4112 21.0874 66.4116 21.4482C66.4121 21.8079 66.5948 22.0993 66.8203 22.1H86.1261C86.3522 22.0993 86.5352 21.8063 86.5347 21.4456C86.5343 21.0858 86.3516 20.7944 86.1261 20.7937H66.8203Z" fill="white"/>
<path d="M66.8203 24.5328C66.5941 24.5336 66.4112 24.8266 66.4116 25.1873C66.4121 25.547 66.5948 25.8385 66.8203 25.8392H75.1276C75.3538 25.8385 75.5367 25.5454 75.5363 25.1847C75.5358 24.825 75.3531 24.5335 75.1276 24.5328H66.8203Z" fill="white"/>
<path d="M57.0176 26.6012C59.9109 26.6012 62.2564 24.2611 62.2564 21.3744C62.2564 18.4877 59.9109 16.1476 57.0176 16.1476C54.1243 16.1476 51.7788 18.4877 51.7788 21.3744C51.7788 24.2611 54.1243 26.6012 57.0176 26.6012Z" fill="#FF6501"/>
</svg>
